999
FreeCAD v2023.1103 14555 (Git shallow)
  0
SECTION
  2
HEADER
  9
$ACADVER
  1
AC1014
  9
$ACADMAINTVER
 70
     9
  9
$DWGCODEPAGE
  3
ANSI_1252
  9
$TEXTSTYLE
  7
STANDARD
  9
$DIMSTYLE
  2
STANDARD
  9
$DIMTXSTY
  7
STANDARD
  9
$CMLSTYLE
  2
STANDARD
  9
$LUNITS
 70
2
  9
$INSUNITS
 70
4
  9
$PEXTMAX
 10
50
 20
50
 30
50
  9
$PEXTMIN
 10
0
 20
0
 30
0
  9
$HANDSEED
  5
FFFF
  0
ENDSEC
  0
SECTION
  2
CLASSES
  0
CLASS
  1
ACDBDICTIONARYWDFLT
  2
AcDbDictionaryWithDefault
  3
ObjectDBX Classes
 90
        0
280
     0
281
     0
  0
CLASS
  1
XRECORD
  2
AcDbXrecord
  3
ObjectDBX Classes
 90
        0
280
     0
281
     0
  0
CLASS
  1
LWPOLYLINE
  2
AcDbPolyline
  3
ObjectDBX Classes
 90
        0
280
     0
281
     1
  0
ENDSEC
  0
SECTION
  2
TABLES
  0
TABLE
  2
VPORT
  5
20
330
0
100
AcDbSymbolTable
 70
     1
  0
VPORT
  5
21
330
20
100
AcDbSymbolTableRecord
100
AcDbViewportTableRecord
  2
*ACTIVE
 70
     0
  0
ENDTAB
  0
TABLE
  2
LTYPE
  5
22
330
0
100
AcDbSymbolTable
 70
     1
  0
LTYPE
  5
23
330
21
100
AcDbSymbolTableRecord
100
AcDbLinetypeTableRecord
  2
BYBLOCK
 70
     0
  3

 72
    65
 73
     0
 40
0.0
  0
LTYPE
  5
24
330
21
100
AcDbSymbolTableRecord
100
AcDbLinetypeTableRecord
  2
BYLAYER
 70
     0
  3

 72
    65
 73
     0
 40
0.0
  0
LTYPE
  5
25
330
21
100
AcDbSymbolTableRecord
100
AcDbLinetypeTableRecord
  2
CONTINUOUS
 70
     0
  3
Solid line
 72
    65
 73
     0
 40
0.0
  0
ENDTAB
  0
TABLE
  2
LAYER
  5
AE5
330
0
100
AcDbSymbolTable
 70
2
  0
LAYER
  5
AE6
330
AE5
100
AcDbSymbolTableRecord
100
AcDbLayerTableRecord
  2
0
 70
   0
 62
   7
  6
CONTINUOUS
  0
LAYER
  5
AE7
330
AE5
100
AcDbSymbolTableRecord
100
AcDbLayerTableRecord
  2
View001
 70
    0
 62
    7
  6
CONTINUOUS
  0
ENDTAB
  0
TABLE
  2
STYLE
  5
70
330
0
100
AcDbSymbolTable
 70
     2
  0
STYLE
  5
71
330
70
100
AcDbSymbolTableRecord
100
AcDbTextStyleTableRecord
  2
STANDARD
 70
     0
 40
0.0
 41
1.0
 50
0.0
 71
     0
 42
2.5
  3
arial.ttf
  4

  0
STYLE
  5
72
330
70
100
AcDbSymbolTableRecord
100
AcDbTextStyleTableRecord
  2
ANNOTATIVE
 70
     0
 40
0.0
 41
1.0
 50
0.0
 71
     0
 42
2.5
  3
arial.ttf
  4

  0
ENDTAB
  0
TABLE
  2
VIEW
  5
73
330
0
100
AcDbSymbolTable
 70
     0
  0
ENDTAB
  0
TABLE
  2
UCS
  5
74
330
0
100
AcDbSymbolTable
 70
     0
  0
ENDTAB
  0
TABLE
  2
APPID
  5
75
330
0
100
AcDbSymbolTable
 70
     2
  0
APPID
  5
76
330
75
100
AcDbSymbolTableRecord
100
AcDbRegAppTableRecord
  2
ACAD
 70
     0
  0
APPID
  5
77
330
75
100
AcDbSymbolTableRecord
100
AcDbRegAppTableRecord
  2
ACADANNOTATIVE
 70
     0
  0
ENDTAB
  0
TABLE
  2
DIMSTYLE
  5
78
330
0
100
AcDbSymbolTable
 70
     2
  0
DIMSTYLE
105
79
330
78
100
AcDbSymbolTableRecord
100
AcDbDimStyleTableRecord
  2
STANDARD
 70
     0
  3

  4

  5

  6

  7

 40
0.0
 41
2.5
 42
0.625
 43
3.75
 44
1.25
 45
0.0
 46
0.0
 47
0.0
 48
0.0
140
2.5
141
2.5
142
0.0
143
0.03937007874016
144
1.0
145
0.0
146
1.0
147
0.625
 71
     0
 72
     0
 73
     0
 74
     0
 75
     0
 76
     0
 77
     1
 78
     8
170
     0
171
     3
172
     1
173
     0
174
     0
175
     0
176
     0
177
     0
178
     0
270
     2
271
     2
272
     2
273
     2
274
     3
340
71
275
     0
280
     0
281
     0
282
     0
283
     0
284
     8
285
     0
286
     0
287
     3
288
     0
  0
ENDTAB
  0
TABLE
  2
BLOCK_RECORD
  5
A01
330
0
100
AcDbSymbolTable
  70
5
  0
BLOCK_RECORD
  5
A02
330
A01
100
AcDbSymbolTableRecord
100
AcDbBlockTableRecord
  2
*MODEL_SPACE
  0
BLOCK_RECORD
  5
A03
330
A01
100
AcDbSymbolTableRecord
100
AcDbBlockTableRecord
  2
*PAPER_SPACE
  0
ENDTAB
  0
ENDSEC
  0
SECTION
  2
BLOCKS
  0
BLOCK
  5
A04
330
A02
100
AcDbEntity
  8
0
100
AcDbBlockBegin
  2
*MODEL_SPACE
 70
   0
 10
0
 20
0
 30
0
  3
*MODEL_SPACE
  1
 
  0
ENDBLK
  5
A05
330
A02
100
AcDbEntity
  8
0
100
AcDbBlockEnd
  0
BLOCK
  5
A06
330
A03
100
AcDbEntity
 67
1
  8
0
100
AcDbBlockBegin
  2
*PAPER_SPACE
 70
   0
 10
0
 20
0
 30
0
  3
*PAPER_SPACE
  1
 
  0
ENDBLK
  5
A07
330
A03
100
AcDbEntity
 67
    1
  8
0
100
AcDbBlockEnd
  0
ENDSEC
  0
SECTION
  2
ENTITIES
  0
LINE
  5
A08
330
A02
100
AcDbEntity
  8
View001
100
AcDbLine
 10
547
 20
410
 30
0
 11
547
 21
10
 31
0
  0
LINE
  5
A09
330
A02
100
AcDbEntity
  8
View001
100
AcDbLine
 10
547
 20
10
 30
0
 11
47
 21
10
 31
0
  0
LINE
  5
A0A
330
A02
100
AcDbEntity
  8
View001
100
AcDbLine
 10
47
 20
10
 30
0
 11
47
 21
410
 31
0
  0
LINE
  5
A0B
330
A02
100
AcDbEntity
  8
View001
100
AcDbLine
 10
47
 20
410
 30
0
 11
547
 21
410
 31
0
  0
LINE
  5
A0C
330
A02
100
AcDbEntity
  8
View001
100
AcDbLine
 10
412.484
 20
375.975
 30
0
 11
411.662
 21
372.908
 31
0
  0
LINE
  5
A0D
330
A02
100
AcDbEntity
  8
View001
100
AcDbLine
 10
411.662
 20
372.908
 30
0
 11
413.908
 21
370.662
 31
0
  0
LINE
  5
A0E
330
A02
100
AcDbEntity
  8
View001
100
AcDbLine
 10
413.908
 20
370.662
 30
0
 11
416.975
 21
371.484
 31
0
  0
LINE
  5
A0F
330
A02
100
AcDbEntity
  8
View001
100
AcDbLine
 10
416.975
 20
371.484
 30
0
 11
417.797
 21
374.552
 31
0
  0
LINE
  5
A10
330
A02
100
AcDbEntity
  8
View001
100
AcDbLine
 10
417.797
 20
374.552
 30
0
 11
415.552
 21
376.797
 31
0
  0
LINE
  5
A11
330
A02
100
AcDbEntity
  8
View001
100
AcDbLine
 10
415.552
 20
376.797
 30
0
 11
412.484
 21
375.975
 31
0
  0
LINE
  5
A12
330
A02
100
AcDbEntity
  8
View001
100
AcDbLine
 10
363.825
 20
393.5
 30
0
 11
365.412
 21
390.75
 31
0
  0
LINE
  5
A13
330
A02
100
AcDbEntity
  8
View001
100
AcDbLine
 10
365.412
 20
390.75
 30
0
 11
368.588
 21
390.75
 31
0
  0
LINE
  5
A14
330
A02
100
AcDbEntity
  8
View001
100
AcDbLine
 10
368.588
 20
390.75
 30
0
 11
370.175
 21
393.5
 31
0
  0
LINE
  5
A15
330
A02
100
AcDbEntity
  8
View001
100
AcDbLine
 10
370.175
 20
393.5
 30
0
 11
368.588
 21
396.25
 31
0
  0
LINE
  5
A16
330
A02
100
AcDbEntity
  8
View001
100
AcDbLine
 10
368.588
 20
396.25
 30
0
 11
365.412
 21
396.25
 31
0
  0
LINE
  5
A17
330
A02
100
AcDbEntity
  8
View001
100
AcDbLine
 10
365.412
 20
396.25
 30
0
 11
363.825
 21
393.5
 31
0
  0
LINE
  5
A18
330
A02
100
AcDbEntity
  8
View001
100
AcDbLine
 10
317.025
 20
371.484
 30
0
 11
320.092
 21
370.662
 31
0
  0
LINE
  5
A19
330
A02
100
AcDbEntity
  8
View001
100
AcDbLine
 10
320.092
 20
370.662
 30
0
 11
322.338
 21
372.908
 31
0
  0
LINE
  5
A1A
330
A02
100
AcDbEntity
  8
View001
100
AcDbLine
 10
322.338
 20
372.908
 30
0
 11
321.516
 21
375.975
 31
0
  0
LINE
  5
A1B
330
A02
100
AcDbEntity
  8
View001
100
AcDbLine
 10
321.516
 20
375.975
 30
0
 11
318.448
 21
376.797
 31
0
  0
LINE
  5
A1C
330
A02
100
AcDbEntity
  8
View001
100
AcDbLine
 10
318.448
 20
376.797
 30
0
 11
316.203
 21
374.552
 31
0
  0
LINE
  5
A1D
330
A02
100
AcDbEntity
  8
View001
100
AcDbLine
 10
316.203
 20
374.552
 30
0
 11
317.025
 21
371.484
 31
0
  0
LINE
  5
A1E
330
A02
100
AcDbEntity
  8
View001
100
AcDbLine
 10
293.151
 20
351.952
 30
0
 11
295.954
 21
353.443
 31
0
  0
LINE
  5
A1F
330
A02
100
AcDbEntity
  8
View001
100
AcDbLine
 10
295.954
 20
353.443
 30
0
 11
296.065
 21
356.616
 31
0
  0
LINE
  5
A20
330
A02
100
AcDbEntity
  8
View001
100
AcDbLine
 10
296.065
 20
356.616
 30
0
 11
293.372
 21
358.299
 31
0
  0
LINE
  5
A21
330
A02
100
AcDbEntity
  8
View001
100
AcDbLine
 10
293.372
 20
358.299
 30
0
 11
290.569
 21
356.808
 31
0
  0
LINE
  5
A22
330
A02
100
AcDbEntity
  8
View001
100
AcDbLine
 10
290.569
 20
356.808
 30
0
 11
290.458
 21
353.635
 31
0
  0
LINE
  5
A23
330
A02
100
AcDbEntity
  8
View001
100
AcDbLine
 10
290.458
 20
353.635
 30
0
 11
293.151
 21
351.952
 31
0
  0
LINE
  5
A24
330
A02
100
AcDbEntity
  8
View001
100
AcDbLine
 10
262.72
 20
343.816
 30
0
 11
264.926
 21
341.532
 31
0
  0
LINE
  5
A25
330
A02
100
AcDbEntity
  8
View001
100
AcDbLine
 10
264.926
 20
341.532
 30
0
 11
268.007
 21
342.3
 31
0
  0
LINE
  5
A26
330
A02
100
AcDbEntity
  8
View001
100
AcDbLine
 10
268.007
 20
342.3
 30
0
 11
268.882
 21
345.353
 31
0
  0
LINE
  5
A27
330
A02
100
AcDbEntity
  8
View001
100
AcDbLine
 10
268.882
 20
345.353
 30
0
 11
266.676
 21
347.637
 31
0
  0
LINE
  5
A28
330
A02
100
AcDbEntity
  8
View001
100
AcDbLine
 10
266.676
 20
347.637
 30
0
 11
263.595
 21
346.869
 31
0
  0
LINE
  5
A29
330
A02
100
AcDbEntity
  8
View001
100
AcDbLine
 10
263.595
 20
346.869
 30
0
 11
262.72
 21
343.816
 31
0
  0
LINE
  5
A2A
330
A02
100
AcDbEntity
  8
View001
100
AcDbLine
 10
210.493
 20
343.816
 30
0
 11
209.618
 21
346.869
 31
0
  0
LINE
  5
A2B
330
A02
100
AcDbEntity
  8
View001
100
AcDbLine
 10
209.618
 20
346.869
 30
0
 11
206.536
 21
347.637
 31
0
  0
LINE
  5
A2C
330
A02
100
AcDbEntity
  8
View001
100
AcDbLine
 10
206.536
 20
347.637
 30
0
 11
204.331
 21
345.353
 31
0
  0
LINE
  5
A2D
330
A02
100
AcDbEntity
  8
View001
100
AcDbLine
 10
204.331
 20
345.353
 30
0
 11
205.206
 21
342.3
 31
0
  0
LINE
  5
A2E
330
A02
100
AcDbEntity
  8
View001
100
AcDbLine
 10
205.206
 20
342.3
 30
0
 11
208.287
 21
341.532
 31
0
  0
LINE
  5
A2F
330
A02
100
AcDbEntity
  8
View001
100
AcDbLine
 10
208.287
 20
341.532
 30
0
 11
210.493
 21
343.816
 31
0
  0
LINE
  5
A30
330
A02
100
AcDbEntity
  8
View001
100
AcDbLine
 10
239.782
 20
341
 30
0
 11
238.194
 21
343.75
 31
0
  0
LINE
  5
A31
330
A02
100
AcDbEntity
  8
View001
100
AcDbLine
 10
238.194
 20
343.75
 30
0
 11
235.019
 21
343.75
 31
0
  0
LINE
  5
A32
330
A02
100
AcDbEntity
  8
View001
100
AcDbLine
 10
235.019
 20
343.75
 30
0
 11
233.431
 21
341
 31
0
  0
LINE
  5
A33
330
A02
100
AcDbEntity
  8
View001
100
AcDbLine
 10
233.431
 20
341
 30
0
 11
235.019
 21
338.25
 31
0
  0
LINE
  5
A34
330
A02
100
AcDbEntity
  8
View001
100
AcDbLine
 10
235.019
 20
338.25
 30
0
 11
238.194
 21
338.25
 31
0
  0
LINE
  5
A35
330
A02
100
AcDbEntity
  8
View001
100
AcDbLine
 10
238.194
 20
338.25
 30
0
 11
239.782
 21
341
 31
0
  0
LINE
  5
A36
330
A02
100
AcDbEntity
  8
View001
100
AcDbLine
 10
434.5
 20
329.175
 30
0
 11
431.75
 21
327.588
 31
0
  0
LINE
  5
A37
330
A02
100
AcDbEntity
  8
View001
100
AcDbLine
 10
431.75
 20
327.588
 30
0
 11
431.75
 21
324.412
 31
0
  0
LINE
  5
A38
330
A02
100
AcDbEntity
  8
View001
100
AcDbLine
 10
431.75
 20
324.412
 30
0
 11
434.5
 21
322.825
 31
0
  0
LINE
  5
A39
330
A02
100
AcDbEntity
  8
View001
100
AcDbLine
 10
434.5
 20
322.825
 30
0
 11
437.25
 21
324.412
 31
0
  0
LINE
  5
A3A
330
A02
100
AcDbEntity
  8
View001
100
AcDbLine
 10
437.25
 20
324.412
 30
0
 11
437.25
 21
327.588
 31
0
  0
LINE
  5
A3B
330
A02
100
AcDbEntity
  8
View001
100
AcDbLine
 10
437.25
 20
327.588
 30
0
 11
434.5
 21
329.175
 31
0
  0
LINE
  5
A3C
330
A02
100
AcDbEntity
  8
View001
100
AcDbLine
 10
411.662
 20
273.092
 30
0
 11
412.484
 21
270.025
 31
0
  0
LINE
  5
A3D
330
A02
100
AcDbEntity
  8
View001
100
AcDbLine
 10
412.484
 20
270.025
 30
0
 11
415.552
 21
269.203
 31
0
  0
LINE
  5
A3E
330
A02
100
AcDbEntity
  8
View001
100
AcDbLine
 10
415.552
 20
269.203
 30
0
 11
417.797
 21
271.448
 31
0
  0
LINE
  5
A3F
330
A02
100
AcDbEntity
  8
View001
100
AcDbLine
 10
417.797
 20
271.448
 30
0
 11
416.975
 21
274.516
 31
0
  0
LINE
  5
A40
330
A02
100
AcDbEntity
  8
View001
100
AcDbLine
 10
416.975
 20
274.516
 30
0
 11
413.908
 21
275.338
 31
0
  0
LINE
  5
A41
330
A02
100
AcDbEntity
  8
View001
100
AcDbLine
 10
413.908
 20
275.338
 30
0
 11
411.662
 21
273.092
 31
0
  0
LINE
  5
A42
330
A02
100
AcDbEntity
  8
View001
100
AcDbLine
 10
363.825
 20
252.5
 30
0
 11
365.412
 21
249.75
 31
0
  0
LINE
  5
A43
330
A02
100
AcDbEntity
  8
View001
100
AcDbLine
 10
365.412
 20
249.75
 30
0
 11
368.588
 21
249.75
 31
0
  0
LINE
  5
A44
330
A02
100
AcDbEntity
  8
View001
100
AcDbLine
 10
368.588
 20
249.75
 30
0
 11
370.175
 21
252.5
 31
0
  0
LINE
  5
A45
330
A02
100
AcDbEntity
  8
View001
100
AcDbLine
 10
370.175
 20
252.5
 30
0
 11
368.588
 21
255.25
 31
0
  0
LINE
  5
A46
330
A02
100
AcDbEntity
  8
View001
100
AcDbLine
 10
368.588
 20
255.25
 30
0
 11
365.412
 21
255.25
 31
0
  0
LINE
  5
A47
330
A02
100
AcDbEntity
  8
View001
100
AcDbLine
 10
365.412
 20
255.25
 30
0
 11
363.825
 21
252.5
 31
0
  0
LINE
  5
A48
330
A02
100
AcDbEntity
  8
View001
100
AcDbLine
 10
317.025
 20
274.516
 30
0
 11
316.203
 21
271.448
 31
0
  0
LINE
  5
A49
330
A02
100
AcDbEntity
  8
View001
100
AcDbLine
 10
316.203
 20
271.448
 30
0
 11
318.448
 21
269.203
 31
0
  0
LINE
  5
A4A
330
A02
100
AcDbEntity
  8
View001
100
AcDbLine
 10
318.448
 20
269.203
 30
0
 11
321.516
 21
270.025
 31
0
  0
LINE
  5
A4B
330
A02
100
AcDbEntity
  8
View001
100
AcDbLine
 10
321.516
 20
270.025
 30
0
 11
322.338
 21
273.092
 31
0
  0
LINE
  5
A4C
330
A02
100
AcDbEntity
  8
View001
100
AcDbLine
 10
322.338
 20
273.092
 30
0
 11
320.092
 21
275.338
 31
0
  0
LINE
  5
A4D
330
A02
100
AcDbEntity
  8
View001
100
AcDbLine
 10
320.092
 20
275.338
 30
0
 11
317.025
 21
274.516
 31
0
  0
LINE
  5
A4E
330
A02
100
AcDbEntity
  8
View001
100
AcDbLine
 10
290.458
 20
292.365
 30
0
 11
290.569
 21
289.192
 31
0
  0
LINE
  5
A4F
330
A02
100
AcDbEntity
  8
View001
100
AcDbLine
 10
290.569
 20
289.192
 30
0
 11
293.372
 21
287.701
 31
0
  0
LINE
  5
A50
330
A02
100
AcDbEntity
  8
View001
100
AcDbLine
 10
293.372
 20
287.701
 30
0
 11
296.065
 21
289.384
 31
0
  0
LINE
  5
A51
330
A02
100
AcDbEntity
  8
View001
100
AcDbLine
 10
296.065
 20
289.384
 30
0
 11
295.954
 21
292.557
 31
0
  0
LINE
  5
A52
330
A02
100
AcDbEntity
  8
View001
100
AcDbLine
 10
295.954
 20
292.557
 30
0
 11
293.151
 21
294.048
 31
0
  0
LINE
  5
A53
330
A02
100
AcDbEntity
  8
View001
100
AcDbLine
 10
293.151
 20
294.048
 30
0
 11
290.458
 21
292.365
 31
0
  0
LINE
  5
A54
330
A02
100
AcDbEntity
  8
View001
100
AcDbLine
 10
256.72
 20
299.184
 30
0
 11
257.595
 21
296.131
 31
0
  0
LINE
  5
A55
330
A02
100
AcDbEntity
  8
View001
100
AcDbLine
 10
257.595
 20
296.131
 30
0
 11
260.676
 21
295.363
 31
0
  0
LINE
  5
A56
330
A02
100
AcDbEntity
  8
View001
100
AcDbLine
 10
260.676
 20
295.363
 30
0
 11
262.882
 21
297.647
 31
0
  0
LINE
  5
A57
330
A02
100
AcDbEntity
  8
View001
100
AcDbLine
 10
262.882
 20
297.647
 30
0
 11
262.007
 21
300.7
 31
0
  0
LINE
  5
A58
330
A02
100
AcDbEntity
  8
View001
100
AcDbLine
 10
262.007
 20
300.7
 30
0
 11
258.926
 21
301.468
 31
0
  0
LINE
  5
A59
330
A02
100
AcDbEntity
  8
View001
100
AcDbLine
 10
258.926
 20
301.468
 30
0
 11
256.72
 21
299.184
 31
0
  0
LINE
  5
A5A
330
A02
100
AcDbEntity
  8
View001
100
AcDbLine
 10
233.782
 20
302
 30
0
 11
232.194
 21
304.75
 31
0
  0
LINE
  5
A5B
330
A02
100
AcDbEntity
  8
View001
100
AcDbLine
 10
232.194
 20
304.75
 30
0
 11
229.019
 21
304.75
 31
0
  0
LINE
  5
A5C
330
A02
100
AcDbEntity
  8
View001
100
AcDbLine
 10
229.019
 20
304.75
 30
0
 11
227.431
 21
302
 31
0
  0
LINE
  5
A5D
330
A02
100
AcDbEntity
  8
View001
100
AcDbLine
 10
227.431
 20
302
 30
0
 11
229.019
 21
299.25
 31
0
  0
LINE
  5
A5E
330
A02
100
AcDbEntity
  8
View001
100
AcDbLine
 10
229.019
 20
299.25
 30
0
 11
232.194
 21
299.25
 31
0
  0
LINE
  5
A5F
330
A02
100
AcDbEntity
  8
View001
100
AcDbLine
 10
232.194
 20
299.25
 30
0
 11
233.782
 21
302
 31
0
  0
LINE
  5
A60
330
A02
100
AcDbEntity
  8
View001
100
AcDbLine
 10
204.493
 20
299.184
 30
0
 11
202.287
 21
301.468
 31
0
  0
LINE
  5
A61
330
A02
100
AcDbEntity
  8
View001
100
AcDbLine
 10
202.287
 20
301.468
 30
0
 11
199.206
 21
300.7
 31
0
  0
LINE
  5
A62
330
A02
100
AcDbEntity
  8
View001
100
AcDbLine
 10
199.206
 20
300.7
 30
0
 11
198.331
 21
297.647
 31
0
  0
LINE
  5
A63
330
A02
100
AcDbEntity
  8
View001
100
AcDbLine
 10
198.331
 20
297.647
 30
0
 11
200.536
 21
295.363
 31
0
  0
LINE
  5
A64
330
A02
100
AcDbEntity
  8
View001
100
AcDbLine
 10
200.536
 20
295.363
 30
0
 11
203.618
 21
296.131
 31
0
  0
LINE
  5
A65
330
A02
100
AcDbEntity
  8
View001
100
AcDbLine
 10
203.618
 20
296.131
 30
0
 11
204.493
 21
299.184
 31
0
  0
LINE
  5
A66
330
A02
100
AcDbEntity
  8
View001
100
AcDbLine
 10
176.755
 20
289.365
 30
0
 11
174.062
 21
291.048
 31
0
  0
LINE
  5
A67
330
A02
100
AcDbEntity
  8
View001
100
AcDbLine
 10
174.062
 20
291.048
 30
0
 11
171.258
 21
289.557
 31
0
  0
LINE
  5
A68
330
A02
100
AcDbEntity
  8
View001
100
AcDbLine
 10
171.258
 20
289.557
 30
0
 11
171.148
 21
286.384
 31
0
  0
LINE
  5
A69
330
A02
100
AcDbEntity
  8
View001
100
AcDbLine
 10
171.148
 20
286.384
 30
0
 11
173.841
 21
284.701
 31
0
  0
LINE
  5
A6A
330
A02
100
AcDbEntity
  8
View001
100
AcDbLine
 10
173.841
 20
284.701
 30
0
 11
176.644
 21
286.192
 31
0
  0
LINE
  5
A6B
330
A02
100
AcDbEntity
  8
View001
100
AcDbLine
 10
176.644
 20
286.192
 30
0
 11
176.755
 21
289.365
 31
0
  0
LINE
  5
A6C
330
A02
100
AcDbEntity
  8
View001
100
AcDbLine
 10
138.14
 20
259.684
 30
0
 11
134.989
 21
259.297
 31
0
  0
LINE
  5
A6D
330
A02
100
AcDbEntity
  8
View001
100
AcDbLine
 10
134.989
 20
259.297
 30
0
 11
133.748
 21
256.374
 31
0
  0
LINE
  5
A6E
330
A02
100
AcDbEntity
  8
View001
100
AcDbLine
 10
133.748
 20
256.374
 30
0
 11
135.659
 21
253.838
 31
0
  0
LINE
  5
A6F
330
A02
100
AcDbEntity
  8
View001
100
AcDbLine
 10
135.659
 20
253.838
 30
0
 11
138.811
 21
254.225
 31
0
  0
LINE
  5
A70
330
A02
100
AcDbEntity
  8
View001
100
AcDbLine
 10
138.811
 20
254.225
 30
0
 11
140.051
 21
257.148
 31
0
  0
LINE
  5
A71
330
A02
100
AcDbEntity
  8
View001
100
AcDbLine
 10
140.051
 20
257.148
 30
0
 11
138.14
 21
259.684
 31
0
  0
LINE
  5
A72
330
A02
100
AcDbEntity
  8
View001
100
AcDbLine
 10
108.905
 20
233.678
 30
0
 11
106.994
 21
236.214
 31
0
  0
LINE
  5
A73
330
A02
100
AcDbEntity
  8
View001
100
AcDbLine
 10
106.994
 20
236.214
 30
0
 11
103.842
 21
235.827
 31
0
  0
LINE
  5
A74
330
A02
100
AcDbEntity
  8
View001
100
AcDbLine
 10
103.842
 20
235.827
 30
0
 11
102.601
 21
232.904
 31
0
  0
LINE
  5
A75
330
A02
100
AcDbEntity
  8
View001
100
AcDbLine
 10
102.601
 20
232.904
 30
0
 11
104.512
 21
230.368
 31
0
  0
LINE
  5
A76
330
A02
100
AcDbEntity
  8
View001
100
AcDbLine
 10
104.512
 20
230.368
 30
0
 11
107.664
 21
230.755
 31
0
  0
LINE
  5
A77
330
A02
100
AcDbEntity
  8
View001
100
AcDbLine
 10
107.664
 20
230.755
 30
0
 11
108.905
 21
233.678
 31
0
  0
LINE
  5
A78
330
A02
100
AcDbEntity
  8
View001
100
AcDbLine
 10
138.25
 20
306.412
 30
0
 11
141
 21
304.825
 31
0
  0
LINE
  5
A79
330
A02
100
AcDbEntity
  8
View001
100
AcDbLine
 10
141
 20
304.825
 30
0
 11
143.75
 21
306.412
 31
0
  0
LINE
  5
A7A
330
A02
100
AcDbEntity
  8
View001
100
AcDbLine
 10
143.75
 20
306.412
 30
0
 11
143.75
 21
309.588
 31
0
  0
LINE
  5
A7B
330
A02
100
AcDbEntity
  8
View001
100
AcDbLine
 10
143.75
 20
309.588
 30
0
 11
141
 21
311.175
 31
0
  0
LINE
  5
A7C
330
A02
100
AcDbEntity
  8
View001
100
AcDbLine
 10
141
 20
311.175
 30
0
 11
138.25
 21
309.588
 31
0
  0
LINE
  5
A7D
330
A02
100
AcDbEntity
  8
View001
100
AcDbLine
 10
138.25
 20
309.588
 30
0
 11
138.25
 21
306.412
 31
0
  0
LINE
  5
A7E
330
A02
100
AcDbEntity
  8
View001
100
AcDbLine
 10
67.9422
 20
251.065
 30
0
 11
66.7015
 21
248.142
 31
0
  0
LINE
  5
A7F
330
A02
100
AcDbEntity
  8
View001
100
AcDbLine
 10
66.7015
 20
248.142
 30
0
 11
68.6125
 21
245.606
 31
0
  0
LINE
  5
A80
330
A02
100
AcDbEntity
  8
View001
100
AcDbLine
 10
68.6125
 20
245.606
 30
0
 11
71.7642
 21
245.993
 31
0
  0
LINE
  5
A81
330
A02
100
AcDbEntity
  8
View001
100
AcDbLine
 10
71.7642
 20
245.993
 30
0
 11
73.005
 21
248.916
 31
0
  0
LINE
  5
A82
330
A02
100
AcDbEntity
  8
View001
100
AcDbLine
 10
73.005
 20
248.916
 30
0
 11
71.094
 21
251.452
 31
0
  0
LINE
  5
A83
330
A02
100
AcDbEntity
  8
View001
100
AcDbLine
 10
71.094
 20
251.452
 30
0
 11
67.9422
 21
251.065
 31
0
  0
LINE
  5
A84
330
A02
100
AcDbEntity
  8
View001
100
AcDbLine
 10
139.589
 20
382.314
 30
0
 11
139.755
 21
379.143
 31
0
  0
LINE
  5
A85
330
A02
100
AcDbEntity
  8
View001
100
AcDbLine
 10
139.755
 20
379.143
 30
0
 11
142.584
 21
377.702
 31
0
  0
LINE
  5
A86
330
A02
100
AcDbEntity
  8
View001
100
AcDbLine
 10
142.584
 20
377.702
 30
0
 11
145.247
 21
379.431
 31
0
  0
LINE
  5
A87
330
A02
100
AcDbEntity
  8
View001
100
AcDbLine
 10
145.247
 20
379.431
 30
0
 11
145.081
 21
382.602
 31
0
  0
LINE
  5
A88
330
A02
100
AcDbEntity
  8
View001
100
AcDbLine
 10
145.081
 20
382.602
 30
0
 11
142.252
 21
384.044
 31
0
  0
LINE
  5
A89
330
A02
100
AcDbEntity
  8
View001
100
AcDbLine
 10
142.252
 20
384.044
 30
0
 11
139.589
 21
382.314
 31
0
  0
LINE
  5
A8A
330
A02
100
AcDbEntity
  8
View001
100
AcDbLine
 10
187.694
 20
380.195
 30
0
 11
189.819
 21
377.835
 31
0
  0
LINE
  5
A8B
330
A02
100
AcDbEntity
  8
View001
100
AcDbLine
 10
189.819
 20
377.835
 30
0
 11
192.925
 21
378.495
 31
0
  0
LINE
  5
A8C
330
A02
100
AcDbEntity
  8
View001
100
AcDbLine
 10
192.925
 20
378.495
 30
0
 11
193.906
 21
381.515
 31
0
  0
LINE
  5
A8D
330
A02
100
AcDbEntity
  8
View001
100
AcDbLine
 10
193.906
 20
381.515
 30
0
 11
191.782
 21
383.875
 31
0
  0
LINE
  5
A8E
330
A02
100
AcDbEntity
  8
View001
100
AcDbLine
 10
191.782
 20
383.875
 30
0
 11
188.676
 21
383.215
 31
0
  0
LINE
  5
A8F
330
A02
100
AcDbEntity
  8
View001
100
AcDbLine
 10
188.676
 20
383.215
 30
0
 11
187.694
 21
380.195
 31
0
  0
LINE
  5
A90
330
A02
100
AcDbEntity
  8
View001
100
AcDbLine
 10
176.453
 20
346.69
 30
0
 11
175.367
 21
343.706
 31
0
  0
LINE
  5
A91
330
A02
100
AcDbEntity
  8
View001
100
AcDbLine
 10
175.367
 20
343.706
 30
0
 11
177.409
 21
341.273
 31
0
  0
LINE
  5
A92
330
A02
100
AcDbEntity
  8
View001
100
AcDbLine
 10
177.409
 20
341.273
 30
0
 11
180.536
 21
341.825
 31
0
  0
LINE
  5
A93
330
A02
100
AcDbEntity
  8
View001
100
AcDbLine
 10
180.536
 20
341.825
 30
0
 11
181.622
 21
344.809
 31
0
  0
LINE
  5
A94
330
A02
100
AcDbEntity
  8
View001
100
AcDbLine
 10
181.622
 20
344.809
 30
0
 11
179.581
 21
347.241
 31
0
  0
LINE
  5
A95
330
A02
100
AcDbEntity
  8
View001
100
AcDbLine
 10
179.581
 20
347.241
 30
0
 11
176.453
 21
346.69
 31
0
  0
LINE
  5
A96
330
A02
100
AcDbEntity
  8
View001
100
AcDbLine
 10
100.808
 20
377.102
 30
0
 11
103.638
 21
375.661
 31
0
  0
LINE
  5
A97
330
A02
100
AcDbEntity
  8
View001
100
AcDbLine
 10
103.638
 20
375.661
 30
0
 11
106.301
 21
377.39
 31
0
  0
LINE
  5
A98
330
A02
100
AcDbEntity
  8
View001
100
AcDbLine
 10
106.301
 20
377.39
 30
0
 11
106.135
 21
380.561
 31
0
  0
LINE
  5
A99
330
A02
100
AcDbEntity
  8
View001
100
AcDbLine
 10
106.135
 20
380.561
 30
0
 11
103.305
 21
382.003
 31
0
  0
LINE
  5
A9A
330
A02
100
AcDbEntity
  8
View001
100
AcDbLine
 10
103.305
 20
382.003
 30
0
 11
100.642
 21
380.273
 31
0
  0
LINE
  5
A9B
330
A02
100
AcDbEntity
  8
View001
100
AcDbLine
 10
100.642
 20
380.273
 30
0
 11
100.808
 21
377.102
 31
0
  0
LINE
  5
A9C
330
A02
100
AcDbEntity
  8
View001
100
AcDbLine
 10
350.095
 20
363.322
 30
0
 11
352.006
 21
360.786
 31
0
  0
LINE
  5
A9D
330
A02
100
AcDbEntity
  8
View001
100
AcDbLine
 10
352.006
 20
360.786
 30
0
 11
355.158
 21
361.173
 31
0
  0
LINE
  5
A9E
330
A02
100
AcDbEntity
  8
View001
100
AcDbLine
 10
355.158
 20
361.173
 30
0
 11
356.399
 21
364.096
 31
0
  0
LINE
  5
A9F
330
A02
100
AcDbEntity
  8
View001
100
AcDbLine
 10
356.399
 20
364.096
 30
0
 11
354.488
 21
366.632
 31
0
  0
LINE
  5
AA0
330
A02
100
AcDbEntity
  8
View001
100
AcDbLine
 10
354.488
 20
366.632
 30
0
 11
351.336
 21
366.245
 31
0
  0
LINE
  5
AA1
330
A02
100
AcDbEntity
  8
View001
100
AcDbLine
 10
351.336
 20
366.245
 30
0
 11
350.095
 21
363.322
 31
0
  0
LINE
  5
AA2
330
A02
100
AcDbEntity
  8
View001
100
AcDbLine
 10
320.86
 20
337.316
 30
0
 11
324.011
 21
337.703
 31
0
  0
LINE
  5
AA3
330
A02
100
AcDbEntity
  8
View001
100
AcDbLine
 10
324.011
 20
337.703
 30
0
 11
325.252
 21
340.626
 31
0
  0
LINE
  5
AA4
330
A02
100
AcDbEntity
  8
View001
100
AcDbLine
 10
325.252
 20
340.626
 30
0
 11
323.341
 21
343.162
 31
0
  0
LINE
  5
AA5
330
A02
100
AcDbEntity
  8
View001
100
AcDbLine
 10
323.341
 20
343.162
 30
0
 11
320.189
 21
342.775
 31
0
  0
LINE
  5
AA6
330
A02
100
AcDbEntity
  8
View001
100
AcDbLine
 10
320.189
 20
342.775
 30
0
 11
318.949
 21
339.852
 31
0
  0
LINE
  5
AA7
330
A02
100
AcDbEntity
  8
View001
100
AcDbLine
 10
318.949
 20
339.852
 30
0
 11
320.86
 21
337.316
 31
0
  0
LINE
  5
AA8
330
A02
100
AcDbEntity
  8
View001
100
AcDbLine
 10
397.284
 20
292.648
 30
0
 11
400.456
 21
292.814
 31
0
  0
LINE
  5
AA9
330
A02
100
AcDbEntity
  8
View001
100
AcDbLine
 10
400.456
 20
292.814
 30
0
 11
401.897
 21
295.643
 31
0
  0
LINE
  5
AAA
330
A02
100
AcDbEntity
  8
View001
100
AcDbLine
 10
401.897
 20
295.643
 30
0
 11
400.168
 21
298.307
 31
0
  0
LINE
  5
AAB
330
A02
100
AcDbEntity
  8
View001
100
AcDbLine
 10
400.168
 20
298.307
 30
0
 11
396.997
 21
298.14
 31
0
  0
LINE
  5
AAC
330
A02
100
AcDbEntity
  8
View001
100
AcDbLine
 10
396.997
 20
298.14
 30
0
 11
395.555
 21
295.311
 31
0
  0
LINE
  5
AAD
330
A02
100
AcDbEntity
  8
View001
100
AcDbLine
 10
395.555
 20
295.311
 30
0
 11
397.284
 21
292.648
 31
0
  0
LINE
  5
AAE
330
A02
100
AcDbEntity
  8
View001
100
AcDbLine
 10
362.847
 20
274.07
 30
0
 11
364.576
 21
271.407
 31
0
  0
LINE
  5
AAF
330
A02
100
AcDbEntity
  8
View001
100
AcDbLine
 10
364.576
 20
271.407
 30
0
 11
367.747
 21
271.573
 31
0
  0
LINE
  5
AB0
330
A02
100
AcDbEntity
  8
View001
100
AcDbLine
 10
367.747
 20
271.573
 30
0
 11
369.189
 21
274.403
 31
0
  0
LINE
  5
AB1
330
A02
100
AcDbEntity
  8
View001
100
AcDbLine
 10
369.189
 20
274.403
 30
0
 11
367.46
 21
277.066
 31
0
  0
LINE
  5
AB2
330
A02
100
AcDbEntity
  8
View001
100
AcDbLine
 10
367.46
 20
277.066
 30
0
 11
364.288
 21
276.899
 31
0
  0
LINE
  5
AB3
330
A02
100
AcDbEntity
  8
View001
100
AcDbLine
 10
364.288
 20
276.899
 30
0
 11
362.847
 21
274.07
 31
0
  0
LINE
  5
AB4
330
A02
100
AcDbEntity
  8
View001
100
AcDbLine
 10
332.998
 20
289.279
 30
0
 11
334.44
 21
292.108
 31
0
  0
LINE
  5
AB5
330
A02
100
AcDbEntity
  8
View001
100
AcDbLine
 10
334.44
 20
292.108
 30
0
 11
332.71
 21
294.771
 31
0
  0
LINE
  5
AB6
330
A02
100
AcDbEntity
  8
View001
100
AcDbLine
 10
332.71
 20
294.771
 30
0
 11
329.539
 21
294.605
 31
0
  0
LINE
  5
AB7
330
A02
100
AcDbEntity
  8
View001
100
AcDbLine
 10
329.539
 20
294.605
 30
0
 11
328.098
 21
291.776
 31
0
  0
LINE
  5
AB8
330
A02
100
AcDbEntity
  8
View001
100
AcDbLine
 10
328.098
 20
291.776
 30
0
 11
329.827
 21
289.113
 31
0
  0
LINE
  5
AB9
330
A02
100
AcDbEntity
  8
View001
100
AcDbLine
 10
329.827
 20
289.113
 30
0
 11
332.998
 21
289.279
 31
0
  0
CIRCLE
  5
ABA
330
A02
100
AcDbEntity
  8
View001
100
AcDbCircle
 10
398.726
 20
124.523
 40
3
  0
CIRCLE
  5
ABB
330
A02
100
AcDbEntity
  8
View001
100
AcDbCircle
 10
366.018
 20
145.764
 40
3
  0
CIRCLE
  5
ABC
330
A02
100
AcDbEntity
  8
View001
100
AcDbCircle
 10
331.269
 20
128.058
 40
3
  0
CIRCLE
  5
ABD
330
A02
100
AcDbEntity
  8
View001
100
AcDbCircle
 10
353.247
 20
56.2907
 40
3
  0
CIRCLE
  5
ABE
330
A02
100
AcDbEntity
  8
View001
100
AcDbCircle
 10
322.1
 20
79.7615
 40
3
  0
CIRCLE
  5
ABF
330
A02
100
AcDbEntity
  8
View001
100
AcDbCircle
 10
190.8
 20
39.1447
 40
3
  0
CIRCLE
  5
AC0
330
A02
100
AcDbEntity
  8
View001
100
AcDbCircle
 10
178.495
 20
75.7426
 40
3
  0
CIRCLE
  5
AC1
330
A02
100
AcDbEntity
  8
View001
100
AcDbCircle
 10
142.418
 20
39.1272
 40
3
  0
CIRCLE
  5
AC2
330
A02
100
AcDbEntity
  8
View001
100
AcDbCircle
 10
103.472
 20
41.1683
 40
3
  0
CIRCLE
  5
AC3
330
A02
100
AcDbEntity
  8
View001
100
AcDbCircle
 10
259.801
 20
121.585
 40
3
  0
CIRCLE
  5
AC4
330
A02
100
AcDbEntity
  8
View001
100
AcDbCircle
 10
230.606
 20
118
 40
3
  0
CIRCLE
  5
AC5
330
A02
100
AcDbEntity
  8
View001
100
AcDbCircle
 10
201.412
 20
121.585
 40
3
  0
CIRCLE
  5
AC6
330
A02
100
AcDbEntity
  8
View001
100
AcDbCircle
 10
173.951
 20
132.126
 40
3
  0
CIRCLE
  5
AC7
330
A02
100
AcDbEntity
  8
View001
100
AcDbCircle
 10
136.9
 20
163.239
 40
3
  0
CIRCLE
  5
AC8
330
A02
100
AcDbEntity
  8
View001
100
AcDbCircle
 10
105.753
 20
186.709
 40
3
  0
CIRCLE
  5
AC9
330
A02
100
AcDbEntity
  8
View001
100
AcDbCircle
 10
141
 20
112
 40
3
  0
CIRCLE
  5
ACA
330
A02
100
AcDbEntity
  8
View001
100
AcDbCircle
 10
69.8532
 20
171.471
 40
3
  0
CIRCLE
  5
ACB
330
A02
100
AcDbEntity
  8
View001
100
AcDbCircle
 10
414.73
 20
46.2703
 40
3
  0
CIRCLE
  5
ACC
330
A02
100
AcDbEntity
  8
View001
100
AcDbCircle
 10
367
 20
26.5
 40
3
  0
CIRCLE
  5
ACD
330
A02
100
AcDbEntity
  8
View001
100
AcDbCircle
 10
319.27
 20
46.2703
 40
3
  0
CIRCLE
  5
ACE
330
A02
100
AcDbEntity
  8
View001
100
AcDbCircle
 10
293.262
 20
64.8743
 40
3
  0
CIRCLE
  5
ACF
330
A02
100
AcDbEntity
  8
View001
100
AcDbCircle
 10
265.801
 20
75.4153
 40
3
  0
CIRCLE
  5
AD0
330
A02
100
AcDbEntity
  8
View001
100
AcDbCircle
 10
236.606
 20
79
 40
3
  0
CIRCLE
  5
AD1
330
A02
100
AcDbEntity
  8
View001
100
AcDbCircle
 10
207.412
 20
75.4153
 40
3
  0
CIRCLE
  5
AD2
330
A02
100
AcDbEntity
  8
View001
100
AcDbCircle
 10
434.5
 20
94
 40
3
  0
CIRCLE
  5
AD3
330
A02
100
AcDbEntity
  8
View001
100
AcDbCircle
 10
414.73
 20
147.73
 40
3
  0
CIRCLE
  5
AD4
330
A02
100
AcDbEntity
  8
View001
100
AcDbCircle
 10
367
 20
167.5
 40
3
  0
CIRCLE
  5
AD5
330
A02
100
AcDbEntity
  8
View001
100
AcDbCircle
 10
319.27
 20
147.73
 40
3
  0
CIRCLE
  5
AD6
330
A02
100
AcDbEntity
  8
View001
100
AcDbCircle
 10
293.262
 20
129.126
 40
3
  0
LINE
  5
AD7
330
A02
100
AcDbEntity
  8
View001
100
AcDbLine
 10
123.825
 20
214.5
 30
0
 11
125.412
 21
211.75
 31
0
  0
LINE
  5
AD8
330
A02
100
AcDbEntity
  8
View001
100
AcDbLine
 10
125.412
 20
211.75
 30
0
 11
128.588
 21
211.75
 31
0
  0
LINE
  5
AD9
330
A02
100
AcDbEntity
  8
View001
100
AcDbLine
 10
128.588
 20
211.75
 30
0
 11
130.175
 21
214.5
 31
0
  0
LINE
  5
ADA
330
A02
100
AcDbEntity
  8
View001
100
AcDbLine
 10
130.175
 20
214.5
 30
0
 11
128.588
 21
217.25
 31
0
  0
LINE
  5
ADB
330
A02
100
AcDbEntity
  8
View001
100
AcDbLine
 10
128.588
 20
217.25
 30
0
 11
125.412
 21
217.25
 31
0
  0
LINE
  5
ADC
330
A02
100
AcDbEntity
  8
View001
100
AcDbLine
 10
125.412
 20
217.25
 30
0
 11
123.825
 21
214.5
 31
0
  0
LINE
  5
ADD
330
A02
100
AcDbEntity
  8
View001
100
AcDbLine
 10
123.825
 20
205.5
 30
0
 11
125.412
 21
202.75
 31
0
  0
LINE
  5
ADE
330
A02
100
AcDbEntity
  8
View001
100
AcDbLine
 10
125.412
 20
202.75
 30
0
 11
128.588
 21
202.75
 31
0
  0
LINE
  5
ADF
330
A02
100
AcDbEntity
  8
View001
100
AcDbLine
 10
128.588
 20
202.75
 30
0
 11
130.175
 21
205.5
 31
0
  0
LINE
  5
AE0
330
A02
100
AcDbEntity
  8
View001
100
AcDbLine
 10
130.175
 20
205.5
 30
0
 11
128.588
 21
208.25
 31
0
  0
LINE
  5
AE1
330
A02
100
AcDbEntity
  8
View001
100
AcDbLine
 10
128.588
 20
208.25
 30
0
 11
125.412
 21
208.25
 31
0
  0
LINE
  5
AE2
330
A02
100
AcDbEntity
  8
View001
100
AcDbLine
 10
125.412
 20
208.25
 30
0
 11
123.825
 21
205.5
 31
0
  0
CIRCLE
  5
AE3
330
A02
100
AcDbEntity
  8
View001
100
AcDbCircle
 10
237
 20
214.5
 40
3
  0
CIRCLE
  5
AE4
330
A02
100
AcDbEntity
  8
View001
100
AcDbCircle
 10
237
 20
205.5
 40
3
  0
ENDSEC
  0
SECTION
  2
OBJECTS
  0
DICTIONARY
  5
F000
330
0
100
AcDbDictionary
  3
ACAD_GROUP
350
F001
  0
DICTIONARY
  5
F001
330
F000
100
AcDbDictionary
  0
ENDSEC
  0
EOF