999
FreeCAD v2023.1103 14555 (Git shallow)
  0
SECTION
  2
HEADER
  9
$ACADVER
  1
AC1014
  9
$ACADMAINTVER
 70
     9
  9
$DWGCODEPAGE
  3
ANSI_1252
  9
$TEXTSTYLE
  7
STANDARD
  9
$DIMSTYLE
  2
STANDARD
  9
$DIMTXSTY
  7
STANDARD
  9
$CMLSTYLE
  2
STANDARD
  9
$LUNITS
 70
2
  9
$INSUNITS
 70
4
  9
$PEXTMAX
 10
50
 20
50
 30
50
  9
$PEXTMIN
 10
0
 20
0
 30
0
  9
$HANDSEED
  5
FFFF
  0
ENDSEC
  0
SECTION
  2
CLASSES
  0
CLASS
  1
ACDBDICTIONARYWDFLT
  2
AcDbDictionaryWithDefault
  3
ObjectDBX Classes
 90
        0
280
     0
281
     0
  0
CLASS
  1
XRECORD
  2
AcDbXrecord
  3
ObjectDBX Classes
 90
        0
280
     0
281
     0
  0
CLASS
  1
LWPOLYLINE
  2
AcDbPolyline
  3
ObjectDBX Classes
 90
        0
280
     0
281
     1
  0
ENDSEC
  0
SECTION
  2
TABLES
  0
TABLE
  2
VPORT
  5
20
330
0
100
AcDbSymbolTable
 70
     1
  0
VPORT
  5
21
330
20
100
AcDbSymbolTableRecord
100
AcDbViewportTableRecord
  2
*ACTIVE
 70
     0
  0
ENDTAB
  0
TABLE
  2
LTYPE
  5
22
330
0
100
AcDbSymbolTable
 70
     1
  0
LTYPE
  5
23
330
21
100
AcDbSymbolTableRecord
100
AcDbLinetypeTableRecord
  2
BYBLOCK
 70
     0
  3

 72
    65
 73
     0
 40
0.0
  0
LTYPE
  5
24
330
21
100
AcDbSymbolTableRecord
100
AcDbLinetypeTableRecord
  2
BYLAYER
 70
     0
  3

 72
    65
 73
     0
 40
0.0
  0
LTYPE
  5
25
330
21
100
AcDbSymbolTableRecord
100
AcDbLinetypeTableRecord
  2
CONTINUOUS
 70
     0
  3
Solid line
 72
    65
 73
     0
 40
0.0
  0
ENDTAB
  0
TABLE
  2
LAYER
  5
B3E
330
0
100
AcDbSymbolTable
 70
2
  0
LAYER
  5
B3F
330
B3E
100
AcDbSymbolTableRecord
100
AcDbLayerTableRecord
  2
0
 70
   0
 62
   7
  6
CONTINUOUS
  0
LAYER
  5
B40
330
B3E
100
AcDbSymbolTableRecord
100
AcDbLayerTableRecord
  2
View
 70
    0
 62
    7
  6
CONTINUOUS
  0
ENDTAB
  0
TABLE
  2
STYLE
  5
70
330
0
100
AcDbSymbolTable
 70
     2
  0
STYLE
  5
71
330
70
100
AcDbSymbolTableRecord
100
AcDbTextStyleTableRecord
  2
STANDARD
 70
     0
 40
0.0
 41
1.0
 50
0.0
 71
     0
 42
2.5
  3
arial.ttf
  4

  0
STYLE
  5
72
330
70
100
AcDbSymbolTableRecord
100
AcDbTextStyleTableRecord
  2
ANNOTATIVE
 70
     0
 40
0.0
 41
1.0
 50
0.0
 71
     0
 42
2.5
  3
arial.ttf
  4

  0
ENDTAB
  0
TABLE
  2
VIEW
  5
73
330
0
100
AcDbSymbolTable
 70
     0
  0
ENDTAB
  0
TABLE
  2
UCS
  5
74
330
0
100
AcDbSymbolTable
 70
     0
  0
ENDTAB
  0
TABLE
  2
APPID
  5
75
330
0
100
AcDbSymbolTable
 70
     2
  0
APPID
  5
76
330
75
100
AcDbSymbolTableRecord
100
AcDbRegAppTableRecord
  2
ACAD
 70
     0
  0
APPID
  5
77
330
75
100
AcDbSymbolTableRecord
100
AcDbRegAppTableRecord
  2
ACADANNOTATIVE
 70
     0
  0
ENDTAB
  0
TABLE
  2
DIMSTYLE
  5
78
330
0
100
AcDbSymbolTable
 70
     2
  0
DIMSTYLE
105
79
330
78
100
AcDbSymbolTableRecord
100
AcDbDimStyleTableRecord
  2
STANDARD
 70
     0
  3

  4

  5

  6

  7

 40
0.0
 41
2.5
 42
0.625
 43
3.75
 44
1.25
 45
0.0
 46
0.0
 47
0.0
 48
0.0
140
2.5
141
2.5
142
0.0
143
0.03937007874016
144
1.0
145
0.0
146
1.0
147
0.625
 71
     0
 72
     0
 73
     0
 74
     0
 75
     0
 76
     0
 77
     1
 78
     8
170
     0
171
     3
172
     1
173
     0
174
     0
175
     0
176
     0
177
     0
178
     0
270
     2
271
     2
272
     2
273
     2
274
     3
340
71
275
     0
280
     0
281
     0
282
     0
283
     0
284
     8
285
     0
286
     0
287
     3
288
     0
  0
ENDTAB
  0
TABLE
  2
BLOCK_RECORD
  5
A01
330
0
100
AcDbSymbolTable
  70
5
  0
BLOCK_RECORD
  5
A02
330
A01
100
AcDbSymbolTableRecord
100
AcDbBlockTableRecord
  2
*MODEL_SPACE
  0
BLOCK_RECORD
  5
A03
330
A01
100
AcDbSymbolTableRecord
100
AcDbBlockTableRecord
  2
*PAPER_SPACE
  0
ENDTAB
  0
ENDSEC
  0
SECTION
  2
BLOCKS
  0
BLOCK
  5
A04
330
A02
100
AcDbEntity
  8
0
100
AcDbBlockBegin
  2
*MODEL_SPACE
 70
   0
 10
0
 20
0
 30
0
  3
*MODEL_SPACE
  1
 
  0
ENDBLK
  5
A05
330
A02
100
AcDbEntity
  8
0
100
AcDbBlockEnd
  0
BLOCK
  5
A06
330
A03
100
AcDbEntity
 67
1
  8
0
100
AcDbBlockBegin
  2
*PAPER_SPACE
 70
   0
 10
0
 20
0
 30
0
  3
*PAPER_SPACE
  1
 
  0
ENDBLK
  5
A07
330
A03
100
AcDbEntity
 67
    1
  8
0
100
AcDbBlockEnd
  0
ENDSEC
  0
SECTION
  2
ENTITIES
  0
LINE
  5
A08
330
A02
100
AcDbEntity
  8
View
100
AcDbLine
 10
547
 20
410
 30
0
 11
547
 21
10
 31
0
  0
LINE
  5
A09
330
A02
100
AcDbEntity
  8
View
100
AcDbLine
 10
547
 20
10
 30
0
 11
47
 21
10
 31
0
  0
LINE
  5
A0A
330
A02
100
AcDbEntity
  8
View
100
AcDbLine
 10
47
 20
10
 30
0
 11
47
 21
410
 31
0
  0
LINE
  5
A0B
330
A02
100
AcDbEntity
  8
View
100
AcDbLine
 10
47
 20
410
 30
0
 11
547
 21
410
 31
0
  0
LINE
  5
A0C
330
A02
100
AcDbEntity
  8
View
100
AcDbLine
 10
391.653
 20
331.156
 30
0
 11
389.976
 21
330.067
 31
0
  0
ARC
  5
A0D
330
A02
100
AcDbEntity
  8
View
100
AcDbCircle
 10
363.977
 20
313.183
 30
0
 40
31
100
AcDbArc
 50
-147
 51
33
  0
LINE
  5
A0E
330
A02
100
AcDbEntity
  8
View
100
AcDbLine
 10
337.978
 20
296.299
 30
0
 11
336.301
 21
295.21
 31
0
  0
ARC
  5
A0F
330
A02
100
AcDbEntity
  8
View
100
AcDbCircle
 10
331.269
 20
291.942
 30
0
 40
6
100
AcDbArc
 50
33
 51
-147
  0
ARC
  5
A10
330
A02
100
AcDbEntity
  8
View
100
AcDbCircle
 10
363.977
 20
313.183
 30
0
 40
45
100
AcDbArc
 50
-147
 51
-20
  0
LINE
  5
A11
330
A02
100
AcDbEntity
  8
View
100
AcDbLine
 10
411.372
 20
311.83
 30
0
 11
406.263
 21
297.792
 31
0
  0
LINE
  5
A12
330
A02
100
AcDbEntity
  8
View
100
AcDbLine
 10
420.348
 20
327.718
 30
0
 11
411.372
 21
311.83
 31
0
  0
LINE
  5
A13
330
A02
100
AcDbEntity
  8
View
100
AcDbLine
 10
418.555
 20
331.563
 30
0
 11
420.348
 21
327.718
 31
0
  0
LINE
  5
A14
330
A02
100
AcDbEntity
  8
View
100
AcDbLine
 10
418.555
 20
331.563
 30
0
 11
401.717
 21
337.692
 31
0
  0
ARC
  5
A15
330
A02
100
AcDbEntity
  8
View
100
AcDbCircle
 10
396.685
 20
334.424
 30
0
 40
6
100
AcDbArc
 50
33
 51
-147
  0
CIRCLE
  5
A16
330
A02
100
AcDbEntity
  8
View
100
AcDbCircle
 10
398.726
 20
295.477
 40
1.6
  0
CIRCLE
  5
A17
330
A02
100
AcDbEntity
  8
View
100
AcDbCircle
 10
366.018
 20
274.236
 40
1.6
  0
CIRCLE
  5
A18
330
A02
100
AcDbEntity
  8
View
100
AcDbCircle
 10
331.269
 20
291.942
 40
1.6
  0
ARC
  5
A19
330
A02
100
AcDbEntity
  8
View
100
AcDbCircle
 10
389.147
 20
348.471
 30
0
 40
6
100
AcDbArc
 50
63.9657
 51
-143
  0
LINE
  5
A1A
330
A02
100
AcDbEntity
  8
View
100
AcDbLine
 10
384.355
 20
344.86
 30
0
 11
382.758
 21
343.656
 31
0
  0
ARC
  5
A1B
330
A02
100
AcDbEntity
  8
View
100
AcDbCircle
 10
358
 20
325
 30
0
 40
31
100
AcDbArc
 50
37
 51
-143
  0
LINE
  5
A1C
330
A02
100
AcDbEntity
  8
View
100
AcDbLine
 10
333.242
 20
306.344
 30
0
 11
331.645
 21
305.14
 31
0
  0
ARC
  5
A1D
330
A02
100
AcDbEntity
  8
View
100
AcDbCircle
 10
326.853
 20
301.529
 30
0
 40
6
100
AcDbArc
 50
37
 51
118.15
  0
LINE
  5
A1E
330
A02
100
AcDbEntity
  8
View
100
AcDbLine
 10
318.323
 20
303.77
 30
0
 11
324.023
 21
306.82
 31
0
  0
ARC
  5
A1F
330
A02
100
AcDbEntity
  8
View
100
AcDbCircle
 10
358
 20
325
 30
0
 40
45
100
AcDbArc
 50
90
 51
-151.85
  0
LINE
  5
A20
330
A02
100
AcDbEntity
  8
View
100
AcDbLine
 10
372.939
 20
370
 30
0
 11
358
 21
370
 31
0
  0
LINE
  5
A21
330
A02
100
AcDbEntity
  8
View
100
AcDbLine
 10
390.939
 20
367
 30
0
 11
372.939
 21
370
 31
0
  0
LINE
  5
A22
330
A02
100
AcDbEntity
  8
View
100
AcDbLine
 10
392.232
 20
368.293
 30
0
 11
390.939
 21
367
 31
0
  0
ARC
  5
A23
330
A02
100
AcDbEntity
  8
View
100
AcDbCircle
 10
392.939
 20
367.586
 30
0
 40
1
100
AcDbArc
 50
0
 51
135
  0
LINE
  5
A24
330
A02
100
AcDbEntity
  8
View
100
AcDbLine
 10
393.939
 20
355.21
 30
0
 11
393.939
 21
367.586
 31
0
  0
ARC
  5
A25
330
A02
100
AcDbEntity
  8
View
100
AcDbCircle
 10
392.439
 20
355.21
 30
0
 40
1.5
100
AcDbArc
 50
-116.034
 51
0
  0
CIRCLE
  5
A26
330
A02
100
AcDbEntity
  8
View
100
AcDbCircle
 10
353.247
 20
363.709
 40
1.6
  0
CIRCLE
  5
A27
330
A02
100
AcDbEntity
  8
View
100
AcDbCircle
 10
322.1
 20
340.239
 40
1.6
  0
LINE
  5
A28
330
A02
100
AcDbEntity
  8
View
100
AcDbLine
 10
169.651
 20
348.479
 30
0
 11
181.168
 21
334.752
 31
0
  0
LINE
  5
A29
330
A02
100
AcDbEntity
  8
View
100
AcDbLine
 10
181.168
 20
334.752
 30
0
 11
186.195
 21
338.97
 31
0
  0
ARC
  5
A2A
330
A02
100
AcDbEntity
  8
View
100
AcDbCircle
 10
199.601
 20
350.219
 30
0
 40
17.5
100
AcDbArc
 50
40
 51
-140
  0
LINE
  5
A2B
330
A02
100
AcDbEntity
  8
View
100
AcDbLine
 10
218.45
 20
366.035
 30
0
 11
213.006
 21
361.467
 31
0
  0
ARC
  5
A2C
330
A02
100
AcDbEntity
  8
View
100
AcDbCircle
 10
252.922
 20
394.961
 30
0
 40
45
100
AcDbArc
 50
-178.636
 51
-140
  0
ARC
  5
A2D
330
A02
100
AcDbEntity
  8
View
100
AcDbCircle
 10
165.71
 20
498.897
 30
0
 40
113.178
100
AcDbArc
 50
-105.022
 51
-68.094
  0
ARC
  5
A2E
330
A02
100
AcDbEntity
  8
View
100
AcDbCircle
 10
124.712
 20
346.123
 30
0
 40
45
100
AcDbArc
 50
74.9782
 51
174.15
  0
LINE
  5
A2F
330
A02
100
AcDbEntity
  8
View
100
AcDbLine
 10
79.9468
 20
350.71
 30
0
 11
86.3775
 21
350.051
 31
0
  0
ARC
  5
A30
330
A02
100
AcDbEntity
  8
View
100
AcDbCircle
 10
85.7659
 20
344.082
 30
0
 40
6
100
AcDbArc
 50
2.99999
 51
84.1501
  0
LINE
  5
A31
330
A02
100
AcDbEntity
  8
View
100
AcDbLine
 10
91.7577
 20
344.396
 30
0
 11
93.755
 21
344.501
 31
0
  0
ARC
  5
A32
330
A02
100
AcDbEntity
  8
View
100
AcDbCircle
 10
124.712
 20
346.123
 30
0
 40
31
100
AcDbArc
 50
2.99999
 51
-177
  0
LINE
  5
A33
330
A02
100
AcDbEntity
  8
View
100
AcDbLine
 10
157.667
 20
347.851
 30
0
 11
155.67
 21
347.746
 31
0
  0
ARC
  5
A34
330
A02
100
AcDbEntity
  8
View
100
AcDbCircle
 10
163.659
 20
348.165
 30
0
 40
6
100
AcDbArc
 50
2.99999
 51
-177
  0
CIRCLE
  5
A35
330
A02
100
AcDbEntity
  8
View
100
AcDbCircle
 10
142.418
 20
380.873
 40
1.6
  0
CIRCLE
  5
A36
330
A02
100
AcDbEntity
  8
View
100
AcDbCircle
 10
103.472
 20
378.832
 40
1.6
  0
CIRCLE
  5
A37
330
A02
100
AcDbEntity
  8
View
100
AcDbCircle
 10
190.8
 20
380.855
 40
1.6
  0
CIRCLE
  5
A38
330
A02
100
AcDbEntity
  8
View
100
AcDbCircle
 10
178.495
 20
344.257
 40
1.6
  0
ARC
  5
A39
330
A02
100
AcDbEntity
  8
View
100
AcDbCircle
 10
230.606
 20
317
 30
0
 40
45
100
AcDbArc
 50
-38.6363
 51
0
  0
ARC
  5
A3A
330
A02
100
AcDbEntity
  8
View
100
AcDbCircle
 10
230.606
 20
181.322
 30
0
 40
113.178
100
AcDbArc
 50
71.906
 51
145.022
  0
ARC
  5
A3B
330
A02
100
AcDbEntity
  8
View
100
AcDbCircle
 10
101
 20
272
 30
0
 40
45
100
AcDbArc
 50
-143
 51
-34.9783
  0
ARC
  5
A3C
330
A02
100
AcDbEntity
  8
View
100
AcDbCircle
 10
69.8532
 20
248.529
 30
0
 40
6
100
AcDbArc
 50
37
 51
-143
  0
LINE
  5
A3D
330
A02
100
AcDbEntity
  8
View
100
AcDbLine
 10
76.2423
 20
253.344
 30
0
 11
74.645
 21
252.14
 31
0
  0
ARC
  5
A3E
330
A02
100
AcDbEntity
  8
View
100
AcDbCircle
 10
101
 20
272
 30
0
 40
31
100
AcDbArc
 50
-143
 51
37
  0
LINE
  5
A3F
330
A02
100
AcDbEntity
  8
View
100
AcDbLine
 10
125.758
 20
290.656
 30
0
 11
127.355
 21
291.86
 31
0
  0
ARC
  5
A40
330
A02
100
AcDbEntity
  8
View
100
AcDbCircle
 10
132.147
 20
295.471
 30
0
 40
6
100
AcDbArc
 50
37
 51
-143
  0
LINE
  5
A41
330
A02
100
AcDbEntity
  8
View
100
AcDbLine
 10
136.939
 20
299.082
 30
0
 11
136.939
 21
317
 31
0
  0
LINE
  5
A42
330
A02
100
AcDbEntity
  8
View
100
AcDbLine
 10
143.5
 20
317
 30
0
 11
136.939
 21
317
 31
0
  0
ARC
  5
A43
330
A02
100
AcDbEntity
  8
View
100
AcDbCircle
 10
161
 20
317
 30
0
 40
17.5
100
AcDbArc
 50
0
 51
180
  0
LINE
  5
A44
330
A02
100
AcDbEntity
  8
View
100
AcDbLine
 10
275.606
 20
317
 30
0
 11
178.5
 21
317
 31
0
  0
CIRCLE
  5
A45
330
A02
100
AcDbEntity
  8
View
100
AcDbCircle
 10
259.801
 20
298.415
 40
1.6
  0
CIRCLE
  5
A46
330
A02
100
AcDbEntity
  8
View
100
AcDbCircle
 10
230.606
 20
302
 40
1.6
  0
CIRCLE
  5
A47
330
A02
100
AcDbEntity
  8
View
100
AcDbCircle
 10
201.412
 20
298.415
 40
1.6
  0
CIRCLE
  5
A48
330
A02
100
AcDbEntity
  8
View
100
AcDbCircle
 10
173.951
 20
287.874
 40
1.6
  0
CIRCLE
  5
A49
330
A02
100
AcDbEntity
  8
View
100
AcDbCircle
 10
136.9
 20
256.761
 40
1.6
  0
CIRCLE
  5
A4A
330
A02
100
AcDbEntity
  8
View
100
AcDbCircle
 10
105.753
 20
233.291
 40
1.6
  0
CIRCLE
  5
A4B
330
A02
100
AcDbEntity
  8
View
100
AcDbCircle
 10
141
 20
308
 40
1.6
  0
CIRCLE
  5
A4C
330
A02
100
AcDbEntity
  8
View
100
AcDbCircle
 10
161
 20
317
 40
8.5
  0
CIRCLE
  5
A4D
330
A02
100
AcDbEntity
  8
View
100
AcDbCircle
 10
69.8532
 20
248.529
 40
1.6
  0
ARC
  5
A4E
330
A02
100
AcDbEntity
  8
View
100
AcDbCircle
 10
434.5
 20
326
 30
0
 40
7.5
100
AcDbArc
 50
-180
 51
-1.16107e-06
  0
ARC
  5
A4F
330
A02
100
AcDbEntity
  8
View
100
AcDbCircle
 10
367
 20
326
 30
0
 40
60
100
AcDbArc
 50
-1.30878e-08
 51
-180
  0
ARC
  5
A50
330
A02
100
AcDbEntity
  8
View
100
AcDbCircle
 10
299.5
 20
326
 30
0
 40
7.5
100
AcDbArc
 50
180
 51
-1.79253e-06
  0
LINE
  5
A51
330
A02
100
AcDbEntity
  8
View
100
AcDbLine
 10
292
 20
326
 30
0
 11
191.606
 21
326
 31
0
  0
ARC
  5
A52
330
A02
100
AcDbEntity
  8
View
100
AcDbCircle
 10
236.606
 20
326
 30
0
 40
45
100
AcDbArc
 50
141.364
 51
180
  0
ARC
  5
A53
330
A02
100
AcDbEntity
  8
View
100
AcDbCircle
 10
236.606
 20
461.678
 30
0
 40
113.178
100
AcDbArc
 50
-108.094
 51
-46.1378
  0
ARC
  5
A54
330
A02
100
AcDbEntity
  8
View
100
AcDbCircle
 10
367
 20
326
 30
0
 40
75
100
AcDbArc
 50
-1.16107e-07
 51
133.862
  0
CIRCLE
  5
A55
330
A02
100
AcDbEntity
  8
View
100
AcDbCircle
 10
434.5
 20
326
 40
1.6
  0
CIRCLE
  5
A56
330
A02
100
AcDbEntity
  8
View
100
AcDbCircle
 10
414.73
 20
373.73
 40
1.6
  0
CIRCLE
  5
A57
330
A02
100
AcDbEntity
  8
View
100
AcDbCircle
 10
367
 20
393.5
 40
1.6
  0
CIRCLE
  5
A58
330
A02
100
AcDbEntity
  8
View
100
AcDbCircle
 10
319.27
 20
373.73
 40
1.6
  0
CIRCLE
  5
A59
330
A02
100
AcDbEntity
  8
View
100
AcDbCircle
 10
293.262
 20
355.126
 40
1.6
  0
CIRCLE
  5
A5A
330
A02
100
AcDbEntity
  8
View
100
AcDbCircle
 10
265.801
 20
344.585
 40
1.6
  0
CIRCLE
  5
A5B
330
A02
100
AcDbEntity
  8
View
100
AcDbCircle
 10
236.606
 20
341
 40
1.6
  0
CIRCLE
  5
A5C
330
A02
100
AcDbEntity
  8
View
100
AcDbCircle
 10
207.412
 20
344.585
 40
1.6
  0
LINE
  5
A5D
330
A02
100
AcDbEntity
  8
View
100
AcDbLine
 10
441.624
 20
312.5
 30
0
 11
434.5
 21
312.5
 31
0
  0
ARC
  5
A5E
330
A02
100
AcDbEntity
  8
View
100
AcDbCircle
 10
434.5
 20
320
 30
0
 40
7.5
100
AcDbArc
 50
-134.725
 51
-90
  0
ARC
  5
A5F
330
A02
100
AcDbEntity
  8
View
100
AcDbCircle
 10
428.167
 20
313.606
 30
0
 40
1.5
100
AcDbArc
 50
45.2751
 51
174.032
  0
ARC
  5
A60
330
A02
100
AcDbEntity
  8
View
100
AcDbCircle
 10
367
 20
320
 30
0
 40
60
100
AcDbArc
 50
-174.032
 51
-5.9681
  0
ARC
  5
A61
330
A02
100
AcDbEntity
  8
View
100
AcDbCircle
 10
305.833
 20
313.606
 30
0
 40
1.5
100
AcDbArc
 50
5.9681
 51
134.725
  0
ARC
  5
A62
330
A02
100
AcDbEntity
  8
View
100
AcDbCircle
 10
299.5
 20
320
 30
0
 40
7.5
100
AcDbArc
 50
180
 51
-45.2751
  0
LINE
  5
A63
330
A02
100
AcDbEntity
  8
View
100
AcDbLine
 10
292
 20
320
 30
0
 11
281.606
 21
320
 31
0
  0
ARC
  5
A64
330
A02
100
AcDbEntity
  8
View
100
AcDbCircle
 10
236.606
 20
320
 30
0
 40
45
100
AcDbArc
 50
-38.6363
 51
0
  0
ARC
  5
A65
330
A02
100
AcDbEntity
  8
View
100
AcDbCircle
 10
236.606
 20
184.322
 30
0
 40
113.178
100
AcDbArc
 50
46.1379
 51
71.906
  0
ARC
  5
A66
330
A02
100
AcDbEntity
  8
View
100
AcDbCircle
 10
367
 20
320
 30
0
 40
75
100
AcDbArc
 50
-133.862
 51
-5.73917
  0
CIRCLE
  5
A67
330
A02
100
AcDbEntity
  8
View
100
AcDbCircle
 10
414.73
 20
272.27
 40
1.6
  0
CIRCLE
  5
A68
330
A02
100
AcDbEntity
  8
View
100
AcDbCircle
 10
367
 20
252.5
 40
1.6
  0
CIRCLE
  5
A69
330
A02
100
AcDbEntity
  8
View
100
AcDbCircle
 10
319.27
 20
272.27
 40
1.6
  0
CIRCLE
  5
A6A
330
A02
100
AcDbEntity
  8
View
100
AcDbCircle
 10
293.262
 20
290.874
 40
1.6
  0
ARC
  5
A6B
330
A02
100
AcDbEntity
  8
View
100
AcDbCircle
 10
295.5
 20
213
 30
0
 40
7.5
100
AcDbArc
 50
180
 51
0
  0
LINE
  5
A6C
330
A02
100
AcDbEntity
  8
View
100
AcDbLine
 10
303
 20
213
 30
0
 11
403.394
 21
213
 31
0
  0
ARC
  5
A6D
330
A02
100
AcDbEntity
  8
View
100
AcDbCircle
 10
358.394
 20
213
 30
0
 40
45
100
AcDbArc
 50
-3.61876e-14
 51
38.6363
  0
ARC
  5
A6E
330
A02
100
AcDbEntity
  8
View
100
AcDbCircle
 10
358.394
 20
348.678
 30
0
 40
113.178
100
AcDbArc
 50
-133.862
 51
-71.906
  0
ARC
  5
A6F
330
A02
100
AcDbEntity
  8
View
100
AcDbCircle
 10
228
 20
213
 30
0
 40
75
100
AcDbArc
 50
46.1379
 51
180
  0
ARC
  5
A70
330
A02
100
AcDbEntity
  8
View
100
AcDbCircle
 10
160.5
 20
213
 30
0
 40
7.5
100
AcDbArc
 50
180
 51
0
  0
ARC
  5
A71
330
A02
100
AcDbEntity
  8
View
100
AcDbCircle
 10
228
 20
213
 30
0
 40
60
100
AcDbArc
 50
-2.71407e-14
 51
180
  0
CIRCLE
  5
A72
330
A02
100
AcDbEntity
  8
View
100
AcDbCircle
 10
160.5
 20
213
 40
1.6
  0
CIRCLE
  5
A73
330
A02
100
AcDbEntity
  8
View
100
AcDbCircle
 10
180.27
 20
260.73
 40
1.6
  0
CIRCLE
  5
A74
330
A02
100
AcDbEntity
  8
View
100
AcDbCircle
 10
228
 20
280.5
 40
1.6
  0
CIRCLE
  5
A75
330
A02
100
AcDbEntity
  8
View
100
AcDbCircle
 10
275.73
 20
260.73
 40
1.6
  0
CIRCLE
  5
A76
330
A02
100
AcDbEntity
  8
View
100
AcDbCircle
 10
301.738
 20
242.126
 40
1.6
  0
CIRCLE
  5
A77
330
A02
100
AcDbEntity
  8
View
100
AcDbCircle
 10
329.199
 20
231.585
 40
1.6
  0
CIRCLE
  5
A78
330
A02
100
AcDbEntity
  8
View
100
AcDbCircle
 10
358.394
 20
228
 40
1.6
  0
CIRCLE
  5
A79
330
A02
100
AcDbEntity
  8
View
100
AcDbCircle
 10
387.588
 20
231.585
 40
1.6
  0
LINE
  5
A7A
330
A02
100
AcDbEntity
  8
View
100
AcDbLine
 10
153.376
 20
199.5
 30
0
 11
160.5
 21
199.5
 31
0
  0
ARC
  5
A7B
330
A02
100
AcDbEntity
  8
View
100
AcDbCircle
 10
160.5
 20
207
 30
0
 40
7.5
100
AcDbArc
 50
-90
 51
-45.2751
  0
ARC
  5
A7C
330
A02
100
AcDbEntity
  8
View
100
AcDbCircle
 10
166.833
 20
200.606
 30
0
 40
1.5
100
AcDbArc
 50
5.9681
 51
134.725
  0
ARC
  5
A7D
330
A02
100
AcDbEntity
  8
View
100
AcDbCircle
 10
228
 20
207
 30
0
 40
60
100
AcDbArc
 50
-174.032
 51
-5.9681
  0
ARC
  5
A7E
330
A02
100
AcDbEntity
  8
View
100
AcDbCircle
 10
289.167
 20
200.606
 30
0
 40
1.5
100
AcDbArc
 50
45.2751
 51
174.032
  0
ARC
  5
A7F
330
A02
100
AcDbEntity
  8
View
100
AcDbCircle
 10
295.5
 20
207
 30
0
 40
7.5
100
AcDbArc
 50
-134.725
 51
0
  0
LINE
  5
A80
330
A02
100
AcDbEntity
  8
View
100
AcDbLine
 10
303
 20
207
 30
0
 11
313.394
 21
207
 31
0
  0
ARC
  5
A81
330
A02
100
AcDbEntity
  8
View
100
AcDbCircle
 10
358.394
 20
207
 30
0
 40
45
100
AcDbArc
 50
-180
 51
-141.364
  0
ARC
  5
A82
330
A02
100
AcDbEntity
  8
View
100
AcDbCircle
 10
358.394
 20
71.3216
 30
0
 40
113.178
100
AcDbArc
 50
108.094
 51
133.862
  0
ARC
  5
A83
330
A02
100
AcDbEntity
  8
View
100
AcDbCircle
 10
228
 20
207
 30
0
 40
75
100
AcDbArc
 50
-174.261
 51
-46.1379
  0
CIRCLE
  5
A84
330
A02
100
AcDbEntity
  8
View
100
AcDbCircle
 10
180.27
 20
159.27
 40
1.6
  0
CIRCLE
  5
A85
330
A02
100
AcDbEntity
  8
View
100
AcDbCircle
 10
228
 20
139.5
 40
1.6
  0
CIRCLE
  5
A86
330
A02
100
AcDbEntity
  8
View
100
AcDbCircle
 10
275.73
 20
159.27
 40
1.6
  0
CIRCLE
  5
A87
330
A02
100
AcDbEntity
  8
View
100
AcDbCircle
 10
301.738
 20
177.874
 40
1.6
  0
ARC
  5
A88
330
A02
100
AcDbEntity
  8
View
100
AcDbCircle
 10
434
 20
216
 30
0
 40
17.5
100
AcDbArc
 50
0
 51
180
  0
LINE
  5
A89
330
A02
100
AcDbEntity
  8
View
100
AcDbLine
 10
409.394
 20
216
 30
0
 11
416.5
 21
216
 31
0
  0
ARC
  5
A8A
330
A02
100
AcDbEntity
  8
View
100
AcDbCircle
 10
364.394
 20
216
 30
0
 40
45
100
AcDbArc
 50
-3.61876e-14
 51
38.6363
  0
ARC
  5
A8B
330
A02
100
AcDbEntity
  8
View
100
AcDbCircle
 10
364.394
 20
351.678
 30
0
 40
113.178
100
AcDbArc
 50
-71.906
 51
-34.9783
  0
ARC
  5
A8C
330
A02
100
AcDbEntity
  8
View
100
AcDbCircle
 10
494
 20
261
 30
0
 40
45
100
AcDbArc
 50
45.8499
 51
145.022
  0
LINE
  5
A8D
330
A02
100
AcDbEntity
  8
View
100
AcDbLine
 10
520.842
 20
288.65
 30
0
 11
525.344
 21
293.288
 31
0
  0
ARC
  5
A8E
330
A02
100
AcDbEntity
  8
View
100
AcDbCircle
 10
525.147
 20
284.471
 30
0
 40
6
100
AcDbArc
 50
135.85
 51
168.417
  0
ARC
  5
A8F
330
A02
100
AcDbEntity
  8
View
100
AcDbCircle
 10
517.8
 20
285.977
 30
0
 40
1.5
100
AcDbArc
 50
-133.618
 51
-11.5827
  0
ARC
  5
A90
330
A02
100
AcDbEntity
  8
View
100
AcDbCircle
 10
494
 20
261
 30
0
 40
33
100
AcDbArc
 50
46.3825
 51
-152.382
  0
ARC
  5
A91
330
A02
100
AcDbEntity
  8
View
100
AcDbCircle
 10
463.431
 20
245.007
 30
0
 40
1.5
100
AcDbArc
 50
-94.4173
 51
27.6175
  0
ARC
  5
A92
330
A02
100
AcDbEntity
  8
View
100
AcDbCircle
 10
462.853
 20
237.529
 30
0
 40
6
100
AcDbArc
 50
85.5827
 51
-143
  0
LINE
  5
A93
330
A02
100
AcDbEntity
  8
View
100
AcDbLine
 10
458.061
 20
233.918
 30
0
 11
458.061
 21
216
 31
0
  0
LINE
  5
A94
330
A02
100
AcDbEntity
  8
View
100
AcDbLine
 10
451.5
 20
216
 30
0
 11
458.061
 21
216
 31
0
  0
CIRCLE
  5
A95
330
A02
100
AcDbEntity
  8
View
100
AcDbCircle
 10
421.049
 20
245.126
 40
1.6
  0
CIRCLE
  5
A96
330
A02
100
AcDbEntity
  8
View
100
AcDbCircle
 10
458.1
 20
276.239
 40
1.6
  0
CIRCLE
  5
A97
330
A02
100
AcDbEntity
  8
View
100
AcDbCircle
 10
489.247
 20
299.709
 40
1.6
  0
CIRCLE
  5
A98
330
A02
100
AcDbEntity
  8
View
100
AcDbCircle
 10
454
 20
225
 40
1.6
  0
ARC
  5
A99
330
A02
100
AcDbEntity
  8
View
100
AcDbCircle
 10
494
 20
159
 30
0
 40
33
100
AcDbArc
 50
143
 51
-37
  0
ARC
  5
A9A
330
A02
100
AcDbEntity
  8
View
100
AcDbCircle
 10
525.147
 20
135.529
 30
0
 40
6
100
AcDbArc
 50
-37
 51
143
  0
ARC
  5
A9B
330
A02
100
AcDbEntity
  8
View
100
AcDbCircle
 10
494
 20
159
 30
0
 40
45
100
AcDbArc
 50
-145.022
 51
-37
  0
ARC
  5
A9C
330
A02
100
AcDbEntity
  8
View
100
AcDbCircle
 10
364.394
 20
68.3216
 30
0
 40
113.178
100
AcDbArc
 50
34.9783
 51
108.094
  0
ARC
  5
A9D
330
A02
100
AcDbEntity
  8
View
100
AcDbCircle
 10
364.394
 20
204
 30
0
 40
45
100
AcDbArc
 50
-180
 51
-141.364
  0
LINE
  5
A9E
330
A02
100
AcDbEntity
  8
View
100
AcDbLine
 10
319.394
 20
204
 30
0
 11
416.5
 21
204
 31
0
  0
ARC
  5
A9F
330
A02
100
AcDbEntity
  8
View
100
AcDbCircle
 10
434
 20
204
 30
0
 40
17.5
100
AcDbArc
 50
0
 51
180
  0
LINE
  5
AA0
330
A02
100
AcDbEntity
  8
View
100
AcDbLine
 10
451.5
 20
204
 30
0
 11
458.061
 21
204
 31
0
  0
LINE
  5
AA1
330
A02
100
AcDbEntity
  8
View
100
AcDbLine
 10
458.061
 20
204
 30
0
 11
458.061
 21
186.082
 31
0
  0
ARC
  5
AA2
330
A02
100
AcDbEntity
  8
View
100
AcDbCircle
 10
462.853
 20
182.471
 30
0
 40
6
100
AcDbArc
 50
-37
 51
143
  0
CIRCLE
  5
AA3
330
A02
100
AcDbEntity
  8
View
100
AcDbCircle
 10
525.147
 20
135.529
 40
1.6
  0
CIRCLE
  5
AA4
330
A02
100
AcDbEntity
  8
View
100
AcDbCircle
 10
458.1
 20
143.761
 40
1.6
  0
CIRCLE
  5
AA5
330
A02
100
AcDbEntity
  8
View
100
AcDbCircle
 10
421.049
 20
174.874
 40
1.6
  0
CIRCLE
  5
AA6
330
A02
100
AcDbEntity
  8
View
100
AcDbCircle
 10
489.247
 20
120.291
 40
1.6
  0
CIRCLE
  5
AA7
330
A02
100
AcDbEntity
  8
View
100
AcDbCircle
 10
335.199
 20
185.415
 40
1.6
  0
CIRCLE
  5
AA8
330
A02
100
AcDbEntity
  8
View
100
AcDbCircle
 10
364.394
 20
189
 40
1.6
  0
CIRCLE
  5
AA9
330
A02
100
AcDbEntity
  8
View
100
AcDbCircle
 10
393.588
 20
185.415
 40
1.6
  0
CIRCLE
  5
AAA
330
A02
100
AcDbEntity
  8
View
100
AcDbCircle
 10
434
 20
204
 40
8.5
  0
CIRCLE
  5
AAB
330
A02
100
AcDbEntity
  8
View
100
AcDbCircle
 10
454
 20
195
 40
1.6
  0
LINE
  5
AAC
330
A02
100
AcDbEntity
  8
View
100
AcDbLine
 10
194.033
 20
177.256
 30
0
 11
205.477
 21
167.654
 31
0
  0
ARC
  5
AAD
330
A02
100
AcDbEntity
  8
View
100
AcDbCircle
 10
234.402
 20
202.126
 30
0
 40
45
100
AcDbArc
 50
-130
 51
-3.00001
  0
ARC
  5
AAE
330
A02
100
AcDbEntity
  8
View
100
AcDbCircle
 10
273.349
 20
200.085
 30
0
 40
6
100
AcDbArc
 50
-3.00001
 51
177
  0
ARC
  5
AAF
330
A02
100
AcDbEntity
  8
View
100
AcDbCircle
 10
234.402
 20
202.126
 30
0
 40
33
100
AcDbArc
 50
177
 51
-2.99998
  0
ARC
  5
AB0
330
A02
100
AcDbEntity
  8
View
100
AcDbCircle
 10
195.456
 20
204.167
 30
0
 40
6
100
AcDbArc
 50
-2.99983
 51
177
  0
LINE
  5
AB1
330
A02
100
AcDbEntity
  8
View
100
AcDbLine
 10
177.946
 20
190.755
 30
0
 11
189.464
 21
204.481
 31
0
  0
LINE
  5
AB2
330
A02
100
AcDbEntity
  8
View
100
AcDbLine
 10
178.316
 20
186.528
 30
0
 11
177.946
 21
190.755
 31
0
  0
LINE
  5
AB3
330
A02
100
AcDbEntity
  8
View
100
AcDbLine
 10
194.033
 20
177.256
 30
0
 11
178.316
 21
186.528
 31
0
  0
CIRCLE
  5
AB4
330
A02
100
AcDbEntity
  8
View
100
AcDbCircle
 10
273.349
 20
200.085
 40
1.6
  0
CIRCLE
  5
AB5
330
A02
100
AcDbEntity
  8
View
100
AcDbCircle
 10
213.161
 20
169.417
 40
1.6
  0
CIRCLE
  5
AB6
330
A02
100
AcDbEntity
  8
View
100
AcDbCircle
 10
252.108
 20
167.376
 40
1.6
  0
LINE
  5
AB7
330
A02
100
AcDbEntity
  8
View
100
AcDbLine
 10
272.117
 20
225.787
 30
0
 11
278.443
 21
227.115
 31
0
  0
ARC
  5
AB8
330
A02
100
AcDbEntity
  8
View
100
AcDbCircle
 10
273.349
 20
219.915
 30
0
 40
6
100
AcDbArc
 50
101.85
 51
134.417
  0
ARC
  5
AB9
330
A02
100
AcDbEntity
  8
View
100
AcDbCircle
 10
268.1
 20
225.272
 30
0
 40
1.5
100
AcDbArc
 50
-167.618
 51
-45.5827
  0
ARC
  5
ABA
330
A02
100
AcDbEntity
  8
View
100
AcDbCircle
 10
234.402
 20
217.874
 30
0
 40
33
100
AcDbArc
 50
12.3825
 51
173.618
  0
ARC
  5
ABB
330
A02
100
AcDbEntity
  8
View
100
AcDbCircle
 10
200.116
 20
221.709
 30
0
 40
1.5
100
AcDbArc
 50
-128.417
 51
-6.38248
  0
ARC
  5
ABC
330
A02
100
AcDbEntity
  8
View
100
AcDbCircle
 10
195.456
 20
215.833
 30
0
 40
6
100
AcDbArc
 50
51.5827
 51
156.034
  0
ARC
  5
ABD
330
A02
100
AcDbEntity
  8
View
100
AcDbCircle
 10
188.602
 20
218.88
 30
0
 40
1.5
100
AcDbArc
 50
-140
 51
-23.9657
  0
LINE
  5
ABE
330
A02
100
AcDbEntity
  8
View
100
AcDbLine
 10
187.453
 20
217.915
 30
0
 11
179.498
 21
227.396
 31
0
  0
ARC
  5
ABF
330
A02
100
AcDbEntity
  8
View
100
AcDbCircle
 10
180.264
 20
228.039
 30
0
 40
1
100
AcDbArc
 50
85
 51
-140
  0
LINE
  5
AC0
330
A02
100
AcDbEntity
  8
View
100
AcDbLine
 10
182.173
 20
228.876
 30
0
 11
180.351
 21
229.035
 31
0
  0
LINE
  5
AC1
330
A02
100
AcDbEntity
  8
View
100
AcDbLine
 10
194.033
 20
242.744
 30
0
 11
182.173
 21
228.876
 31
0
  0
LINE
  5
AC2
330
A02
100
AcDbEntity
  8
View
100
AcDbLine
 10
194.033
 20
242.744
 30
0
 11
205.477
 21
252.346
 31
0
  0
ARC
  5
AC3
330
A02
100
AcDbEntity
  8
View
100
AcDbCircle
 10
234.402
 20
217.874
 30
0
 40
45
100
AcDbArc
 50
11.8499
 51
130
  0
CIRCLE
  5
AC4
330
A02
100
AcDbEntity
  8
View
100
AcDbCircle
 10
252.108
 20
252.624
 40
1.6
  0
CIRCLE
  5
AC5
330
A02
100
AcDbEntity
  8
View
100
AcDbCircle
 10
213.161
 20
250.582
 40
1.6
  0
ARC
  5
AC6
330
A02
100
AcDbEntity
  8
View
100
AcDbCircle
 10
367
 20
100
 30
0
 40
60
100
AcDbArc
 50
5.9681
 51
174.032
  0
ARC
  5
AC7
330
A02
100
AcDbEntity
  8
View
100
AcDbCircle
 10
305.833
 20
106.394
 30
0
 40
1.5
100
AcDbArc
 50
-134.725
 51
-5.9681
  0
ARC
  5
AC8
330
A02
100
AcDbEntity
  8
View
100
AcDbCircle
 10
299.5
 20
100
 30
0
 40
7.5
100
AcDbArc
 50
45.2751
 51
180
  0
LINE
  5
AC9
330
A02
100
AcDbEntity
  8
View
100
AcDbLine
 10
292
 20
100
 30
0
 11
281.606
 21
100
 31
0
  0
ARC
  5
ACA
330
A02
100
AcDbEntity
  8
View
100
AcDbCircle
 10
236.606
 20
100
 30
0
 40
45
100
AcDbArc
 50
1.80938e-14
 51
38.6363
  0
ARC
  5
ACB
330
A02
100
AcDbEntity
  8
View
100
AcDbCircle
 10
236.606
 20
235.678
 30
0
 40
113.178
100
AcDbArc
 50
-71.906
 51
-46.1379
  0
ARC
  5
ACC
330
A02
100
AcDbEntity
  8
View
100
AcDbCircle
 10
367
 20
100
 30
0
 40
75
100
AcDbArc
 50
5.73917
 51
133.862
  0
LINE
  5
ACD
330
A02
100
AcDbEntity
  8
View
100
AcDbLine
 10
441.624
 20
107.5
 30
0
 11
434.5
 21
107.5
 31
0
  0
ARC
  5
ACE
330
A02
100
AcDbEntity
  8
View
100
AcDbCircle
 10
434.5
 20
100
 30
0
 40
7.5
100
AcDbArc
 50
90
 51
134.725
  0
ARC
  5
ACF
330
A02
100
AcDbEntity
  8
View
100
AcDbCircle
 10
428.167
 20
106.394
 30
0
 40
1.5
100
AcDbArc
 50
-174.032
 51
-45.2751
  0
CIRCLE
  5
AD0
330
A02
100
AcDbEntity
  8
View
100
AcDbCircle
 10
414.73
 20
147.73
 40
1.6
  0
CIRCLE
  5
AD1
330
A02
100
AcDbEntity
  8
View
100
AcDbCircle
 10
367
 20
167.5
 40
1.6
  0
CIRCLE
  5
AD2
330
A02
100
AcDbEntity
  8
View
100
AcDbCircle
 10
319.27
 20
147.73
 40
1.6
  0
CIRCLE
  5
AD3
330
A02
100
AcDbEntity
  8
View
100
AcDbCircle
 10
293.262
 20
129.126
 40
1.6
  0
ARC
  5
AD4
330
A02
100
AcDbEntity
  8
View
100
AcDbCircle
 10
434.5
 20
94
 30
0
 40
7.5
100
AcDbArc
 50
1.16107e-06
 51
180
  0
ARC
  5
AD5
330
A02
100
AcDbEntity
  8
View
100
AcDbCircle
 10
367
 20
94
 30
0
 40
75
100
AcDbArc
 50
-133.862
 51
1.16107e-07
  0
ARC
  5
AD6
330
A02
100
AcDbEntity
  8
View
100
AcDbCircle
 10
236.606
 20
-41.6784
 30
0
 40
113.178
100
AcDbArc
 50
46.1378
 51
108.094
  0
ARC
  5
AD7
330
A02
100
AcDbEntity
  8
View
100
AcDbCircle
 10
236.606
 20
94
 30
0
 40
45
100
AcDbArc
 50
-180
 51
-141.364
  0
LINE
  5
AD8
330
A02
100
AcDbEntity
  8
View
100
AcDbLine
 10
292
 20
94
 30
0
 11
191.606
 21
94
 31
0
  0
ARC
  5
AD9
330
A02
100
AcDbEntity
  8
View
100
AcDbCircle
 10
299.5
 20
94
 30
0
 40
7.5
100
AcDbArc
 50
1.79253e-06
 51
180
  0
ARC
  5
ADA
330
A02
100
AcDbEntity
  8
View
100
AcDbCircle
 10
367
 20
94
 30
0
 40
60
100
AcDbArc
 50
180
 51
1.30878e-08
  0
CIRCLE
  5
ADB
330
A02
100
AcDbEntity
  8
View
100
AcDbCircle
 10
414.73
 20
46.2703
 40
1.6
  0
CIRCLE
  5
ADC
330
A02
100
AcDbEntity
  8
View
100
AcDbCircle
 10
367
 20
26.5
 40
1.6
  0
CIRCLE
  5
ADD
330
A02
100
AcDbEntity
  8
View
100
AcDbCircle
 10
319.27
 20
46.2703
 40
1.6
  0
CIRCLE
  5
ADE
330
A02
100
AcDbEntity
  8
View
100
AcDbCircle
 10
293.262
 20
64.8743
 40
1.6
  0
CIRCLE
  5
ADF
330
A02
100
AcDbEntity
  8
View
100
AcDbCircle
 10
236.606
 20
79
 40
1.6
  0
CIRCLE
  5
AE0
330
A02
100
AcDbEntity
  8
View
100
AcDbCircle
 10
207.412
 20
75.4153
 40
1.6
  0
CIRCLE
  5
AE1
330
A02
100
AcDbEntity
  8
View
100
AcDbCircle
 10
265.801
 20
75.4153
 40
1.6
  0
CIRCLE
  5
AE2
330
A02
100
AcDbEntity
  8
View
100
AcDbCircle
 10
434.5
 20
94
 40
1.6
  0
ARC
  5
AE3
330
A02
100
AcDbEntity
  8
View
100
AcDbCircle
 10
101
 20
148
 30
0
 40
31
100
AcDbArc
 50
-37
 51
143
  0
LINE
  5
AE4
330
A02
100
AcDbEntity
  8
View
100
AcDbLine
 10
76.2423
 20
166.656
 30
0
 11
74.645
 21
167.86
 31
0
  0
ARC
  5
AE5
330
A02
100
AcDbEntity
  8
View
100
AcDbCircle
 10
69.8532
 20
171.471
 30
0
 40
6
100
AcDbArc
 50
143
 51
-37
  0
ARC
  5
AE6
330
A02
100
AcDbEntity
  8
View
100
AcDbCircle
 10
101
 20
148
 30
0
 40
45
100
AcDbArc
 50
34.9783
 51
143
  0
ARC
  5
AE7
330
A02
100
AcDbEntity
  8
View
100
AcDbCircle
 10
230.606
 20
238.678
 30
0
 40
113.178
100
AcDbArc
 50
-145.022
 51
-71.906
  0
ARC
  5
AE8
330
A02
100
AcDbEntity
  8
View
100
AcDbCircle
 10
230.606
 20
103
 30
0
 40
45
100
AcDbArc
 50
1.80938e-14
 51
38.6363
  0
LINE
  5
AE9
330
A02
100
AcDbEntity
  8
View
100
AcDbLine
 10
275.606
 20
103
 30
0
 11
178.5
 21
103
 31
0
  0
ARC
  5
AEA
330
A02
100
AcDbEntity
  8
View
100
AcDbCircle
 10
161
 20
103
 30
0
 40
17.5
100
AcDbArc
 50
180
 51
0
  0
LINE
  5
AEB
330
A02
100
AcDbEntity
  8
View
100
AcDbLine
 10
143.5
 20
103
 30
0
 11
136.939
 21
103
 31
0
  0
LINE
  5
AEC
330
A02
100
AcDbEntity
  8
View
100
AcDbLine
 10
136.939
 20
120.918
 30
0
 11
136.939
 21
103
 31
0
  0
ARC
  5
AED
330
A02
100
AcDbEntity
  8
View
100
AcDbCircle
 10
132.147
 20
124.529
 30
0
 40
6
100
AcDbArc
 50
143
 51
-37
  0
LINE
  5
AEE
330
A02
100
AcDbEntity
  8
View
100
AcDbLine
 10
125.758
 20
129.344
 30
0
 11
127.355
 21
128.14
 31
0
  0
CIRCLE
  5
AEF
330
A02
100
AcDbEntity
  8
View
100
AcDbCircle
 10
69.8532
 20
171.471
 40
1.6
  0
CIRCLE
  5
AF0
330
A02
100
AcDbEntity
  8
View
100
AcDbCircle
 10
105.753
 20
186.709
 40
1.6
  0
CIRCLE
  5
AF1
330
A02
100
AcDbEntity
  8
View
100
AcDbCircle
 10
136.9
 20
163.239
 40
1.6
  0
CIRCLE
  5
AF2
330
A02
100
AcDbEntity
  8
View
100
AcDbCircle
 10
173.951
 20
132.126
 40
1.6
  0
CIRCLE
  5
AF3
330
A02
100
AcDbEntity
  8
View
100
AcDbCircle
 10
201.412
 20
121.585
 40
1.6
  0
CIRCLE
  5
AF4
330
A02
100
AcDbEntity
  8
View
100
AcDbCircle
 10
230.606
 20
118
 40
1.6
  0
CIRCLE
  5
AF5
330
A02
100
AcDbEntity
  8
View
100
AcDbCircle
 10
259.801
 20
121.585
 40
1.6
  0
CIRCLE
  5
AF6
330
A02
100
AcDbEntity
  8
View
100
AcDbCircle
 10
161
 20
103
 40
8.5
  0
CIRCLE
  5
AF7
330
A02
100
AcDbEntity
  8
View
100
AcDbCircle
 10
141
 20
112
 40
1.6
  0
ARC
  5
AF8
330
A02
100
AcDbEntity
  8
View
100
AcDbCircle
 10
124.712
 20
73.8765
 30
0
 40
45
100
AcDbArc
 50
-174.15
 51
-74.9782
  0
ARC
  5
AF9
330
A02
100
AcDbEntity
  8
View
100
AcDbCircle
 10
165.71
 20
-78.8966
 30
0
 40
113.178
100
AcDbArc
 50
68.094
 51
105.022
  0
ARC
  5
AFA
330
A02
100
AcDbEntity
  8
View
100
AcDbCircle
 10
252.922
 20
25.0391
 30
0
 40
45
100
AcDbArc
 50
140
 51
178.636
  0
LINE
  5
AFB
330
A02
100
AcDbEntity
  8
View
100
AcDbLine
 10
218.45
 20
53.9645
 30
0
 11
213.006
 21
58.5325
 31
0
  0
ARC
  5
AFC
330
A02
100
AcDbEntity
  8
View
100
AcDbCircle
 10
199.601
 20
69.7812
 30
0
 40
17.5
100
AcDbArc
 50
140
 51
-40
  0
LINE
  5
AFD
330
A02
100
AcDbEntity
  8
View
100
AcDbLine
 10
181.168
 20
85.2476
 30
0
 11
186.195
 21
81.03
 31
0
  0
LINE
  5
AFE
330
A02
100
AcDbEntity
  8
View
100
AcDbLine
 10
169.651
 20
71.5214
 30
0
 11
181.168
 21
85.2476
 31
0
  0
ARC
  5
AFF
330
A02
100
AcDbEntity
  8
View
100
AcDbCircle
 10
163.659
 20
71.8354
 30
0
 40
6
100
AcDbArc
 50
177
 51
-2.99999
  0
LINE
  5
B00
330
A02
100
AcDbEntity
  8
View
100
AcDbLine
 10
157.667
 20
72.1494
 30
0
 11
155.67
 21
72.2541
 31
0
  0
ARC
  5
B01
330
A02
100
AcDbEntity
  8
View
100
AcDbCircle
 10
124.712
 20
73.8765
 30
0
 40
31
100
AcDbArc
 50
177
 51
-2.99999
  0
LINE
  5
B02
330
A02
100
AcDbEntity
  8
View
100
AcDbLine
 10
91.7577
 20
75.6036
 30
0
 11
93.755
 21
75.4989
 31
0
  0
ARC
  5
B03
330
A02
100
AcDbEntity
  8
View
100
AcDbCircle
 10
85.7659
 20
75.9176
 30
0
 40
6
100
AcDbArc
 50
-84.1501
 51
-2.99999
  0
LINE
  5
B04
330
A02
100
AcDbEntity
  8
View
100
AcDbLine
 10
79.9468
 20
69.29
 30
0
 11
86.3775
 21
69.9488
 31
0
  0
CIRCLE
  5
B05
330
A02
100
AcDbEntity
  8
View
100
AcDbCircle
 10
178.495
 20
75.7426
 40
1.6
  0
CIRCLE
  5
B06
330
A02
100
AcDbEntity
  8
View
100
AcDbCircle
 10
190.8
 20
39.1447
 40
1.6
  0
CIRCLE
  5
B07
330
A02
100
AcDbEntity
  8
View
100
AcDbCircle
 10
142.418
 20
39.1272
 40
1.6
  0
CIRCLE
  5
B08
330
A02
100
AcDbEntity
  8
View
100
AcDbCircle
 10
103.472
 20
41.1683
 40
1.6
  0
LINE
  5
B09
330
A02
100
AcDbEntity
  8
View
100
AcDbLine
 10
393.939
 20
64.7902
 30
0
 11
393.939
 21
52.4142
 31
0
  0
ARC
  5
B0A
330
A02
100
AcDbEntity
  8
View
100
AcDbCircle
 10
392.939
 20
52.4142
 30
0
 40
1
100
AcDbArc
 50
-135
 51
0
  0
LINE
  5
B0B
330
A02
100
AcDbEntity
  8
View
100
AcDbLine
 10
392.232
 20
51.7071
 30
0
 11
390.939
 21
53
 31
0
  0
LINE
  5
B0C
330
A02
100
AcDbEntity
  8
View
100
AcDbLine
 10
390.939
 20
53
 30
0
 11
372.939
 21
50
 31
0
  0
LINE
  5
B0D
330
A02
100
AcDbEntity
  8
View
100
AcDbLine
 10
372.939
 20
50
 30
0
 11
358
 21
50
 31
0
  0
ARC
  5
B0E
330
A02
100
AcDbEntity
  8
View
100
AcDbCircle
 10
358
 20
95
 30
0
 40
45
100
AcDbArc
 50
151.85
 51
-90
  0
LINE
  5
B0F
330
A02
100
AcDbEntity
  8
View
100
AcDbLine
 10
318.323
 20
116.23
 30
0
 11
324.023
 21
113.18
 31
0
  0
ARC
  5
B10
330
A02
100
AcDbEntity
  8
View
100
AcDbCircle
 10
326.853
 20
118.471
 30
0
 40
6
100
AcDbArc
 50
-118.15
 51
-37
  0
LINE
  5
B11
330
A02
100
AcDbEntity
  8
View
100
AcDbLine
 10
333.242
 20
113.656
 30
0
 11
331.645
 21
114.86
 31
0
  0
ARC
  5
B12
330
A02
100
AcDbEntity
  8
View
100
AcDbCircle
 10
358
 20
95
 30
0
 40
31
100
AcDbArc
 50
143
 51
-37
  0
LINE
  5
B13
330
A02
100
AcDbEntity
  8
View
100
AcDbLine
 10
384.355
 20
75.1401
 30
0
 11
382.758
 21
76.3437
 31
0
  0
ARC
  5
B14
330
A02
100
AcDbEntity
  8
View
100
AcDbCircle
 10
389.147
 20
71.5292
 30
0
 40
6
100
AcDbArc
 50
143
 51
-63.9657
  0
ARC
  5
B15
330
A02
100
AcDbEntity
  8
View
100
AcDbCircle
 10
392.439
 20
64.7902
 30
0
 40
1.5
100
AcDbArc
 50
0
 51
116.034
  0
CIRCLE
  5
B16
330
A02
100
AcDbEntity
  8
View
100
AcDbCircle
 10
322.1
 20
79.7615
 40
1.6
  0
CIRCLE
  5
B17
330
A02
100
AcDbEntity
  8
View
100
AcDbCircle
 10
353.247
 20
56.2907
 40
1.6
  0
LINE
  5
B18
330
A02
100
AcDbEntity
  8
View
100
AcDbLine
 10
418.555
 20
88.4368
 30
0
 11
401.717
 21
82.3083
 31
0
  0
ARC
  5
B19
330
A02
100
AcDbEntity
  8
View
100
AcDbCircle
 10
396.685
 20
85.5762
 30
0
 40
6
100
AcDbArc
 50
147
 51
-33
  0
LINE
  5
B1A
330
A02
100
AcDbEntity
  8
View
100
AcDbLine
 10
391.653
 20
88.844
 30
0
 11
389.975
 21
89.9333
 31
0
  0
ARC
  5
B1B
330
A02
100
AcDbEntity
  8
View
100
AcDbCircle
 10
363.977
 20
106.817
 30
0
 40
31
100
AcDbArc
 50
-33
 51
147
  0
LINE
  5
B1C
330
A02
100
AcDbEntity
  8
View
100
AcDbLine
 10
337.978
 20
123.701
 30
0
 11
336.301
 21
124.79
 31
0
  0
ARC
  5
B1D
330
A02
100
AcDbEntity
  8
View
100
AcDbCircle
 10
331.269
 20
128.058
 30
0
 40
6
100
AcDbArc
 50
147
 51
-33
  0
ARC
  5
B1E
330
A02
100
AcDbEntity
  8
View
100
AcDbCircle
 10
363.977
 20
106.817
 30
0
 40
45
100
AcDbArc
 50
20
 51
147
  0
LINE
  5
B1F
330
A02
100
AcDbEntity
  8
View
100
AcDbLine
 10
411.372
 20
108.17
 30
0
 11
406.263
 21
122.208
 31
0
  0
LINE
  5
B20
330
A02
100
AcDbEntity
  8
View
100
AcDbLine
 10
420.348
 20
92.2819
 30
0
 11
411.372
 21
108.17
 31
0
  0
LINE
  5
B21
330
A02
100
AcDbEntity
  8
View
100
AcDbLine
 10
418.555
 20
88.4368
 30
0
 11
420.348
 21
92.2819
 31
0
  0
CIRCLE
  5
B22
330
A02
100
AcDbEntity
  8
View
100
AcDbCircle
 10
331.269
 20
128.058
 40
1.6
  0
CIRCLE
  5
B23
330
A02
100
AcDbEntity
  8
View
100
AcDbCircle
 10
366.018
 20
145.764
 40
1.6
  0
CIRCLE
  5
B24
330
A02
100
AcDbEntity
  8
View
100
AcDbCircle
 10
398.726
 20
124.523
 40
1.6
  0
CIRCLE
  5
B25
330
A02
100
AcDbEntity
  8
View
100
AcDbCircle
 10
237
 20
205.5
 40
1.6
  0
CIRCLE
  5
B26
330
A02
100
AcDbEntity
  8
View
100
AcDbCircle
 10
237
 20
214.5
 40
1.6
  0
CIRCLE
  5
B27
330
A02
100
AcDbEntity
  8
View
100
AcDbCircle
 10
237
 20
210
 40
17.5
  0
CIRCLE
  5
B28
330
A02
100
AcDbEntity
  8
View
100
AcDbCircle
 10
107
 20
120
 40
8.5
  0
CIRCLE
  5
B29
330
A02
100
AcDbEntity
  8
View
100
AcDbCircle
 10
107
 20
115.5
 40
1.6
  0
CIRCLE
  5
B2A
330
A02
100
AcDbEntity
  8
View
100
AcDbCircle
 10
107
 20
124.5
 40
1.6
  0
CIRCLE
  5
B2B
330
A02
100
AcDbEntity
  8
View
100
AcDbCircle
 10
107
 20
150
 40
8.5
  0
CIRCLE
  5
B2C
330
A02
100
AcDbEntity
  8
View
100
AcDbCircle
 10
107
 20
145.5
 40
1.6
  0
CIRCLE
  5
B2D
330
A02
100
AcDbEntity
  8
View
100
AcDbCircle
 10
107
 20
154.5
 40
1.6
  0
CIRCLE
  5
B2E
330
A02
100
AcDbEntity
  8
View
100
AcDbCircle
 10
107
 20
270
 40
8.5
  0
CIRCLE
  5
B2F
330
A02
100
AcDbEntity
  8
View
100
AcDbCircle
 10
107
 20
265.5
 40
1.6
  0
CIRCLE
  5
B30
330
A02
100
AcDbEntity
  8
View
100
AcDbCircle
 10
107
 20
274.5
 40
1.6
  0
ARC
  5
B31
330
A02
100
AcDbEntity
  8
View
100
AcDbCircle
 10
113.633
 20
303.5
 30
0
 40
1
100
AcDbArc
 50
-90
 51
27.8181
  0
ARC
  5
B32
330
A02
100
AcDbEntity
  8
View
100
AcDbCircle
 10
107
 20
300
 30
0
 40
8.5
100
AcDbArc
 50
27.8181
 51
152.182
  0
ARC
  5
B33
330
A02
100
AcDbEntity
  8
View
100
AcDbCircle
 10
100.367
 20
303.5
 30
0
 40
1
100
AcDbArc
 50
152.182
 51
-90
  0
LINE
  5
B34
330
A02
100
AcDbEntity
  8
View
100
AcDbLine
 10
113.633
 20
302.5
 30
0
 11
100.367
 21
302.5
 31
0
  0
ARC
  5
B35
330
A02
100
AcDbEntity
  8
View
100
AcDbCircle
 10
107
 20
300
 30
0
 40
8.5
100
AcDbArc
 50
-152.182
 51
-27.8181
  0
ARC
  5
B36
330
A02
100
AcDbEntity
  8
View
100
AcDbCircle
 10
113.633
 20
296.5
 30
0
 40
1
100
AcDbArc
 50
-27.8181
 51
90
  0
LINE
  5
B37
330
A02
100
AcDbEntity
  8
View
100
AcDbLine
 10
100.367
 20
297.5
 30
0
 11
113.633
 21
297.5
 31
0
  0
ARC
  5
B38
330
A02
100
AcDbEntity
  8
View
100
AcDbCircle
 10
100.367
 20
296.5
 30
0
 40
1
100
AcDbArc
 50
90
 51
-152.182
  0
CIRCLE
  5
B39
330
A02
100
AcDbEntity
  8
View
100
AcDbCircle
 10
107
 20
295.5
 40
1.6
  0
CIRCLE
  5
B3A
330
A02
100
AcDbEntity
  8
View
100
AcDbCircle
 10
107
 20
304.5
 40
1.6
  0
CIRCLE
  5
B3B
330
A02
100
AcDbEntity
  8
View
100
AcDbCircle
 10
127
 20
210
 40
8.5
  0
CIRCLE
  5
B3C
330
A02
100
AcDbEntity
  8
View
100
AcDbCircle
 10
127
 20
214.5
 40
1.6
  0
CIRCLE
  5
B3D
330
A02
100
AcDbEntity
  8
View
100
AcDbCircle
 10
127
 20
205.5
 40
1.6
  0
ENDSEC
  0
SECTION
  2
OBJECTS
  0
DICTIONARY
  5
F000
330
0
100
AcDbDictionary
  3
ACAD_GROUP
350
F001
  0
DICTIONARY
  5
F001
330
F000
100
AcDbDictionary
  0
ENDSEC
  0
EOF