999
FreeCAD v2023.1103 14555 (Git shallow)
  0
SECTION
  2
HEADER
  9
$ACADVER
  1
AC1014
  9
$ACADMAINTVER
 70
     9
  9
$DWGCODEPAGE
  3
ANSI_1252
  9
$TEXTSTYLE
  7
STANDARD
  9
$DIMSTYLE
  2
STANDARD
  9
$DIMTXSTY
  7
STANDARD
  9
$CMLSTYLE
  2
STANDARD
  9
$LUNITS
 70
2
  9
$INSUNITS
 70
4
  9
$PEXTMAX
 10
50
 20
50
 30
50
  9
$PEXTMIN
 10
0
 20
0
 30
0
  9
$HANDSEED
  5
FFFF
  0
ENDSEC
  0
SECTION
  2
CLASSES
  0
CLASS
  1
ACDBDICTIONARYWDFLT
  2
AcDbDictionaryWithDefault
  3
ObjectDBX Classes
 90
        0
280
     0
281
     0
  0
CLASS
  1
XRECORD
  2
AcDbXrecord
  3
ObjectDBX Classes
 90
        0
280
     0
281
     0
  0
CLASS
  1
LWPOLYLINE
  2
AcDbPolyline
  3
ObjectDBX Classes
 90
        0
280
     0
281
     1
  0
ENDSEC
  0
SECTION
  2
TABLES
  0
TABLE
  2
VPORT
  5
20
330
0
100
AcDbSymbolTable
 70
     1
  0
VPORT
  5
21
330
20
100
AcDbSymbolTableRecord
100
AcDbViewportTableRecord
  2
*ACTIVE
 70
     0
  0
ENDTAB
  0
TABLE
  2
LTYPE
  5
22
330
0
100
AcDbSymbolTable
 70
     1
  0
LTYPE
  5
23
330
21
100
AcDbSymbolTableRecord
100
AcDbLinetypeTableRecord
  2
BYBLOCK
 70
     0
  3

 72
    65
 73
     0
 40
0.0
  0
LTYPE
  5
24
330
21
100
AcDbSymbolTableRecord
100
AcDbLinetypeTableRecord
  2
BYLAYER
 70
     0
  3

 72
    65
 73
     0
 40
0.0
  0
LTYPE
  5
25
330
21
100
AcDbSymbolTableRecord
100
AcDbLinetypeTableRecord
  2
CONTINUOUS
 70
     0
  3
Solid line
 72
    65
 73
     0
 40
0.0
  0
ENDTAB
  0
TABLE
  2
LAYER
  5
B91
330
0
100
AcDbSymbolTable
 70
3
  0
LAYER
  5
B92
330
B91
100
AcDbSymbolTableRecord
100
AcDbLayerTableRecord
  2
0
 70
   0
 62
   7
  6
CONTINUOUS
  0
LAYER
  5
B93
330
B91
100
AcDbSymbolTableRecord
100
AcDbLayerTableRecord
  2
View005
 70
    0
 62
    7
  6
CONTINUOUS
  0
LAYER
  5
B94
330
B91
100
AcDbSymbolTableRecord
100
AcDbLayerTableRecord
  2
View004
 70
    0
 62
    7
  6
CONTINUOUS
  0
ENDTAB
  0
TABLE
  2
STYLE
  5
70
330
0
100
AcDbSymbolTable
 70
     2
  0
STYLE
  5
71
330
70
100
AcDbSymbolTableRecord
100
AcDbTextStyleTableRecord
  2
STANDARD
 70
     0
 40
0.0
 41
1.0
 50
0.0
 71
     0
 42
2.5
  3
arial.ttf
  4

  0
STYLE
  5
72
330
70
100
AcDbSymbolTableRecord
100
AcDbTextStyleTableRecord
  2
ANNOTATIVE
 70
     0
 40
0.0
 41
1.0
 50
0.0
 71
     0
 42
2.5
  3
arial.ttf
  4

  0
ENDTAB
  0
TABLE
  2
VIEW
  5
73
330
0
100
AcDbSymbolTable
 70
     0
  0
ENDTAB
  0
TABLE
  2
UCS
  5
74
330
0
100
AcDbSymbolTable
 70
     0
  0
ENDTAB
  0
TABLE
  2
APPID
  5
75
330
0
100
AcDbSymbolTable
 70
     2
  0
APPID
  5
76
330
75
100
AcDbSymbolTableRecord
100
AcDbRegAppTableRecord
  2
ACAD
 70
     0
  0
APPID
  5
77
330
75
100
AcDbSymbolTableRecord
100
AcDbRegAppTableRecord
  2
ACADANNOTATIVE
 70
     0
  0
ENDTAB
  0
TABLE
  2
DIMSTYLE
  5
78
330
0
100
AcDbSymbolTable
 70
     2
  0
DIMSTYLE
105
79
330
78
100
AcDbSymbolTableRecord
100
AcDbDimStyleTableRecord
  2
STANDARD
 70
     0
  3

  4

  5

  6

  7

 40
0.0
 41
2.5
 42
0.625
 43
3.75
 44
1.25
 45
0.0
 46
0.0
 47
0.0
 48
0.0
140
2.5
141
2.5
142
0.0
143
0.03937007874016
144
1.0
145
0.0
146
1.0
147
0.625
 71
     0
 72
     0
 73
     0
 74
     0
 75
     0
 76
     0
 77
     1
 78
     8
170
     0
171
     3
172
     1
173
     0
174
     0
175
     0
176
     0
177
     0
178
     0
270
     2
271
     2
272
     2
273
     2
274
     3
340
71
275
     0
280
     0
281
     0
282
     0
283
     0
284
     8
285
     0
286
     0
287
     3
288
     0
  0
ENDTAB
  0
TABLE
  2
BLOCK_RECORD
  5
A01
330
0
100
AcDbSymbolTable
  70
5
  0
BLOCK_RECORD
  5
A02
330
A01
100
AcDbSymbolTableRecord
100
AcDbBlockTableRecord
  2
*MODEL_SPACE
  0
BLOCK_RECORD
  5
A03
330
A01
100
AcDbSymbolTableRecord
100
AcDbBlockTableRecord
  2
*PAPER_SPACE
  0
ENDTAB
  0
ENDSEC
  0
SECTION
  2
BLOCKS
  0
BLOCK
  5
A04
330
A02
100
AcDbEntity
  8
0
100
AcDbBlockBegin
  2
*MODEL_SPACE
 70
   0
 10
0
 20
0
 30
0
  3
*MODEL_SPACE
  1
 
  0
ENDBLK
  5
A05
330
A02
100
AcDbEntity
  8
0
100
AcDbBlockEnd
  0
BLOCK
  5
A06
330
A03
100
AcDbEntity
 67
1
  8
0
100
AcDbBlockBegin
  2
*PAPER_SPACE
 70
   0
 10
0
 20
0
 30
0
  3
*PAPER_SPACE
  1
 
  0
ENDBLK
  5
A07
330
A03
100
AcDbEntity
 67
    1
  8
0
100
AcDbBlockEnd
  0
ENDSEC
  0
SECTION
  2
ENTITIES
  0
LINE
  5
A08
330
A02
100
AcDbEntity
  8
View005
100
AcDbLine
 10
502.905
 20
293.322
 30
0
 11
501.664
 21
296.245
 31
0
  0
LINE
  5
A09
330
A02
100
AcDbEntity
  8
View005
100
AcDbLine
 10
501.664
 20
296.245
 30
0
 11
498.512
 21
296.632
 31
0
  0
LINE
  5
A0A
330
A02
100
AcDbEntity
  8
View005
100
AcDbLine
 10
498.512
 20
296.632
 30
0
 11
496.601
 21
294.096
 31
0
  0
LINE
  5
A0B
330
A02
100
AcDbEntity
  8
View005
100
AcDbLine
 10
496.601
 20
294.096
 30
0
 11
497.842
 21
291.173
 31
0
  0
LINE
  5
A0C
330
A02
100
AcDbEntity
  8
View005
100
AcDbLine
 10
497.842
 20
291.173
 30
0
 11
500.994
 21
290.786
 31
0
  0
LINE
  5
A0D
330
A02
100
AcDbEntity
  8
View005
100
AcDbLine
 10
500.994
 20
290.786
 30
0
 11
502.905
 21
293.322
 31
0
  0
LINE
  5
A0E
330
A02
100
AcDbEntity
  8
View005
100
AcDbLine
 10
532.14
 20
267.316
 30
0
 11
534.051
 21
269.852
 31
0
  0
LINE
  5
A0F
330
A02
100
AcDbEntity
  8
View005
100
AcDbLine
 10
534.051
 20
269.852
 30
0
 11
532.811
 21
272.775
 31
0
  0
LINE
  5
A10
330
A02
100
AcDbEntity
  8
View005
100
AcDbLine
 10
532.811
 20
272.775
 30
0
 11
529.659
 21
273.162
 31
0
  0
LINE
  5
A11
330
A02
100
AcDbEntity
  8
View005
100
AcDbLine
 10
529.659
 20
273.162
 30
0
 11
527.748
 21
270.626
 31
0
  0
LINE
  5
A12
330
A02
100
AcDbEntity
  8
View005
100
AcDbLine
 10
527.748
 20
270.626
 30
0
 11
528.989
 21
267.703
 31
0
  0
LINE
  5
A13
330
A02
100
AcDbEntity
  8
View005
100
AcDbLine
 10
528.989
 20
267.703
 30
0
 11
532.14
 21
267.316
 31
0
  0
LINE
  5
A14
330
A02
100
AcDbEntity
  8
View005
100
AcDbLine
 10
528.058
 20
234.065
 30
0
 11
524.906
 21
234.452
 31
0
  0
LINE
  5
A15
330
A02
100
AcDbEntity
  8
View005
100
AcDbLine
 10
524.906
 20
234.452
 30
0
 11
522.995
 21
231.916
 31
0
  0
LINE
  5
A16
330
A02
100
AcDbEntity
  8
View005
100
AcDbLine
 10
522.995
 20
231.916
 30
0
 11
524.236
 21
228.993
 31
0
  0
LINE
  5
A17
330
A02
100
AcDbEntity
  8
View005
100
AcDbLine
 10
524.236
 20
228.993
 30
0
 11
527.388
 21
228.606
 31
0
  0
LINE
  5
A18
330
A02
100
AcDbEntity
  8
View005
100
AcDbLine
 10
527.388
 20
228.606
 30
0
 11
529.299
 21
231.142
 31
0
  0
LINE
  5
A19
330
A02
100
AcDbEntity
  8
View005
100
AcDbLine
 10
529.299
 20
231.142
 30
0
 11
528.058
 21
234.065
 31
0
  0
LINE
  5
A1A
330
A02
100
AcDbEntity
  8
View005
100
AcDbLine
 10
468.645
 20
274.86
 30
0
 11
470.242
 21
273.656
 31
0
  0
ARC
  5
A1B
330
A02
100
AcDbEntity
  8
View005
100
AcDbCircle
 10
495
 20
255
 30
0
 40
31
100
AcDbArc
 50
-37
 51
143
  0
LINE
  5
A1C
330
A02
100
AcDbEntity
  8
View005
100
AcDbLine
 10
519.758
 20
236.344
 30
0
 11
521.355
 21
235.14
 31
0
  0
ARC
  5
A1D
330
A02
100
AcDbEntity
  8
View005
100
AcDbCircle
 10
526.147
 20
231.529
 30
0
 40
6
100
AcDbArc
 50
143
 51
-36.9998
  0
ARC
  5
A1E
330
A02
100
AcDbEntity
  8
View005
100
AcDbCircle
 10
495
 20
255
 30
0
 40
45
100
AcDbArc
 50
-37
 51
90
  0
LINE
  5
A1F
330
A02
100
AcDbEntity
  8
View005
100
AcDbLine
 10
480.061
 20
300
 30
0
 11
495
 21
300
 31
0
  0
LINE
  5
A20
330
A02
100
AcDbEntity
  8
View005
100
AcDbLine
 10
462.061
 20
303
 30
0
 11
480.061
 21
300
 31
0
  0
LINE
  5
A21
330
A02
100
AcDbEntity
  8
View005
100
AcDbLine
 10
459.061
 20
300
 30
0
 11
462.061
 21
303
 31
0
  0
LINE
  5
A22
330
A02
100
AcDbEntity
  8
View005
100
AcDbLine
 10
459.061
 20
300
 30
0
 11
459.061
 21
282.082
 31
0
  0
ARC
  5
A23
330
A02
100
AcDbEntity
  8
View005
100
AcDbCircle
 10
463.853
 20
278.471
 30
0
 40
6
100
AcDbArc
 50
143
 51
-37
  0
CIRCLE
  5
A24
330
A02
100
AcDbEntity
  8
View005
100
AcDbCircle
 10
499.753
 20
293.709
 40
1.6
  0
CIRCLE
  5
A25
330
A02
100
AcDbEntity
  8
View005
100
AcDbCircle
 10
530.9
 20
270.239
 40
1.6
  0
CIRCLE
  5
A26
330
A02
100
AcDbEntity
  8
View005
100
AcDbCircle
 10
526.147
 20
231.529
 40
1.6
  0
LINE
  5
A27
330
A02
100
AcDbEntity
  8
View005
100
AcDbLine
 10
502.905
 20
306.678
 30
0
 11
500.994
 21
309.214
 31
0
  0
LINE
  5
A28
330
A02
100
AcDbEntity
  8
View005
100
AcDbLine
 10
500.994
 20
309.214
 30
0
 11
497.842
 21
308.827
 31
0
  0
LINE
  5
A29
330
A02
100
AcDbEntity
  8
View005
100
AcDbLine
 10
497.842
 20
308.827
 30
0
 11
496.601
 21
305.904
 31
0
  0
LINE
  5
A2A
330
A02
100
AcDbEntity
  8
View005
100
AcDbLine
 10
496.601
 20
305.904
 30
0
 11
498.512
 21
303.368
 31
0
  0
LINE
  5
A2B
330
A02
100
AcDbEntity
  8
View005
100
AcDbLine
 10
498.512
 20
303.368
 30
0
 11
501.664
 21
303.755
 31
0
  0
LINE
  5
A2C
330
A02
100
AcDbEntity
  8
View005
100
AcDbLine
 10
501.664
 20
303.755
 30
0
 11
502.905
 21
306.678
 31
0
  0
LINE
  5
A2D
330
A02
100
AcDbEntity
  8
View005
100
AcDbLine
 10
532.14
 20
332.684
 30
0
 11
528.989
 21
332.297
 31
0
  0
LINE
  5
A2E
330
A02
100
AcDbEntity
  8
View005
100
AcDbLine
 10
528.989
 20
332.297
 30
0
 11
527.748
 21
329.374
 31
0
  0
LINE
  5
A2F
330
A02
100
AcDbEntity
  8
View005
100
AcDbLine
 10
527.748
 20
329.374
 30
0
 11
529.659
 21
326.838
 31
0
  0
LINE
  5
A30
330
A02
100
AcDbEntity
  8
View005
100
AcDbLine
 10
529.659
 20
326.838
 30
0
 11
532.811
 21
327.225
 31
0
  0
LINE
  5
A31
330
A02
100
AcDbEntity
  8
View005
100
AcDbLine
 10
532.811
 20
327.225
 30
0
 11
534.051
 21
330.148
 31
0
  0
LINE
  5
A32
330
A02
100
AcDbEntity
  8
View005
100
AcDbLine
 10
534.051
 20
330.148
 30
0
 11
532.14
 21
332.684
 31
0
  0
ARC
  5
A33
330
A02
100
AcDbEntity
  8
View005
100
AcDbCircle
 10
463.853
 20
321.529
 30
0
 40
6
100
AcDbArc
 50
-116.034
 51
37
  0
LINE
  5
A34
330
A02
100
AcDbEntity
  8
View005
100
AcDbLine
 10
468.645
 20
325.14
 30
0
 11
470.242
 21
326.344
 31
0
  0
ARC
  5
A35
330
A02
100
AcDbEntity
  8
View005
100
AcDbCircle
 10
495
 20
345
 30
0
 40
31
100
AcDbArc
 50
-143
 51
37
  0
LINE
  5
A36
330
A02
100
AcDbEntity
  8
View005
100
AcDbLine
 10
519.758
 20
363.656
 30
0
 11
521.355
 21
364.86
 31
0
  0
ARC
  5
A37
330
A02
100
AcDbEntity
  8
View005
100
AcDbCircle
 10
526.147
 20
368.471
 30
0
 40
6
100
AcDbArc
 50
-143
 51
-61.8499
  0
LINE
  5
A38
330
A02
100
AcDbEntity
  8
View005
100
AcDbLine
 10
534.677
 20
366.23
 30
0
 11
528.977
 21
363.18
 31
0
  0
ARC
  5
A39
330
A02
100
AcDbEntity
  8
View005
100
AcDbCircle
 10
495
 20
345
 30
0
 40
45
100
AcDbArc
 50
-90
 51
28.1501
  0
LINE
  5
A3A
330
A02
100
AcDbEntity
  8
View005
100
AcDbLine
 10
480.061
 20
300
 30
0
 11
495
 21
300
 31
0
  0
LINE
  5
A3B
330
A02
100
AcDbEntity
  8
View005
100
AcDbLine
 10
462.061
 20
303
 30
0
 11
480.061
 21
300
 31
0
  0
LINE
  5
A3C
330
A02
100
AcDbEntity
  8
View005
100
AcDbLine
 10
460.769
 20
301.707
 30
0
 11
462.061
 21
303
 31
0
  0
ARC
  5
A3D
330
A02
100
AcDbEntity
  8
View005
100
AcDbCircle
 10
460.061
 20
302.414
 30
0
 40
1
100
AcDbArc
 50
180
 51
-45
  0
LINE
  5
A3E
330
A02
100
AcDbEntity
  8
View005
100
AcDbLine
 10
459.061
 20
314.79
 30
0
 11
459.061
 21
302.414
 31
0
  0
ARC
  5
A3F
330
A02
100
AcDbEntity
  8
View005
100
AcDbCircle
 10
460.561
 20
314.79
 30
0
 40
1.5
100
AcDbArc
 50
63.9657
 51
180
  0
CIRCLE
  5
A40
330
A02
100
AcDbEntity
  8
View005
100
AcDbCircle
 10
499.753
 20
306.291
 40
1.6
  0
CIRCLE
  5
A41
330
A02
100
AcDbEntity
  8
View005
100
AcDbCircle
 10
530.9
 20
329.761
 40
1.6
  0
LINE
  5
A42
330
A02
100
AcDbEntity
  8
View005
100
AcDbLine
 10
460.341
 20
236.838
 30
0
 11
462.252
 21
239.374
 31
0
  0
LINE
  5
A43
330
A02
100
AcDbEntity
  8
View005
100
AcDbLine
 10
462.252
 20
239.374
 30
0
 11
461.011
 21
242.297
 31
0
  0
LINE
  5
A44
330
A02
100
AcDbEntity
  8
View005
100
AcDbLine
 10
461.011
 20
242.297
 30
0
 11
457.86
 21
242.684
 31
0
  0
LINE
  5
A45
330
A02
100
AcDbEntity
  8
View005
100
AcDbLine
 10
457.86
 20
242.684
 30
0
 11
455.949
 21
240.148
 31
0
  0
LINE
  5
A46
330
A02
100
AcDbEntity
  8
View005
100
AcDbLine
 10
455.949
 20
240.148
 30
0
 11
457.189
 21
237.225
 31
0
  0
LINE
  5
A47
330
A02
100
AcDbEntity
  8
View005
100
AcDbLine
 10
457.189
 20
237.225
 30
0
 11
460.341
 21
236.838
 31
0
  0
LINE
  5
A48
330
A02
100
AcDbEntity
  8
View005
100
AcDbLine
 10
424.852
 20
269.384
 30
0
 11
424.742
 21
272.557
 31
0
  0
LINE
  5
A49
330
A02
100
AcDbEntity
  8
View005
100
AcDbLine
 10
424.742
 20
272.557
 30
0
 11
421.938
 21
274.048
 31
0
  0
LINE
  5
A4A
330
A02
100
AcDbEntity
  8
View005
100
AcDbLine
 10
421.938
 20
274.048
 30
0
 11
419.245
 21
272.365
 31
0
  0
LINE
  5
A4B
330
A02
100
AcDbEntity
  8
View005
100
AcDbLine
 10
419.245
 20
272.365
 30
0
 11
419.356
 21
269.192
 31
0
  0
LINE
  5
A4C
330
A02
100
AcDbEntity
  8
View005
100
AcDbLine
 10
419.356
 20
269.192
 30
0
 11
422.159
 21
267.701
 31
0
  0
LINE
  5
A4D
330
A02
100
AcDbEntity
  8
View005
100
AcDbLine
 10
422.159
 20
267.701
 30
0
 11
424.852
 21
269.384
 31
0
  0
LINE
  5
A4E
330
A02
100
AcDbEntity
  8
View005
100
AcDbLine
 10
455
 20
287.825
 30
0
 11
457.75
 21
289.412
 31
0
  0
LINE
  5
A4F
330
A02
100
AcDbEntity
  8
View005
100
AcDbLine
 10
457.75
 20
289.412
 30
0
 11
457.75
 21
292.588
 31
0
  0
LINE
  5
A50
330
A02
100
AcDbEntity
  8
View005
100
AcDbLine
 10
457.75
 20
292.588
 30
0
 11
455
 21
294.175
 31
0
  0
LINE
  5
A51
330
A02
100
AcDbEntity
  8
View005
100
AcDbLine
 10
455
 20
294.175
 30
0
 11
452.25
 21
292.588
 31
0
  0
LINE
  5
A52
330
A02
100
AcDbEntity
  8
View005
100
AcDbLine
 10
452.25
 20
292.588
 30
0
 11
452.25
 21
289.412
 31
0
  0
LINE
  5
A53
330
A02
100
AcDbEntity
  8
View005
100
AcDbLine
 10
452.25
 20
289.412
 30
0
 11
455
 21
287.825
 31
0
  0
LINE
  5
A54
330
A02
100
AcDbEntity
  8
View005
100
AcDbLine
 10
493.399
 20
215.904
 30
0
 11
492.158
 21
218.827
 31
0
  0
LINE
  5
A55
330
A02
100
AcDbEntity
  8
View005
100
AcDbLine
 10
492.158
 20
218.827
 30
0
 11
489.006
 21
219.214
 31
0
  0
LINE
  5
A56
330
A02
100
AcDbEntity
  8
View005
100
AcDbLine
 10
489.006
 20
219.214
 30
0
 11
487.095
 21
216.678
 31
0
  0
LINE
  5
A57
330
A02
100
AcDbEntity
  8
View005
100
AcDbLine
 10
487.095
 20
216.678
 30
0
 11
488.336
 21
213.755
 31
0
  0
LINE
  5
A58
330
A02
100
AcDbEntity
  8
View005
100
AcDbLine
 10
488.336
 20
213.755
 30
0
 11
491.488
 21
213.368
 31
0
  0
LINE
  5
A59
330
A02
100
AcDbEntity
  8
View005
100
AcDbLine
 10
491.488
 20
213.368
 30
0
 11
493.399
 21
215.904
 31
0
  0
LINE
  5
A5A
330
A02
100
AcDbEntity
  8
View005
100
AcDbLine
 10
459.061
 20
282.082
 30
0
 11
459.061
 21
300
 31
0
  0
LINE
  5
A5B
330
A02
100
AcDbEntity
  8
View005
100
AcDbLine
 10
459.061
 20
300
 30
0
 11
452.5
 21
300
 31
0
  0
ARC
  5
A5C
330
A02
100
AcDbEntity
  8
View005
100
AcDbCircle
 10
435
 20
300
 30
0
 40
17.5
100
AcDbArc
 50
180
 51
0
  0
LINE
  5
A5D
330
A02
100
AcDbEntity
  8
View005
100
AcDbLine
 10
410.394
 20
300
 30
0
 11
417.5
 21
300
 31
0
  0
ARC
  5
A5E
330
A02
100
AcDbEntity
  8
View005
100
AcDbCircle
 10
365.394
 20
300
 30
0
 40
45
100
AcDbArc
 50
-38.6363
 51
0
  0
ARC
  5
A5F
330
A02
100
AcDbEntity
  8
View005
100
AcDbCircle
 10
365.394
 20
164.322
 30
0
 40
113.178
100
AcDbArc
 50
34.9784
 51
71.906
  0
ARC
  5
A60
330
A02
100
AcDbEntity
  8
View005
100
AcDbCircle
 10
495
 20
255
 30
0
 40
45
100
AcDbArc
 50
-145.022
 51
-45.8499
  0
LINE
  5
A61
330
A02
100
AcDbEntity
  8
View005
100
AcDbLine
 10
526.344
 20
222.712
 30
0
 11
521.842
 21
227.35
 31
0
  0
ARC
  5
A62
330
A02
100
AcDbEntity
  8
View005
100
AcDbCircle
 10
526.147
 20
231.529
 30
0
 40
6
100
AcDbArc
 50
143
 51
-135.85
  0
LINE
  5
A63
330
A02
100
AcDbEntity
  8
View005
100
AcDbLine
 10
521.355
 20
235.14
 30
0
 11
519.758
 21
236.344
 31
0
  0
ARC
  5
A64
330
A02
100
AcDbEntity
  8
View005
100
AcDbCircle
 10
495
 20
255
 30
0
 40
31
100
AcDbArc
 50
143
 51
-37
  0
LINE
  5
A65
330
A02
100
AcDbEntity
  8
View005
100
AcDbLine
 10
468.645
 20
274.86
 30
0
 11
470.242
 21
273.656
 31
0
  0
ARC
  5
A66
330
A02
100
AcDbEntity
  8
View005
100
AcDbCircle
 10
463.853
 20
278.471
 30
0
 40
6
100
AcDbArc
 50
143
 51
-37
  0
CIRCLE
  5
A67
330
A02
100
AcDbEntity
  8
View005
100
AcDbCircle
 10
459.1
 20
239.761
 40
1.6
  0
CIRCLE
  5
A68
330
A02
100
AcDbEntity
  8
View005
100
AcDbCircle
 10
490.247
 20
216.291
 40
1.6
  0
CIRCLE
  5
A69
330
A02
100
AcDbEntity
  8
View005
100
AcDbCircle
 10
422.049
 20
270.874
 40
1.6
  0
CIRCLE
  5
A6A
330
A02
100
AcDbEntity
  8
View005
100
AcDbCircle
 10
455
 20
291
 40
1.6
  0
LINE
  5
A6B
330
A02
100
AcDbEntity
  8
View005
100
AcDbLine
 10
339.28
 20
317.816
 30
0
 11
338.405
 21
320.869
 31
0
  0
LINE
  5
A6C
330
A02
100
AcDbEntity
  8
View005
100
AcDbLine
 10
338.405
 20
320.869
 30
0
 11
335.324
 21
321.637
 31
0
  0
LINE
  5
A6D
330
A02
100
AcDbEntity
  8
View005
100
AcDbLine
 10
335.324
 20
321.637
 30
0
 11
333.118
 21
319.353
 31
0
  0
LINE
  5
A6E
330
A02
100
AcDbEntity
  8
View005
100
AcDbLine
 10
333.118
 20
319.353
 30
0
 11
333.993
 21
316.3
 31
0
  0
LINE
  5
A6F
330
A02
100
AcDbEntity
  8
View005
100
AcDbLine
 10
333.993
 20
316.3
 30
0
 11
337.074
 21
315.532
 31
0
  0
LINE
  5
A70
330
A02
100
AcDbEntity
  8
View005
100
AcDbLine
 10
337.074
 20
315.532
 30
0
 11
339.28
 21
317.816
 31
0
  0
LINE
  5
A71
330
A02
100
AcDbEntity
  8
View005
100
AcDbLine
 10
362.218
 20
315
 30
0
 11
363.806
 21
312.25
 31
0
  0
LINE
  5
A72
330
A02
100
AcDbEntity
  8
View005
100
AcDbLine
 10
363.806
 20
312.25
 30
0
 11
366.981
 21
312.25
 31
0
  0
LINE
  5
A73
330
A02
100
AcDbEntity
  8
View005
100
AcDbLine
 10
366.981
 20
312.25
 30
0
 11
368.569
 21
315
 31
0
  0
LINE
  5
A74
330
A02
100
AcDbEntity
  8
View005
100
AcDbLine
 10
368.569
 20
315
 30
0
 11
366.981
 21
317.75
 31
0
  0
LINE
  5
A75
330
A02
100
AcDbEntity
  8
View005
100
AcDbLine
 10
366.981
 20
317.75
 30
0
 11
363.806
 21
317.75
 31
0
  0
LINE
  5
A76
330
A02
100
AcDbEntity
  8
View005
100
AcDbLine
 10
363.806
 20
317.75
 30
0
 11
362.218
 21
315
 31
0
  0
LINE
  5
A77
330
A02
100
AcDbEntity
  8
View005
100
AcDbLine
 10
391.507
 20
317.816
 30
0
 11
393.713
 21
315.532
 31
0
  0
LINE
  5
A78
330
A02
100
AcDbEntity
  8
View005
100
AcDbLine
 10
393.713
 20
315.532
 30
0
 11
396.794
 21
316.3
 31
0
  0
LINE
  5
A79
330
A02
100
AcDbEntity
  8
View005
100
AcDbLine
 10
396.794
 20
316.3
 30
0
 11
397.669
 21
319.353
 31
0
  0
LINE
  5
A7A
330
A02
100
AcDbEntity
  8
View005
100
AcDbLine
 10
397.669
 20
319.353
 30
0
 11
395.464
 21
321.637
 31
0
  0
LINE
  5
A7B
330
A02
100
AcDbEntity
  8
View005
100
AcDbLine
 10
395.464
 20
321.637
 30
0
 11
392.382
 21
320.869
 31
0
  0
LINE
  5
A7C
330
A02
100
AcDbEntity
  8
View005
100
AcDbLine
 10
392.382
 20
320.869
 30
0
 11
391.507
 21
317.816
 31
0
  0
LINE
  5
A7D
330
A02
100
AcDbEntity
  8
View005
100
AcDbLine
 10
419.245
 20
327.635
 30
0
 11
421.938
 21
325.952
 31
0
  0
LINE
  5
A7E
330
A02
100
AcDbEntity
  8
View005
100
AcDbLine
 10
421.938
 20
325.952
 30
0
 11
424.742
 21
327.443
 31
0
  0
LINE
  5
A7F
330
A02
100
AcDbEntity
  8
View005
100
AcDbLine
 10
424.742
 20
327.443
 30
0
 11
424.852
 21
330.616
 31
0
  0
LINE
  5
A80
330
A02
100
AcDbEntity
  8
View005
100
AcDbLine
 10
424.852
 20
330.616
 30
0
 11
422.159
 21
332.299
 31
0
  0
LINE
  5
A81
330
A02
100
AcDbEntity
  8
View005
100
AcDbLine
 10
422.159
 20
332.299
 30
0
 11
419.356
 21
330.808
 31
0
  0
LINE
  5
A82
330
A02
100
AcDbEntity
  8
View005
100
AcDbLine
 10
419.356
 20
330.808
 30
0
 11
419.245
 21
327.635
 31
0
  0
LINE
  5
A83
330
A02
100
AcDbEntity
  8
View005
100
AcDbLine
 10
457.86
 20
357.316
 30
0
 11
461.011
 21
357.703
 31
0
  0
LINE
  5
A84
330
A02
100
AcDbEntity
  8
View005
100
AcDbLine
 10
461.011
 20
357.703
 30
0
 11
462.252
 21
360.626
 31
0
  0
LINE
  5
A85
330
A02
100
AcDbEntity
  8
View005
100
AcDbLine
 10
462.252
 20
360.626
 30
0
 11
460.341
 21
363.162
 31
0
  0
LINE
  5
A86
330
A02
100
AcDbEntity
  8
View005
100
AcDbLine
 10
460.341
 20
363.162
 30
0
 11
457.189
 21
362.775
 31
0
  0
LINE
  5
A87
330
A02
100
AcDbEntity
  8
View005
100
AcDbLine
 10
457.189
 20
362.775
 30
0
 11
455.949
 21
359.852
 31
0
  0
LINE
  5
A88
330
A02
100
AcDbEntity
  8
View005
100
AcDbLine
 10
455.949
 20
359.852
 30
0
 11
457.86
 21
357.316
 31
0
  0
LINE
  5
A89
330
A02
100
AcDbEntity
  8
View005
100
AcDbLine
 10
487.095
 20
383.322
 30
0
 11
489.006
 21
380.786
 31
0
  0
LINE
  5
A8A
330
A02
100
AcDbEntity
  8
View005
100
AcDbLine
 10
489.006
 20
380.786
 30
0
 11
492.158
 21
381.173
 31
0
  0
LINE
  5
A8B
330
A02
100
AcDbEntity
  8
View005
100
AcDbLine
 10
492.158
 20
381.173
 30
0
 11
493.399
 21
384.096
 31
0
  0
LINE
  5
A8C
330
A02
100
AcDbEntity
  8
View005
100
AcDbLine
 10
493.399
 20
384.096
 30
0
 11
491.488
 21
386.632
 31
0
  0
LINE
  5
A8D
330
A02
100
AcDbEntity
  8
View005
100
AcDbLine
 10
491.488
 20
386.632
 30
0
 11
488.336
 21
386.245
 31
0
  0
LINE
  5
A8E
330
A02
100
AcDbEntity
  8
View005
100
AcDbLine
 10
488.336
 20
386.245
 30
0
 11
487.095
 21
383.322
 31
0
  0
LINE
  5
A8F
330
A02
100
AcDbEntity
  8
View005
100
AcDbLine
 10
457.75
 20
310.588
 30
0
 11
455
 21
312.175
 31
0
  0
LINE
  5
A90
330
A02
100
AcDbEntity
  8
View005
100
AcDbLine
 10
455
 20
312.175
 30
0
 11
452.25
 21
310.588
 31
0
  0
LINE
  5
A91
330
A02
100
AcDbEntity
  8
View005
100
AcDbLine
 10
452.25
 20
310.588
 30
0
 11
452.25
 21
307.412
 31
0
  0
LINE
  5
A92
330
A02
100
AcDbEntity
  8
View005
100
AcDbLine
 10
452.25
 20
307.412
 30
0
 11
455
 21
305.825
 31
0
  0
LINE
  5
A93
330
A02
100
AcDbEntity
  8
View005
100
AcDbLine
 10
455
 20
305.825
 30
0
 11
457.75
 21
307.412
 31
0
  0
LINE
  5
A94
330
A02
100
AcDbEntity
  8
View005
100
AcDbLine
 10
457.75
 20
307.412
 30
0
 11
457.75
 21
310.588
 31
0
  0
LINE
  5
A95
330
A02
100
AcDbEntity
  8
View005
100
AcDbLine
 10
528.058
 20
365.935
 30
0
 11
529.299
 21
368.858
 31
0
  0
LINE
  5
A96
330
A02
100
AcDbEntity
  8
View005
100
AcDbLine
 10
529.299
 20
368.858
 30
0
 11
527.388
 21
371.394
 31
0
  0
LINE
  5
A97
330
A02
100
AcDbEntity
  8
View005
100
AcDbLine
 10
527.388
 20
371.394
 30
0
 11
524.236
 21
371.007
 31
0
  0
LINE
  5
A98
330
A02
100
AcDbEntity
  8
View005
100
AcDbLine
 10
524.236
 20
371.007
 30
0
 11
522.995
 21
368.084
 31
0
  0
LINE
  5
A99
330
A02
100
AcDbEntity
  8
View005
100
AcDbLine
 10
522.995
 20
368.084
 30
0
 11
524.906
 21
365.548
 31
0
  0
LINE
  5
A9A
330
A02
100
AcDbEntity
  8
View005
100
AcDbLine
 10
524.906
 20
365.548
 30
0
 11
528.058
 21
365.935
 31
0
  0
ARC
  5
A9B
330
A02
100
AcDbEntity
  8
View005
100
AcDbCircle
 10
365.394
 20
300
 30
0
 40
45
100
AcDbArc
 50
141.364
 51
180
  0
ARC
  5
A9C
330
A02
100
AcDbEntity
  8
View005
100
AcDbCircle
 10
365.394
 20
435.678
 30
0
 40
113.178
100
AcDbArc
 50
-108.094
 51
-34.9783
  0
ARC
  5
A9D
330
A02
100
AcDbEntity
  8
View005
100
AcDbCircle
 10
495
 20
345
 30
0
 40
45
100
AcDbArc
 50
37
 51
145.022
  0
ARC
  5
A9E
330
A02
100
AcDbEntity
  8
View005
100
AcDbCircle
 10
526.147
 20
368.471
 30
0
 40
6
100
AcDbArc
 50
-143
 51
37
  0
LINE
  5
A9F
330
A02
100
AcDbEntity
  8
View005
100
AcDbLine
 10
519.758
 20
363.656
 30
0
 11
521.355
 21
364.86
 31
0
  0
ARC
  5
AA0
330
A02
100
AcDbEntity
  8
View005
100
AcDbCircle
 10
495
 20
345
 30
0
 40
31
100
AcDbArc
 50
37
 51
-143
  0
LINE
  5
AA1
330
A02
100
AcDbEntity
  8
View005
100
AcDbLine
 10
470.242
 20
326.344
 30
0
 11
468.645
 21
325.14
 31
0
  0
ARC
  5
AA2
330
A02
100
AcDbEntity
  8
View005
100
AcDbCircle
 10
463.853
 20
321.529
 30
0
 40
6
100
AcDbArc
 50
-143
 51
37
  0
LINE
  5
AA3
330
A02
100
AcDbEntity
  8
View005
100
AcDbLine
 10
459.061
 20
317.918
 30
0
 11
459.061
 21
300
 31
0
  0
LINE
  5
AA4
330
A02
100
AcDbEntity
  8
View005
100
AcDbLine
 10
452.5
 20
300
 30
0
 11
459.061
 21
300
 31
0
  0
ARC
  5
AA5
330
A02
100
AcDbEntity
  8
View005
100
AcDbCircle
 10
435
 20
300
 30
0
 40
17.5
100
AcDbArc
 50
180
 51
0
  0
LINE
  5
AA6
330
A02
100
AcDbEntity
  8
View005
100
AcDbLine
 10
320.394
 20
300
 30
0
 11
417.5
 21
300
 31
0
  0
CIRCLE
  5
AA7
330
A02
100
AcDbEntity
  8
View005
100
AcDbCircle
 10
336.199
 20
318.585
 40
1.6
  0
CIRCLE
  5
AA8
330
A02
100
AcDbEntity
  8
View005
100
AcDbCircle
 10
365.394
 20
315
 40
1.6
  0
CIRCLE
  5
AA9
330
A02
100
AcDbEntity
  8
View005
100
AcDbCircle
 10
394.588
 20
318.585
 40
1.6
  0
CIRCLE
  5
AAA
330
A02
100
AcDbEntity
  8
View005
100
AcDbCircle
 10
422.049
 20
329.126
 40
1.6
  0
CIRCLE
  5
AAB
330
A02
100
AcDbEntity
  8
View005
100
AcDbCircle
 10
459.1
 20
360.239
 40
1.6
  0
CIRCLE
  5
AAC
330
A02
100
AcDbEntity
  8
View005
100
AcDbCircle
 10
490.247
 20
383.709
 40
1.6
  0
CIRCLE
  5
AAD
330
A02
100
AcDbEntity
  8
View005
100
AcDbCircle
 10
455
 20
309
 40
1.6
  0
CIRCLE
  5
AAE
330
A02
100
AcDbEntity
  8
View005
100
AcDbCircle
 10
435
 20
300
 40
8.5
  0
CIRCLE
  5
AAF
330
A02
100
AcDbEntity
  8
View005
100
AcDbCircle
 10
526.147
 20
368.471
 40
1.6
  0
LINE
  5
AB0
330
A02
100
AcDbEntity
  8
View005
100
AcDbLine
 10
189.516
 20
250.025
 30
0
 11
190.338
 21
253.092
 31
0
  0
LINE
  5
AB1
330
A02
100
AcDbEntity
  8
View005
100
AcDbLine
 10
190.338
 20
253.092
 30
0
 11
188.092
 21
255.338
 31
0
  0
LINE
  5
AB2
330
A02
100
AcDbEntity
  8
View005
100
AcDbLine
 10
188.092
 20
255.338
 30
0
 11
185.025
 21
254.516
 31
0
  0
LINE
  5
AB3
330
A02
100
AcDbEntity
  8
View005
100
AcDbLine
 10
185.025
 20
254.516
 30
0
 11
184.203
 21
251.448
 31
0
  0
LINE
  5
AB4
330
A02
100
AcDbEntity
  8
View005
100
AcDbLine
 10
184.203
 20
251.448
 30
0
 11
186.448
 21
249.203
 31
0
  0
LINE
  5
AB5
330
A02
100
AcDbEntity
  8
View005
100
AcDbLine
 10
186.448
 20
249.203
 30
0
 11
189.516
 21
250.025
 31
0
  0
LINE
  5
AB6
330
A02
100
AcDbEntity
  8
View005
100
AcDbLine
 10
238.175
 20
232.5
 30
0
 11
236.588
 21
235.25
 31
0
  0
LINE
  5
AB7
330
A02
100
AcDbEntity
  8
View005
100
AcDbLine
 10
236.588
 20
235.25
 30
0
 11
233.412
 21
235.25
 31
0
  0
LINE
  5
AB8
330
A02
100
AcDbEntity
  8
View005
100
AcDbLine
 10
233.412
 20
235.25
 30
0
 11
231.825
 21
232.5
 31
0
  0
LINE
  5
AB9
330
A02
100
AcDbEntity
  8
View005
100
AcDbLine
 10
231.825
 20
232.5
 30
0
 11
233.412
 21
229.75
 31
0
  0
LINE
  5
ABA
330
A02
100
AcDbEntity
  8
View005
100
AcDbLine
 10
233.412
 20
229.75
 30
0
 11
236.588
 21
229.75
 31
0
  0
LINE
  5
ABB
330
A02
100
AcDbEntity
  8
View005
100
AcDbLine
 10
236.588
 20
229.75
 30
0
 11
238.175
 21
232.5
 31
0
  0
LINE
  5
ABC
330
A02
100
AcDbEntity
  8
View005
100
AcDbLine
 10
284.975
 20
254.516
 30
0
 11
281.908
 21
255.338
 31
0
  0
LINE
  5
ABD
330
A02
100
AcDbEntity
  8
View005
100
AcDbLine
 10
281.908
 20
255.338
 30
0
 11
279.662
 21
253.092
 31
0
  0
LINE
  5
ABE
330
A02
100
AcDbEntity
  8
View005
100
AcDbLine
 10
279.662
 20
253.092
 30
0
 11
280.484
 21
250.025
 31
0
  0
LINE
  5
ABF
330
A02
100
AcDbEntity
  8
View005
100
AcDbLine
 10
280.484
 20
250.025
 30
0
 11
283.552
 21
249.203
 31
0
  0
LINE
  5
AC0
330
A02
100
AcDbEntity
  8
View005
100
AcDbLine
 10
283.552
 20
249.203
 30
0
 11
285.797
 21
251.448
 31
0
  0
LINE
  5
AC1
330
A02
100
AcDbEntity
  8
View005
100
AcDbLine
 10
285.797
 20
251.448
 30
0
 11
284.975
 21
254.516
 31
0
  0
LINE
  5
AC2
330
A02
100
AcDbEntity
  8
View005
100
AcDbLine
 10
308.849
 20
274.048
 30
0
 11
306.046
 21
272.557
 31
0
  0
LINE
  5
AC3
330
A02
100
AcDbEntity
  8
View005
100
AcDbLine
 10
306.046
 20
272.557
 30
0
 11
305.935
 21
269.384
 31
0
  0
LINE
  5
AC4
330
A02
100
AcDbEntity
  8
View005
100
AcDbLine
 10
305.935
 20
269.384
 30
0
 11
308.628
 21
267.701
 31
0
  0
LINE
  5
AC5
330
A02
100
AcDbEntity
  8
View005
100
AcDbLine
 10
308.628
 20
267.701
 30
0
 11
311.431
 21
269.192
 31
0
  0
LINE
  5
AC6
330
A02
100
AcDbEntity
  8
View005
100
AcDbLine
 10
311.431
 20
269.192
 30
0
 11
311.542
 21
272.365
 31
0
  0
LINE
  5
AC7
330
A02
100
AcDbEntity
  8
View005
100
AcDbLine
 10
311.542
 20
272.365
 30
0
 11
308.849
 21
274.048
 31
0
  0
LINE
  5
AC8
330
A02
100
AcDbEntity
  8
View005
100
AcDbLine
 10
339.28
 20
282.184
 30
0
 11
337.074
 21
284.468
 31
0
  0
LINE
  5
AC9
330
A02
100
AcDbEntity
  8
View005
100
AcDbLine
 10
337.074
 20
284.468
 30
0
 11
333.993
 21
283.7
 31
0
  0
LINE
  5
ACA
330
A02
100
AcDbEntity
  8
View005
100
AcDbLine
 10
333.993
 20
283.7
 30
0
 11
333.118
 21
280.647
 31
0
  0
LINE
  5
ACB
330
A02
100
AcDbEntity
  8
View005
100
AcDbLine
 10
333.118
 20
280.647
 30
0
 11
335.324
 21
278.363
 31
0
  0
LINE
  5
ACC
330
A02
100
AcDbEntity
  8
View005
100
AcDbLine
 10
335.324
 20
278.363
 30
0
 11
338.405
 21
279.131
 31
0
  0
LINE
  5
ACD
330
A02
100
AcDbEntity
  8
View005
100
AcDbLine
 10
338.405
 20
279.131
 30
0
 11
339.28
 21
282.184
 31
0
  0
LINE
  5
ACE
330
A02
100
AcDbEntity
  8
View005
100
AcDbLine
 10
391.507
 20
282.184
 30
0
 11
392.382
 21
279.131
 31
0
  0
LINE
  5
ACF
330
A02
100
AcDbEntity
  8
View005
100
AcDbLine
 10
392.382
 20
279.131
 30
0
 11
395.464
 21
278.363
 31
0
  0
LINE
  5
AD0
330
A02
100
AcDbEntity
  8
View005
100
AcDbLine
 10
395.464
 20
278.363
 30
0
 11
397.669
 21
280.647
 31
0
  0
LINE
  5
AD1
330
A02
100
AcDbEntity
  8
View005
100
AcDbLine
 10
397.669
 20
280.647
 30
0
 11
396.794
 21
283.7
 31
0
  0
LINE
  5
AD2
330
A02
100
AcDbEntity
  8
View005
100
AcDbLine
 10
396.794
 20
283.7
 30
0
 11
393.713
 21
284.468
 31
0
  0
LINE
  5
AD3
330
A02
100
AcDbEntity
  8
View005
100
AcDbLine
 10
393.713
 20
284.468
 30
0
 11
391.507
 21
282.184
 31
0
  0
LINE
  5
AD4
330
A02
100
AcDbEntity
  8
View005
100
AcDbLine
 10
362.218
 20
285
 30
0
 11
363.806
 21
282.25
 31
0
  0
LINE
  5
AD5
330
A02
100
AcDbEntity
  8
View005
100
AcDbLine
 10
363.806
 20
282.25
 30
0
 11
366.981
 21
282.25
 31
0
  0
LINE
  5
AD6
330
A02
100
AcDbEntity
  8
View005
100
AcDbLine
 10
366.981
 20
282.25
 30
0
 11
368.569
 21
285
 31
0
  0
LINE
  5
AD7
330
A02
100
AcDbEntity
  8
View005
100
AcDbLine
 10
368.569
 20
285
 30
0
 11
366.981
 21
287.75
 31
0
  0
LINE
  5
AD8
330
A02
100
AcDbEntity
  8
View005
100
AcDbLine
 10
366.981
 20
287.75
 30
0
 11
363.806
 21
287.75
 31
0
  0
LINE
  5
AD9
330
A02
100
AcDbEntity
  8
View005
100
AcDbLine
 10
363.806
 20
287.75
 30
0
 11
362.218
 21
285
 31
0
  0
LINE
  5
ADA
330
A02
100
AcDbEntity
  8
View005
100
AcDbLine
 10
167.5
 20
296.825
 30
0
 11
170.25
 21
298.412
 31
0
  0
LINE
  5
ADB
330
A02
100
AcDbEntity
  8
View005
100
AcDbLine
 10
170.25
 20
298.412
 30
0
 11
170.25
 21
301.588
 31
0
  0
LINE
  5
ADC
330
A02
100
AcDbEntity
  8
View005
100
AcDbLine
 10
170.25
 20
301.588
 30
0
 11
167.5
 21
303.175
 31
0
  0
LINE
  5
ADD
330
A02
100
AcDbEntity
  8
View005
100
AcDbLine
 10
167.5
 20
303.175
 30
0
 11
164.75
 21
301.588
 31
0
  0
LINE
  5
ADE
330
A02
100
AcDbEntity
  8
View005
100
AcDbLine
 10
164.75
 20
301.588
 30
0
 11
164.75
 21
298.412
 31
0
  0
LINE
  5
ADF
330
A02
100
AcDbEntity
  8
View005
100
AcDbLine
 10
164.75
 20
298.412
 30
0
 11
167.5
 21
296.825
 31
0
  0
ARC
  5
AE0
330
A02
100
AcDbEntity
  8
View005
100
AcDbCircle
 10
167.5
 20
300
 30
0
 40
7.5
100
AcDbArc
 50
1.04702e-07
 51
180
  0
ARC
  5
AE1
330
A02
100
AcDbEntity
  8
View005
100
AcDbCircle
 10
235
 20
300
 30
0
 40
60
100
AcDbArc
 50
180
 51
2.24067e-07
  0
ARC
  5
AE2
330
A02
100
AcDbEntity
  8
View005
100
AcDbCircle
 10
302.5
 20
300
 30
0
 40
7.5
100
AcDbArc
 50
0
 51
180
  0
LINE
  5
AE3
330
A02
100
AcDbEntity
  8
View005
100
AcDbLine
 10
310
 20
300
 30
0
 11
410.394
 21
300
 31
0
  0
ARC
  5
AE4
330
A02
100
AcDbEntity
  8
View005
100
AcDbCircle
 10
365.394
 20
300
 30
0
 40
45
100
AcDbArc
 50
-38.6363
 51
0
  0
ARC
  5
AE5
330
A02
100
AcDbEntity
  8
View005
100
AcDbCircle
 10
365.394
 20
164.322
 30
0
 40
113.178
100
AcDbArc
 50
71.906
 51
133.862
  0
ARC
  5
AE6
330
A02
100
AcDbEntity
  8
View005
100
AcDbCircle
 10
235
 20
300
 30
0
 40
75
100
AcDbArc
 50
180
 51
-46.1379
  0
CIRCLE
  5
AE7
330
A02
100
AcDbEntity
  8
View005
100
AcDbCircle
 10
167.5
 20
300
 40
1.6
  0
CIRCLE
  5
AE8
330
A02
100
AcDbEntity
  8
View005
100
AcDbCircle
 10
187.27
 20
252.27
 40
1.6
  0
CIRCLE
  5
AE9
330
A02
100
AcDbEntity
  8
View005
100
AcDbCircle
 10
235
 20
232.5
 40
1.6
  0
CIRCLE
  5
AEA
330
A02
100
AcDbEntity
  8
View005
100
AcDbCircle
 10
282.73
 20
252.27
 40
1.6
  0
CIRCLE
  5
AEB
330
A02
100
AcDbEntity
  8
View005
100
AcDbCircle
 10
308.738
 20
270.874
 40
1.6
  0
CIRCLE
  5
AEC
330
A02
100
AcDbEntity
  8
View005
100
AcDbCircle
 10
336.199
 20
281.415
 40
1.6
  0
CIRCLE
  5
AED
330
A02
100
AcDbEntity
  8
View005
100
AcDbCircle
 10
365.394
 20
285
 40
1.6
  0
CIRCLE
  5
AEE
330
A02
100
AcDbEntity
  8
View005
100
AcDbCircle
 10
394.588
 20
281.415
 40
1.6
  0
LINE
  5
AEF
330
A02
100
AcDbEntity
  8
View005
100
AcDbLine
 10
190.338
 20
346.908
 30
0
 11
189.516
 21
349.975
 31
0
  0
LINE
  5
AF0
330
A02
100
AcDbEntity
  8
View005
100
AcDbLine
 10
189.516
 20
349.975
 30
0
 11
186.448
 21
350.797
 31
0
  0
LINE
  5
AF1
330
A02
100
AcDbEntity
  8
View005
100
AcDbLine
 10
186.448
 20
350.797
 30
0
 11
184.203
 21
348.552
 31
0
  0
LINE
  5
AF2
330
A02
100
AcDbEntity
  8
View005
100
AcDbLine
 10
184.203
 20
348.552
 30
0
 11
185.025
 21
345.484
 31
0
  0
LINE
  5
AF3
330
A02
100
AcDbEntity
  8
View005
100
AcDbLine
 10
185.025
 20
345.484
 30
0
 11
188.092
 21
344.662
 31
0
  0
LINE
  5
AF4
330
A02
100
AcDbEntity
  8
View005
100
AcDbLine
 10
188.092
 20
344.662
 30
0
 11
190.338
 21
346.908
 31
0
  0
LINE
  5
AF5
330
A02
100
AcDbEntity
  8
View005
100
AcDbLine
 10
238.175
 20
367.5
 30
0
 11
236.588
 21
370.25
 31
0
  0
LINE
  5
AF6
330
A02
100
AcDbEntity
  8
View005
100
AcDbLine
 10
236.588
 20
370.25
 30
0
 11
233.412
 21
370.25
 31
0
  0
LINE
  5
AF7
330
A02
100
AcDbEntity
  8
View005
100
AcDbLine
 10
233.412
 20
370.25
 30
0
 11
231.825
 21
367.5
 31
0
  0
LINE
  5
AF8
330
A02
100
AcDbEntity
  8
View005
100
AcDbLine
 10
231.825
 20
367.5
 30
0
 11
233.412
 21
364.75
 31
0
  0
LINE
  5
AF9
330
A02
100
AcDbEntity
  8
View005
100
AcDbLine
 10
233.412
 20
364.75
 30
0
 11
236.588
 21
364.75
 31
0
  0
LINE
  5
AFA
330
A02
100
AcDbEntity
  8
View005
100
AcDbLine
 10
236.588
 20
364.75
 30
0
 11
238.175
 21
367.5
 31
0
  0
LINE
  5
AFB
330
A02
100
AcDbEntity
  8
View005
100
AcDbLine
 10
284.975
 20
345.484
 30
0
 11
285.797
 21
348.552
 31
0
  0
LINE
  5
AFC
330
A02
100
AcDbEntity
  8
View005
100
AcDbLine
 10
285.797
 20
348.552
 30
0
 11
283.552
 21
350.797
 31
0
  0
LINE
  5
AFD
330
A02
100
AcDbEntity
  8
View005
100
AcDbLine
 10
283.552
 20
350.797
 30
0
 11
280.484
 21
349.975
 31
0
  0
LINE
  5
AFE
330
A02
100
AcDbEntity
  8
View005
100
AcDbLine
 10
280.484
 20
349.975
 30
0
 11
279.662
 21
346.908
 31
0
  0
LINE
  5
AFF
330
A02
100
AcDbEntity
  8
View005
100
AcDbLine
 10
279.662
 20
346.908
 30
0
 11
281.908
 21
344.662
 31
0
  0
LINE
  5
B00
330
A02
100
AcDbEntity
  8
View005
100
AcDbLine
 10
281.908
 20
344.662
 30
0
 11
284.975
 21
345.484
 31
0
  0
LINE
  5
B01
330
A02
100
AcDbEntity
  8
View005
100
AcDbLine
 10
311.542
 20
327.635
 30
0
 11
311.431
 21
330.808
 31
0
  0
LINE
  5
B02
330
A02
100
AcDbEntity
  8
View005
100
AcDbLine
 10
311.431
 20
330.808
 30
0
 11
308.628
 21
332.299
 31
0
  0
LINE
  5
B03
330
A02
100
AcDbEntity
  8
View005
100
AcDbLine
 10
308.628
 20
332.299
 30
0
 11
305.935
 21
330.616
 31
0
  0
LINE
  5
B04
330
A02
100
AcDbEntity
  8
View005
100
AcDbLine
 10
305.935
 20
330.616
 30
0
 11
306.046
 21
327.443
 31
0
  0
LINE
  5
B05
330
A02
100
AcDbEntity
  8
View005
100
AcDbLine
 10
306.046
 20
327.443
 30
0
 11
308.849
 21
325.952
 31
0
  0
LINE
  5
B06
330
A02
100
AcDbEntity
  8
View005
100
AcDbLine
 10
308.849
 20
325.952
 30
0
 11
311.542
 21
327.635
 31
0
  0
LINE
  5
B07
330
A02
100
AcDbEntity
  8
View005
100
AcDbLine
 10
160.376
 20
307.5
 30
0
 11
167.5
 21
307.5
 31
0
  0
ARC
  5
B08
330
A02
100
AcDbEntity
  8
View005
100
AcDbCircle
 10
167.5
 20
300
 30
0
 40
7.5
100
AcDbArc
 50
45.2751
 51
90
  0
ARC
  5
B09
330
A02
100
AcDbEntity
  8
View005
100
AcDbCircle
 10
173.833
 20
306.394
 30
0
 40
1.5
100
AcDbArc
 50
-134.725
 51
-5.9681
  0
ARC
  5
B0A
330
A02
100
AcDbEntity
  8
View005
100
AcDbCircle
 10
235
 20
300
 30
0
 40
60
100
AcDbArc
 50
5.9681
 51
174.032
  0
ARC
  5
B0B
330
A02
100
AcDbEntity
  8
View005
100
AcDbCircle
 10
296.167
 20
306.394
 30
0
 40
1.5
100
AcDbArc
 50
-174.032
 51
-45.2751
  0
ARC
  5
B0C
330
A02
100
AcDbEntity
  8
View005
100
AcDbCircle
 10
302.5
 20
300
 30
0
 40
7.5
100
AcDbArc
 50
0
 51
134.725
  0
LINE
  5
B0D
330
A02
100
AcDbEntity
  8
View005
100
AcDbLine
 10
310
 20
300
 30
0
 11
320.394
 21
300
 31
0
  0
ARC
  5
B0E
330
A02
100
AcDbEntity
  8
View005
100
AcDbCircle
 10
365.394
 20
300
 30
0
 40
45
100
AcDbArc
 50
141.364
 51
180
  0
ARC
  5
B0F
330
A02
100
AcDbEntity
  8
View005
100
AcDbCircle
 10
365.394
 20
435.678
 30
0
 40
113.178
100
AcDbArc
 50
-133.862
 51
-108.094
  0
ARC
  5
B10
330
A02
100
AcDbEntity
  8
View005
100
AcDbCircle
 10
235
 20
300
 30
0
 40
75
100
AcDbArc
 50
46.1379
 51
174.261
  0
CIRCLE
  5
B11
330
A02
100
AcDbEntity
  8
View005
100
AcDbCircle
 10
187.27
 20
347.73
 40
1.6
  0
CIRCLE
  5
B12
330
A02
100
AcDbEntity
  8
View005
100
AcDbCircle
 10
235
 20
367.5
 40
1.6
  0
CIRCLE
  5
B13
330
A02
100
AcDbEntity
  8
View005
100
AcDbCircle
 10
282.73
 20
347.73
 40
1.6
  0
CIRCLE
  5
B14
330
A02
100
AcDbEntity
  8
View005
100
AcDbCircle
 10
308.738
 20
329.126
 40
1.6
  0
CIRCLE
  5
B15
330
A02
100
AcDbEntity
  8
View004
100
AcDbCircle
 10
499.753
 20
106.291
 40
3
  0
CIRCLE
  5
B16
330
A02
100
AcDbEntity
  8
View004
100
AcDbCircle
 10
530.9
 20
129.761
 40
3
  0
CIRCLE
  5
B17
330
A02
100
AcDbEntity
  8
View004
100
AcDbCircle
 10
526.147
 20
168.471
 40
3
  0
LINE
  5
B18
330
A02
100
AcDbEntity
  8
View004
100
AcDbLine
 10
459.061
 20
100
 30
0
 11
459.061
 21
117.918
 31
0
  0
ARC
  5
B19
330
A02
100
AcDbEntity
  8
View004
100
AcDbCircle
 10
463.853
 20
121.529
 30
0
 40
6
100
AcDbArc
 50
37
 51
-143
  0
LINE
  5
B1A
330
A02
100
AcDbEntity
  8
View004
100
AcDbLine
 10
468.645
 20
125.14
 30
0
 11
470.242
 21
126.344
 31
0
  0
ARC
  5
B1B
330
A02
100
AcDbEntity
  8
View004
100
AcDbCircle
 10
495
 20
145
 30
0
 40
31
100
AcDbArc
 50
-143
 51
37
  0
LINE
  5
B1C
330
A02
100
AcDbEntity
  8
View004
100
AcDbLine
 10
519.758
 20
163.656
 30
0
 11
521.355
 21
164.86
 31
0
  0
ARC
  5
B1D
330
A02
100
AcDbEntity
  8
View004
100
AcDbCircle
 10
526.147
 20
168.471
 30
0
 40
6
100
AcDbArc
 50
36.9998
 51
-143
  0
ARC
  5
B1E
330
A02
100
AcDbEntity
  8
View004
100
AcDbCircle
 10
495
 20
145
 30
0
 40
45
100
AcDbArc
 50
-90
 51
37
  0
LINE
  5
B1F
330
A02
100
AcDbEntity
  8
View004
100
AcDbLine
 10
480.061
 20
100
 30
0
 11
495
 21
100
 31
0
  0
LINE
  5
B20
330
A02
100
AcDbEntity
  8
View004
100
AcDbLine
 10
462.061
 20
97
 30
0
 11
480.061
 21
100
 31
0
  0
LINE
  5
B21
330
A02
100
AcDbEntity
  8
View004
100
AcDbLine
 10
459.061
 20
100
 30
0
 11
462.061
 21
97
 31
0
  0
CIRCLE
  5
B22
330
A02
100
AcDbEntity
  8
View004
100
AcDbCircle
 10
526.147
 20
168.471
 40
1.6
  0
CIRCLE
  5
B23
330
A02
100
AcDbEntity
  8
View004
100
AcDbCircle
 10
530.9
 20
129.761
 40
1.6
  0
CIRCLE
  5
B24
330
A02
100
AcDbEntity
  8
View004
100
AcDbCircle
 10
499.753
 20
106.291
 40
1.6
  0
CIRCLE
  5
B25
330
A02
100
AcDbEntity
  8
View004
100
AcDbCircle
 10
499.753
 20
93.7093
 40
3
  0
CIRCLE
  5
B26
330
A02
100
AcDbEntity
  8
View004
100
AcDbCircle
 10
530.9
 20
70.2385
 40
3
  0
LINE
  5
B27
330
A02
100
AcDbEntity
  8
View004
100
AcDbLine
 10
459.061
 20
85.2098
 30
0
 11
459.061
 21
97.5858
 31
0
  0
ARC
  5
B28
330
A02
100
AcDbEntity
  8
View004
100
AcDbCircle
 10
460.061
 20
97.5858
 30
0
 40
1
100
AcDbArc
 50
45
 51
-180
  0
LINE
  5
B29
330
A02
100
AcDbEntity
  8
View004
100
AcDbLine
 10
460.769
 20
98.2929
 30
0
 11
462.061
 21
97
 31
0
  0
LINE
  5
B2A
330
A02
100
AcDbEntity
  8
View004
100
AcDbLine
 10
462.061
 20
97
 30
0
 11
480.061
 21
100
 31
0
  0
LINE
  5
B2B
330
A02
100
AcDbEntity
  8
View004
100
AcDbLine
 10
480.061
 20
100
 30
0
 11
495
 21
100
 31
0
  0
ARC
  5
B2C
330
A02
100
AcDbEntity
  8
View004
100
AcDbCircle
 10
495
 20
55
 30
0
 40
45
100
AcDbArc
 50
-28.1501
 51
90
  0
LINE
  5
B2D
330
A02
100
AcDbEntity
  8
View004
100
AcDbLine
 10
534.677
 20
33.7698
 30
0
 11
528.977
 21
36.8195
 31
0
  0
ARC
  5
B2E
330
A02
100
AcDbEntity
  8
View004
100
AcDbCircle
 10
526.147
 20
31.5292
 30
0
 40
6
100
AcDbArc
 50
61.8499
 51
143
  0
LINE
  5
B2F
330
A02
100
AcDbEntity
  8
View004
100
AcDbLine
 10
519.758
 20
36.3437
 30
0
 11
521.355
 21
35.1401
 31
0
  0
ARC
  5
B30
330
A02
100
AcDbEntity
  8
View004
100
AcDbCircle
 10
495
 20
55
 30
0
 40
31
100
AcDbArc
 50
-37
 51
143
  0
LINE
  5
B31
330
A02
100
AcDbEntity
  8
View004
100
AcDbLine
 10
468.645
 20
74.8599
 30
0
 11
470.242
 21
73.6563
 31
0
  0
ARC
  5
B32
330
A02
100
AcDbEntity
  8
View004
100
AcDbCircle
 10
463.853
 20
78.4708
 30
0
 40
6
100
AcDbArc
 50
-37
 51
116.034
  0
ARC
  5
B33
330
A02
100
AcDbEntity
  8
View004
100
AcDbCircle
 10
460.561
 20
85.2098
 30
0
 40
1.5
100
AcDbArc
 50
180
 51
-63.9657
  0
CIRCLE
  5
B34
330
A02
100
AcDbEntity
  8
View004
100
AcDbCircle
 10
530.9
 20
70.2385
 40
1.6
  0
CIRCLE
  5
B35
330
A02
100
AcDbEntity
  8
View004
100
AcDbCircle
 10
499.753
 20
93.7093
 40
1.6
  0
CIRCLE
  5
B36
330
A02
100
AcDbEntity
  8
View004
100
AcDbCircle
 10
422.049
 20
129.126
 40
3
  0
CIRCLE
  5
B37
330
A02
100
AcDbEntity
  8
View004
100
AcDbCircle
 10
455
 20
109
 40
3
  0
CIRCLE
  5
B38
330
A02
100
AcDbEntity
  8
View004
100
AcDbCircle
 10
459.1
 20
160.239
 40
3
  0
CIRCLE
  5
B39
330
A02
100
AcDbEntity
  8
View004
100
AcDbCircle
 10
490.247
 20
183.709
 40
3
  0
ARC
  5
B3A
330
A02
100
AcDbEntity
  8
View004
100
AcDbCircle
 10
495
 20
145
 30
0
 40
45
100
AcDbArc
 50
45.8499
 51
145.022
  0
ARC
  5
B3B
330
A02
100
AcDbEntity
  8
View004
100
AcDbCircle
 10
365.394
 20
235.678
 30
0
 40
113.178
100
AcDbArc
 50
-71.906
 51
-34.9784
  0
ARC
  5
B3C
330
A02
100
AcDbEntity
  8
View004
100
AcDbCircle
 10
365.394
 20
100
 30
0
 40
45
100
AcDbArc
 50
1.80938e-14
 51
38.6363
  0
LINE
  5
B3D
330
A02
100
AcDbEntity
  8
View004
100
AcDbLine
 10
410.394
 20
100
 30
0
 11
417.5
 21
100
 31
0
  0
ARC
  5
B3E
330
A02
100
AcDbEntity
  8
View004
100
AcDbCircle
 10
435
 20
100
 30
0
 40
17.5
100
AcDbArc
 50
0
 51
180
  0
LINE
  5
B3F
330
A02
100
AcDbEntity
  8
View004
100
AcDbLine
 10
459.061
 20
100
 30
0
 11
452.5
 21
100
 31
0
  0
LINE
  5
B40
330
A02
100
AcDbEntity
  8
View004
100
AcDbLine
 10
459.061
 20
117.918
 30
0
 11
459.061
 21
100
 31
0
  0
ARC
  5
B41
330
A02
100
AcDbEntity
  8
View004
100
AcDbCircle
 10
463.853
 20
121.529
 30
0
 40
6
100
AcDbArc
 50
37
 51
-143
  0
LINE
  5
B42
330
A02
100
AcDbEntity
  8
View004
100
AcDbLine
 10
468.645
 20
125.14
 30
0
 11
470.242
 21
126.344
 31
0
  0
ARC
  5
B43
330
A02
100
AcDbEntity
  8
View004
100
AcDbCircle
 10
495
 20
145
 30
0
 40
31
100
AcDbArc
 50
37
 51
-143
  0
LINE
  5
B44
330
A02
100
AcDbEntity
  8
View004
100
AcDbLine
 10
521.355
 20
164.86
 30
0
 11
519.758
 21
163.656
 31
0
  0
ARC
  5
B45
330
A02
100
AcDbEntity
  8
View004
100
AcDbCircle
 10
526.147
 20
168.471
 30
0
 40
6
100
AcDbArc
 50
135.85
 51
-143
  0
LINE
  5
B46
330
A02
100
AcDbEntity
  8
View004
100
AcDbLine
 10
526.344
 20
177.288
 30
0
 11
521.842
 21
172.65
 31
0
  0
CIRCLE
  5
B47
330
A02
100
AcDbEntity
  8
View004
100
AcDbCircle
 10
455
 20
109
 40
1.6
  0
CIRCLE
  5
B48
330
A02
100
AcDbEntity
  8
View004
100
AcDbCircle
 10
422.049
 20
129.126
 40
1.6
  0
CIRCLE
  5
B49
330
A02
100
AcDbEntity
  8
View004
100
AcDbCircle
 10
459.1
 20
160.239
 40
1.6
  0
CIRCLE
  5
B4A
330
A02
100
AcDbEntity
  8
View004
100
AcDbCircle
 10
490.247
 20
183.709
 40
1.6
  0
CIRCLE
  5
B4B
330
A02
100
AcDbEntity
  8
View004
100
AcDbCircle
 10
336.199
 20
81.4153
 40
3
  0
CIRCLE
  5
B4C
330
A02
100
AcDbEntity
  8
View004
100
AcDbCircle
 10
365.394
 20
85
 40
3
  0
CIRCLE
  5
B4D
330
A02
100
AcDbEntity
  8
View004
100
AcDbCircle
 10
394.588
 20
81.4153
 40
3
  0
CIRCLE
  5
B4E
330
A02
100
AcDbEntity
  8
View004
100
AcDbCircle
 10
422.049
 20
70.8743
 40
3
  0
CIRCLE
  5
B4F
330
A02
100
AcDbEntity
  8
View004
100
AcDbCircle
 10
459.1
 20
39.7615
 40
3
  0
CIRCLE
  5
B50
330
A02
100
AcDbEntity
  8
View004
100
AcDbCircle
 10
490.247
 20
16.2907
 40
3
  0
CIRCLE
  5
B51
330
A02
100
AcDbEntity
  8
View004
100
AcDbCircle
 10
455
 20
91
 40
3
  0
CIRCLE
  5
B52
330
A02
100
AcDbEntity
  8
View004
100
AcDbCircle
 10
526.147
 20
31.5292
 40
3
  0
ARC
  5
B53
330
A02
100
AcDbEntity
  8
View004
100
AcDbCircle
 10
495
 20
55
 30
0
 40
31
100
AcDbArc
 50
143
 51
-37
  0
LINE
  5
B54
330
A02
100
AcDbEntity
  8
View004
100
AcDbLine
 10
519.758
 20
36.3437
 30
0
 11
521.355
 21
35.1401
 31
0
  0
ARC
  5
B55
330
A02
100
AcDbEntity
  8
View004
100
AcDbCircle
 10
526.147
 20
31.5292
 30
0
 40
6
100
AcDbArc
 50
-37
 51
143
  0
ARC
  5
B56
330
A02
100
AcDbEntity
  8
View004
100
AcDbCircle
 10
495
 20
55
 30
0
 40
45
100
AcDbArc
 50
-145.022
 51
-37
  0
ARC
  5
B57
330
A02
100
AcDbEntity
  8
View004
100
AcDbCircle
 10
365.394
 20
-35.6784
 30
0
 40
113.178
100
AcDbArc
 50
34.9783
 51
108.094
  0
ARC
  5
B58
330
A02
100
AcDbEntity
  8
View004
100
AcDbCircle
 10
365.394
 20
100
 30
0
 40
45
100
AcDbArc
 50
-180
 51
-141.364
  0
LINE
  5
B59
330
A02
100
AcDbEntity
  8
View004
100
AcDbLine
 10
320.394
 20
100
 30
0
 11
417.5
 21
100
 31
0
  0
ARC
  5
B5A
330
A02
100
AcDbEntity
  8
View004
100
AcDbCircle
 10
435
 20
100
 30
0
 40
17.5
100
AcDbArc
 50
-4.6527e-14
 51
180
  0
LINE
  5
B5B
330
A02
100
AcDbEntity
  8
View004
100
AcDbLine
 10
452.5
 20
100
 30
0
 11
459.061
 21
100
 31
0
  0
LINE
  5
B5C
330
A02
100
AcDbEntity
  8
View004
100
AcDbLine
 10
459.061
 20
82.0817
 30
0
 11
459.061
 21
100
 31
0
  0
ARC
  5
B5D
330
A02
100
AcDbEntity
  8
View004
100
AcDbCircle
 10
463.853
 20
78.4708
 30
0
 40
6
100
AcDbArc
 50
-37
 51
143
  0
LINE
  5
B5E
330
A02
100
AcDbEntity
  8
View004
100
AcDbLine
 10
470.242
 20
73.6563
 30
0
 11
468.645
 21
74.8599
 31
0
  0
CIRCLE
  5
B5F
330
A02
100
AcDbEntity
  8
View004
100
AcDbCircle
 10
526.147
 20
31.5292
 40
1.6
  0
CIRCLE
  5
B60
330
A02
100
AcDbEntity
  8
View004
100
AcDbCircle
 10
490.247
 20
16.2907
 40
1.6
  0
CIRCLE
  5
B61
330
A02
100
AcDbEntity
  8
View004
100
AcDbCircle
 10
459.1
 20
39.7615
 40
1.6
  0
CIRCLE
  5
B62
330
A02
100
AcDbEntity
  8
View004
100
AcDbCircle
 10
422.049
 20
70.8743
 40
1.6
  0
CIRCLE
  5
B63
330
A02
100
AcDbEntity
  8
View004
100
AcDbCircle
 10
394.588
 20
81.4153
 40
1.6
  0
CIRCLE
  5
B64
330
A02
100
AcDbEntity
  8
View004
100
AcDbCircle
 10
365.394
 20
85
 40
1.6
  0
CIRCLE
  5
B65
330
A02
100
AcDbEntity
  8
View004
100
AcDbCircle
 10
336.199
 20
81.4153
 40
1.6
  0
CIRCLE
  5
B66
330
A02
100
AcDbEntity
  8
View004
100
AcDbCircle
 10
435
 20
100
 40
8.5
  0
CIRCLE
  5
B67
330
A02
100
AcDbEntity
  8
View004
100
AcDbCircle
 10
455
 20
91
 40
1.6
  0
CIRCLE
  5
B68
330
A02
100
AcDbEntity
  8
View004
100
AcDbCircle
 10
187.27
 20
147.73
 40
3
  0
CIRCLE
  5
B69
330
A02
100
AcDbEntity
  8
View004
100
AcDbCircle
 10
235
 20
167.5
 40
3
  0
CIRCLE
  5
B6A
330
A02
100
AcDbEntity
  8
View004
100
AcDbCircle
 10
282.73
 20
147.73
 40
3
  0
CIRCLE
  5
B6B
330
A02
100
AcDbEntity
  8
View004
100
AcDbCircle
 10
308.738
 20
129.126
 40
3
  0
CIRCLE
  5
B6C
330
A02
100
AcDbEntity
  8
View004
100
AcDbCircle
 10
336.199
 20
118.585
 40
3
  0
CIRCLE
  5
B6D
330
A02
100
AcDbEntity
  8
View004
100
AcDbCircle
 10
365.394
 20
115
 40
3
  0
CIRCLE
  5
B6E
330
A02
100
AcDbEntity
  8
View004
100
AcDbCircle
 10
394.588
 20
118.585
 40
3
  0
CIRCLE
  5
B6F
330
A02
100
AcDbEntity
  8
View004
100
AcDbCircle
 10
167.5
 20
100
 40
3
  0
ARC
  5
B70
330
A02
100
AcDbEntity
  8
View004
100
AcDbCircle
 10
167.5
 20
100
 30
0
 40
7.5
100
AcDbArc
 50
-180
 51
-1.04702e-07
  0
ARC
  5
B71
330
A02
100
AcDbEntity
  8
View004
100
AcDbCircle
 10
235
 20
100
 30
0
 40
75
100
AcDbArc
 50
46.1379
 51
-180
  0
ARC
  5
B72
330
A02
100
AcDbEntity
  8
View004
100
AcDbCircle
 10
365.394
 20
235.678
 30
0
 40
113.178
100
AcDbArc
 50
-133.862
 51
-71.906
  0
ARC
  5
B73
330
A02
100
AcDbEntity
  8
View004
100
AcDbCircle
 10
365.394
 20
100
 30
0
 40
45
100
AcDbArc
 50
1.80938e-14
 51
38.6363
  0
LINE
  5
B74
330
A02
100
AcDbEntity
  8
View004
100
AcDbLine
 10
310
 20
100
 30
0
 11
410.394
 21
100
 31
0
  0
ARC
  5
B75
330
A02
100
AcDbEntity
  8
View004
100
AcDbCircle
 10
302.5
 20
100
 30
0
 40
7.5
100
AcDbArc
 50
-180
 51
0
  0
ARC
  5
B76
330
A02
100
AcDbEntity
  8
View004
100
AcDbCircle
 10
235
 20
100
 30
0
 40
60
100
AcDbArc
 50
-2.24067e-07
 51
-180
  0
CIRCLE
  5
B77
330
A02
100
AcDbEntity
  8
View004
100
AcDbCircle
 10
187.27
 20
147.73
 40
1.6
  0
CIRCLE
  5
B78
330
A02
100
AcDbEntity
  8
View004
100
AcDbCircle
 10
235
 20
167.5
 40
1.6
  0
CIRCLE
  5
B79
330
A02
100
AcDbEntity
  8
View004
100
AcDbCircle
 10
282.73
 20
147.73
 40
1.6
  0
CIRCLE
  5
B7A
330
A02
100
AcDbEntity
  8
View004
100
AcDbCircle
 10
308.738
 20
129.126
 40
1.6
  0
CIRCLE
  5
B7B
330
A02
100
AcDbEntity
  8
View004
100
AcDbCircle
 10
365.394
 20
115
 40
1.6
  0
CIRCLE
  5
B7C
330
A02
100
AcDbEntity
  8
View004
100
AcDbCircle
 10
394.588
 20
118.585
 40
1.6
  0
CIRCLE
  5
B7D
330
A02
100
AcDbEntity
  8
View004
100
AcDbCircle
 10
336.199
 20
118.585
 40
1.6
  0
CIRCLE
  5
B7E
330
A02
100
AcDbEntity
  8
View004
100
AcDbCircle
 10
167.5
 20
100
 40
1.6
  0
CIRCLE
  5
B7F
330
A02
100
AcDbEntity
  8
View004
100
AcDbCircle
 10
187.27
 20
52.2703
 40
3
  0
CIRCLE
  5
B80
330
A02
100
AcDbEntity
  8
View004
100
AcDbCircle
 10
235
 20
32.5
 40
3
  0
CIRCLE
  5
B81
330
A02
100
AcDbEntity
  8
View004
100
AcDbCircle
 10
282.73
 20
52.2703
 40
3
  0
CIRCLE
  5
B82
330
A02
100
AcDbEntity
  8
View004
100
AcDbCircle
 10
308.738
 20
70.8743
 40
3
  0
ARC
  5
B83
330
A02
100
AcDbEntity
  8
View004
100
AcDbCircle
 10
235
 20
100
 30
0
 40
60
100
AcDbArc
 50
-174.032
 51
-5.9681
  0
ARC
  5
B84
330
A02
100
AcDbEntity
  8
View004
100
AcDbCircle
 10
296.167
 20
93.6056
 30
0
 40
1.5
100
AcDbArc
 50
45.2751
 51
174.032
  0
ARC
  5
B85
330
A02
100
AcDbEntity
  8
View004
100
AcDbCircle
 10
302.5
 20
100
 30
0
 40
7.5
100
AcDbArc
 50
-134.725
 51
-1.08563e-13
  0
LINE
  5
B86
330
A02
100
AcDbEntity
  8
View004
100
AcDbLine
 10
310
 20
100
 30
0
 11
320.394
 21
100
 31
0
  0
ARC
  5
B87
330
A02
100
AcDbEntity
  8
View004
100
AcDbCircle
 10
365.394
 20
100
 30
0
 40
45
100
AcDbArc
 50
-180
 51
-141.364
  0
ARC
  5
B88
330
A02
100
AcDbEntity
  8
View004
100
AcDbCircle
 10
365.394
 20
-35.6784
 30
0
 40
113.178
100
AcDbArc
 50
108.094
 51
133.862
  0
ARC
  5
B89
330
A02
100
AcDbEntity
  8
View004
100
AcDbCircle
 10
235
 20
100
 30
0
 40
75
100
AcDbArc
 50
-174.261
 51
-46.1379
  0
LINE
  5
B8A
330
A02
100
AcDbEntity
  8
View004
100
AcDbLine
 10
160.376
 20
92.5
 30
0
 11
167.5
 21
92.5
 31
0
  0
ARC
  5
B8B
330
A02
100
AcDbEntity
  8
View004
100
AcDbCircle
 10
167.5
 20
100
 30
0
 40
7.5
100
AcDbArc
 50
-90
 51
-45.2751
  0
ARC
  5
B8C
330
A02
100
AcDbEntity
  8
View004
100
AcDbCircle
 10
173.833
 20
93.6056
 30
0
 40
1.5
100
AcDbArc
 50
5.9681
 51
134.725
  0
CIRCLE
  5
B8D
330
A02
100
AcDbEntity
  8
View004
100
AcDbCircle
 10
187.27
 20
52.2703
 40
1.6
  0
CIRCLE
  5
B8E
330
A02
100
AcDbEntity
  8
View004
100
AcDbCircle
 10
235
 20
32.5
 40
1.6
  0
CIRCLE
  5
B8F
330
A02
100
AcDbEntity
  8
View004
100
AcDbCircle
 10
282.73
 20
52.2703
 40
1.6
  0
CIRCLE
  5
B90
330
A02
100
AcDbEntity
  8
View004
100
AcDbCircle
 10
308.738
 20
70.8743
 40
1.6
  0
ENDSEC
  0
SECTION
  2
OBJECTS
  0
DICTIONARY
  5
F000
330
0
100
AcDbDictionary
  3
ACAD_GROUP
350
F001
  0
DICTIONARY
  5
F001
330
F000
100
AcDbDictionary
  0
ENDSEC
  0
EOF