999
FreeCAD v2023.1103 14555 (Git shallow)
  0
SECTION
  2
HEADER
  9
$ACADVER
  1
AC1014
  9
$ACADMAINTVER
 70
     9
  9
$DWGCODEPAGE
  3
ANSI_1252
  9
$TEXTSTYLE
  7
STANDARD
  9
$DIMSTYLE
  2
STANDARD
  9
$DIMTXSTY
  7
STANDARD
  9
$CMLSTYLE
  2
STANDARD
  9
$LUNITS
 70
2
  9
$INSUNITS
 70
4
  9
$PEXTMAX
 10
50
 20
50
 30
50
  9
$PEXTMIN
 10
0
 20
0
 30
0
  9
$HANDSEED
  5
FFFF
  0
ENDSEC
  0
SECTION
  2
CLASSES
  0
CLASS
  1
ACDBDICTIONARYWDFLT
  2
AcDbDictionaryWithDefault
  3
ObjectDBX Classes
 90
        0
280
     0
281
     0
  0
CLASS
  1
XRECORD
  2
AcDbXrecord
  3
ObjectDBX Classes
 90
        0
280
     0
281
     0
  0
CLASS
  1
LWPOLYLINE
  2
AcDbPolyline
  3
ObjectDBX Classes
 90
        0
280
     0
281
     1
  0
ENDSEC
  0
SECTION
  2
TABLES
  0
TABLE
  2
VPORT
  5
20
330
0
100
AcDbSymbolTable
 70
     1
  0
VPORT
  5
21
330
20
100
AcDbSymbolTableRecord
100
AcDbViewportTableRecord
  2
*ACTIVE
 70
     0
  0
ENDTAB
  0
TABLE
  2
LTYPE
  5
22
330
0
100
AcDbSymbolTable
 70
     1
  0
LTYPE
  5
23
330
21
100
AcDbSymbolTableRecord
100
AcDbLinetypeTableRecord
  2
BYBLOCK
 70
     0
  3

 72
    65
 73
     0
 40
0.0
  0
LTYPE
  5
24
330
21
100
AcDbSymbolTableRecord
100
AcDbLinetypeTableRecord
  2
BYLAYER
 70
     0
  3

 72
    65
 73
     0
 40
0.0
  0
LTYPE
  5
25
330
21
100
AcDbSymbolTableRecord
100
AcDbLinetypeTableRecord
  2
CONTINUOUS
 70
     0
  3
Solid line
 72
    65
 73
     0
 40
0.0
  0
ENDTAB
  0
TABLE
  2
LAYER
  5
BEC
330
0
100
AcDbSymbolTable
 70
2
  0
LAYER
  5
BED
330
BEC
100
AcDbSymbolTableRecord
100
AcDbLayerTableRecord
  2
0
 70
   0
 62
   7
  6
CONTINUOUS
  0
LAYER
  5
BEE
330
BEC
100
AcDbSymbolTableRecord
100
AcDbLayerTableRecord
  2
View
 70
    0
 62
    7
  6
CONTINUOUS
  0
ENDTAB
  0
TABLE
  2
STYLE
  5
70
330
0
100
AcDbSymbolTable
 70
     2
  0
STYLE
  5
71
330
70
100
AcDbSymbolTableRecord
100
AcDbTextStyleTableRecord
  2
STANDARD
 70
     0
 40
0.0
 41
1.0
 50
0.0
 71
     0
 42
2.5
  3
arial.ttf
  4

  0
STYLE
  5
72
330
70
100
AcDbSymbolTableRecord
100
AcDbTextStyleTableRecord
  2
ANNOTATIVE
 70
     0
 40
0.0
 41
1.0
 50
0.0
 71
     0
 42
2.5
  3
arial.ttf
  4

  0
ENDTAB
  0
TABLE
  2
VIEW
  5
73
330
0
100
AcDbSymbolTable
 70
     0
  0
ENDTAB
  0
TABLE
  2
UCS
  5
74
330
0
100
AcDbSymbolTable
 70
     0
  0
ENDTAB
  0
TABLE
  2
APPID
  5
75
330
0
100
AcDbSymbolTable
 70
     2
  0
APPID
  5
76
330
75
100
AcDbSymbolTableRecord
100
AcDbRegAppTableRecord
  2
ACAD
 70
     0
  0
APPID
  5
77
330
75
100
AcDbSymbolTableRecord
100
AcDbRegAppTableRecord
  2
ACADANNOTATIVE
 70
     0
  0
ENDTAB
  0
TABLE
  2
DIMSTYLE
  5
78
330
0
100
AcDbSymbolTable
 70
     2
  0
DIMSTYLE
105
79
330
78
100
AcDbSymbolTableRecord
100
AcDbDimStyleTableRecord
  2
STANDARD
 70
     0
  3

  4

  5

  6

  7

 40
0.0
 41
2.5
 42
0.625
 43
3.75
 44
1.25
 45
0.0
 46
0.0
 47
0.0
 48
0.0
140
2.5
141
2.5
142
0.0
143
0.03937007874016
144
1.0
145
0.0
146
1.0
147
0.625
 71
     0
 72
     0
 73
     0
 74
     0
 75
     0
 76
     0
 77
     1
 78
     8
170
     0
171
     3
172
     1
173
     0
174
     0
175
     0
176
     0
177
     0
178
     0
270
     2
271
     2
272
     2
273
     2
274
     3
340
71
275
     0
280
     0
281
     0
282
     0
283
     0
284
     8
285
     0
286
     0
287
     3
288
     0
  0
ENDTAB
  0
TABLE
  2
BLOCK_RECORD
  5
A01
330
0
100
AcDbSymbolTable
  70
5
  0
BLOCK_RECORD
  5
A02
330
A01
100
AcDbSymbolTableRecord
100
AcDbBlockTableRecord
  2
*MODEL_SPACE
  0
BLOCK_RECORD
  5
A03
330
A01
100
AcDbSymbolTableRecord
100
AcDbBlockTableRecord
  2
*PAPER_SPACE
  0
ENDTAB
  0
ENDSEC
  0
SECTION
  2
BLOCKS
  0
BLOCK
  5
A04
330
A02
100
AcDbEntity
  8
0
100
AcDbBlockBegin
  2
*MODEL_SPACE
 70
   0
 10
0
 20
0
 30
0
  3
*MODEL_SPACE
  1
 
  0
ENDBLK
  5
A05
330
A02
100
AcDbEntity
  8
0
100
AcDbBlockEnd
  0
BLOCK
  5
A06
330
A03
100
AcDbEntity
 67
1
  8
0
100
AcDbBlockBegin
  2
*PAPER_SPACE
 70
   0
 10
0
 20
0
 30
0
  3
*PAPER_SPACE
  1
 
  0
ENDBLK
  5
A07
330
A03
100
AcDbEntity
 67
    1
  8
0
100
AcDbBlockEnd
  0
ENDSEC
  0
SECTION
  2
ENTITIES
  0
LINE
  5
A08
330
A02
100
AcDbEntity
  8
View
100
AcDbLine
 10
441.124
 20
312.5
 30
0
 11
434
 21
312.5
 31
0
  0
ARC
  5
A09
330
A02
100
AcDbEntity
  8
View
100
AcDbCircle
 10
366.5
 20
320
 30
0
 40
75
100
AcDbArc
 50
-133.862
 51
-5.73917
  0
ARC
  5
A0A
330
A02
100
AcDbEntity
  8
View
100
AcDbCircle
 10
434
 20
320
 30
0
 40
7.5
100
AcDbArc
 50
-134.725
 51
-90
  0
ARC
  5
A0B
330
A02
100
AcDbEntity
  8
View
100
AcDbCircle
 10
236.106
 20
184.322
 30
0
 40
113.178
100
AcDbArc
 50
46.1379
 51
71.906
  0
ARC
  5
A0C
330
A02
100
AcDbEntity
  8
View
100
AcDbCircle
 10
427.667
 20
313.606
 30
0
 40
1.5
100
AcDbArc
 50
45.2751
 51
174.032
  0
ARC
  5
A0D
330
A02
100
AcDbEntity
  8
View
100
AcDbCircle
 10
236.106
 20
320
 30
0
 40
45
100
AcDbArc
 50
-38.6363
 51
0
  0
ARC
  5
A0E
330
A02
100
AcDbEntity
  8
View
100
AcDbCircle
 10
366.5
 20
320
 30
0
 40
60
100
AcDbArc
 50
-174.032
 51
-5.9681
  0
LINE
  5
A0F
330
A02
100
AcDbEntity
  8
View
100
AcDbLine
 10
291.5
 20
320
 30
0
 11
281.106
 21
320
 31
0
  0
ARC
  5
A10
330
A02
100
AcDbEntity
  8
View
100
AcDbCircle
 10
305.333
 20
313.606
 30
0
 40
1.5
100
AcDbArc
 50
5.9681
 51
134.725
  0
ARC
  5
A11
330
A02
100
AcDbEntity
  8
View
100
AcDbCircle
 10
299
 20
320
 30
0
 40
7.5
100
AcDbArc
 50
180
 51
-45.2751
  0
LINE
  5
A12
330
A02
100
AcDbEntity
  8
View
100
AcDbLine
 10
292.651
 20
294.048
 30
0
 11
289.958
 21
292.365
 31
0
  0
LINE
  5
A13
330
A02
100
AcDbEntity
  8
View
100
AcDbLine
 10
295.454
 20
292.557
 30
0
 11
292.651
 21
294.048
 31
0
  0
LINE
  5
A14
330
A02
100
AcDbEntity
  8
View
100
AcDbLine
 10
295.565
 20
289.384
 30
0
 11
295.454
 21
292.557
 31
0
  0
LINE
  5
A15
330
A02
100
AcDbEntity
  8
View
100
AcDbLine
 10
292.872
 20
287.701
 30
0
 11
295.565
 21
289.384
 31
0
  0
LINE
  5
A16
330
A02
100
AcDbEntity
  8
View
100
AcDbLine
 10
290.069
 20
289.192
 30
0
 11
292.872
 21
287.701
 31
0
  0
LINE
  5
A17
330
A02
100
AcDbEntity
  8
View
100
AcDbLine
 10
289.958
 20
292.365
 30
0
 11
290.069
 21
289.192
 31
0
  0
LINE
  5
A18
330
A02
100
AcDbEntity
  8
View
100
AcDbLine
 10
319.592
 20
275.338
 30
0
 11
316.525
 21
274.516
 31
0
  0
LINE
  5
A19
330
A02
100
AcDbEntity
  8
View
100
AcDbLine
 10
321.838
 20
273.092
 30
0
 11
319.592
 21
275.338
 31
0
  0
LINE
  5
A1A
330
A02
100
AcDbEntity
  8
View
100
AcDbLine
 10
321.016
 20
270.025
 30
0
 11
321.838
 21
273.092
 31
0
  0
LINE
  5
A1B
330
A02
100
AcDbEntity
  8
View
100
AcDbLine
 10
317.948
 20
269.203
 30
0
 11
321.016
 21
270.025
 31
0
  0
LINE
  5
A1C
330
A02
100
AcDbEntity
  8
View
100
AcDbLine
 10
315.703
 20
271.448
 30
0
 11
317.948
 21
269.203
 31
0
  0
LINE
  5
A1D
330
A02
100
AcDbEntity
  8
View
100
AcDbLine
 10
316.525
 20
274.516
 30
0
 11
315.703
 21
271.448
 31
0
  0
LINE
  5
A1E
330
A02
100
AcDbEntity
  8
View
100
AcDbLine
 10
413.408
 20
275.338
 30
0
 11
411.162
 21
273.092
 31
0
  0
LINE
  5
A1F
330
A02
100
AcDbEntity
  8
View
100
AcDbLine
 10
416.475
 20
274.516
 30
0
 11
413.408
 21
275.338
 31
0
  0
LINE
  5
A20
330
A02
100
AcDbEntity
  8
View
100
AcDbLine
 10
417.297
 20
271.448
 30
0
 11
416.475
 21
274.516
 31
0
  0
LINE
  5
A21
330
A02
100
AcDbEntity
  8
View
100
AcDbLine
 10
415.052
 20
269.203
 30
0
 11
417.297
 21
271.448
 31
0
  0
LINE
  5
A22
330
A02
100
AcDbEntity
  8
View
100
AcDbLine
 10
411.984
 20
270.025
 30
0
 11
415.052
 21
269.203
 31
0
  0
LINE
  5
A23
330
A02
100
AcDbEntity
  8
View
100
AcDbLine
 10
411.162
 20
273.092
 30
0
 11
411.984
 21
270.025
 31
0
  0
LINE
  5
A24
330
A02
100
AcDbEntity
  8
View
100
AcDbLine
 10
364.912
 20
255.25
 30
0
 11
363.325
 21
252.5
 31
0
  0
LINE
  5
A25
330
A02
100
AcDbEntity
  8
View
100
AcDbLine
 10
368.088
 20
255.25
 30
0
 11
364.912
 21
255.25
 31
0
  0
LINE
  5
A26
330
A02
100
AcDbEntity
  8
View
100
AcDbLine
 10
369.675
 20
252.5
 30
0
 11
368.088
 21
255.25
 31
0
  0
LINE
  5
A27
330
A02
100
AcDbEntity
  8
View
100
AcDbLine
 10
368.088
 20
249.75
 30
0
 11
369.675
 21
252.5
 31
0
  0
LINE
  5
A28
330
A02
100
AcDbEntity
  8
View
100
AcDbLine
 10
364.912
 20
249.75
 30
0
 11
368.088
 21
249.75
 31
0
  0
LINE
  5
A29
330
A02
100
AcDbEntity
  8
View
100
AcDbLine
 10
363.325
 20
252.5
 30
0
 11
364.912
 21
249.75
 31
0
  0
CIRCLE
  5
A2A
330
A02
100
AcDbEntity
  8
View
100
AcDbCircle
 10
414.23
 20
272.27
 40
1.6
  0
CIRCLE
  5
A2B
330
A02
100
AcDbEntity
  8
View
100
AcDbCircle
 10
366.5
 20
252.5
 40
1.6
  0
CIRCLE
  5
A2C
330
A02
100
AcDbEntity
  8
View
100
AcDbCircle
 10
318.77
 20
272.27
 40
1.6
  0
CIRCLE
  5
A2D
330
A02
100
AcDbEntity
  8
View
100
AcDbCircle
 10
292.762
 20
290.874
 40
1.6
  0
ARC
  5
A2E
330
A02
100
AcDbEntity
  8
View
100
AcDbCircle
 10
434
 20
326
 30
0
 40
7.5
100
AcDbArc
 50
-180
 51
-1.16107e-06
  0
ARC
  5
A2F
330
A02
100
AcDbEntity
  8
View
100
AcDbCircle
 10
366.5
 20
326
 30
0
 40
60
100
AcDbArc
 50
-1.30878e-08
 51
-180
  0
ARC
  5
A30
330
A02
100
AcDbEntity
  8
View
100
AcDbCircle
 10
366.5
 20
326
 30
0
 40
75
100
AcDbArc
 50
-1.16107e-07
 51
133.862
  0
ARC
  5
A31
330
A02
100
AcDbEntity
  8
View
100
AcDbCircle
 10
299
 20
326
 30
0
 40
7.5
100
AcDbArc
 50
180
 51
-1.79253e-06
  0
ARC
  5
A32
330
A02
100
AcDbEntity
  8
View
100
AcDbCircle
 10
236.106
 20
461.678
 30
0
 40
113.178
100
AcDbArc
 50
-108.094
 51
-46.1378
  0
LINE
  5
A33
330
A02
100
AcDbEntity
  8
View
100
AcDbLine
 10
291.5
 20
326
 30
0
 11
191.106
 21
326
 31
0
  0
ARC
  5
A34
330
A02
100
AcDbEntity
  8
View
100
AcDbCircle
 10
236.106
 20
326
 30
0
 40
45
100
AcDbArc
 50
141.364
 51
180
  0
LINE
  5
A35
330
A02
100
AcDbEntity
  8
View
100
AcDbLine
 10
315.703
 20
374.552
 30
0
 11
316.525
 21
371.484
 31
0
  0
LINE
  5
A36
330
A02
100
AcDbEntity
  8
View
100
AcDbLine
 10
317.948
 20
376.797
 30
0
 11
315.703
 21
374.552
 31
0
  0
LINE
  5
A37
330
A02
100
AcDbEntity
  8
View
100
AcDbLine
 10
321.016
 20
375.975
 30
0
 11
317.948
 21
376.797
 31
0
  0
LINE
  5
A38
330
A02
100
AcDbEntity
  8
View
100
AcDbLine
 10
321.838
 20
372.908
 30
0
 11
321.016
 21
375.975
 31
0
  0
LINE
  5
A39
330
A02
100
AcDbEntity
  8
View
100
AcDbLine
 10
319.592
 20
370.662
 30
0
 11
321.838
 21
372.908
 31
0
  0
LINE
  5
A3A
330
A02
100
AcDbEntity
  8
View
100
AcDbLine
 10
316.525
 20
371.484
 30
0
 11
319.592
 21
370.662
 31
0
  0
LINE
  5
A3B
330
A02
100
AcDbEntity
  8
View
100
AcDbLine
 10
364.912
 20
396.25
 30
0
 11
363.325
 21
393.5
 31
0
  0
LINE
  5
A3C
330
A02
100
AcDbEntity
  8
View
100
AcDbLine
 10
368.088
 20
396.25
 30
0
 11
364.912
 21
396.25
 31
0
  0
LINE
  5
A3D
330
A02
100
AcDbEntity
  8
View
100
AcDbLine
 10
369.675
 20
393.5
 30
0
 11
368.088
 21
396.25
 31
0
  0
LINE
  5
A3E
330
A02
100
AcDbEntity
  8
View
100
AcDbLine
 10
368.088
 20
390.75
 30
0
 11
369.675
 21
393.5
 31
0
  0
LINE
  5
A3F
330
A02
100
AcDbEntity
  8
View
100
AcDbLine
 10
364.912
 20
390.75
 30
0
 11
368.088
 21
390.75
 31
0
  0
LINE
  5
A40
330
A02
100
AcDbEntity
  8
View
100
AcDbLine
 10
363.325
 20
393.5
 30
0
 11
364.912
 21
390.75
 31
0
  0
LINE
  5
A41
330
A02
100
AcDbEntity
  8
View
100
AcDbLine
 10
415.052
 20
376.797
 30
0
 11
411.984
 21
375.975
 31
0
  0
LINE
  5
A42
330
A02
100
AcDbEntity
  8
View
100
AcDbLine
 10
417.297
 20
374.552
 30
0
 11
415.052
 21
376.797
 31
0
  0
LINE
  5
A43
330
A02
100
AcDbEntity
  8
View
100
AcDbLine
 10
416.475
 20
371.484
 30
0
 11
417.297
 21
374.552
 31
0
  0
LINE
  5
A44
330
A02
100
AcDbEntity
  8
View
100
AcDbLine
 10
413.408
 20
370.662
 30
0
 11
416.475
 21
371.484
 31
0
  0
LINE
  5
A45
330
A02
100
AcDbEntity
  8
View
100
AcDbLine
 10
411.162
 20
372.908
 30
0
 11
413.408
 21
370.662
 31
0
  0
LINE
  5
A46
330
A02
100
AcDbEntity
  8
View
100
AcDbLine
 10
411.984
 20
375.975
 30
0
 11
411.162
 21
372.908
 31
0
  0
LINE
  5
A47
330
A02
100
AcDbEntity
  8
View
100
AcDbLine
 10
207.787
 20
341.532
 30
0
 11
209.993
 21
343.816
 31
0
  0
LINE
  5
A48
330
A02
100
AcDbEntity
  8
View
100
AcDbLine
 10
204.706
 20
342.3
 30
0
 11
207.787
 21
341.532
 31
0
  0
LINE
  5
A49
330
A02
100
AcDbEntity
  8
View
100
AcDbLine
 10
203.831
 20
345.353
 30
0
 11
204.706
 21
342.3
 31
0
  0
LINE
  5
A4A
330
A02
100
AcDbEntity
  8
View
100
AcDbLine
 10
206.036
 20
347.637
 30
0
 11
203.831
 21
345.353
 31
0
  0
LINE
  5
A4B
330
A02
100
AcDbEntity
  8
View
100
AcDbLine
 10
209.118
 20
346.869
 30
0
 11
206.036
 21
347.637
 31
0
  0
LINE
  5
A4C
330
A02
100
AcDbEntity
  8
View
100
AcDbLine
 10
209.993
 20
343.816
 30
0
 11
209.118
 21
346.869
 31
0
  0
LINE
  5
A4D
330
A02
100
AcDbEntity
  8
View
100
AcDbLine
 10
289.958
 20
353.635
 30
0
 11
292.651
 21
351.952
 31
0
  0
LINE
  5
A4E
330
A02
100
AcDbEntity
  8
View
100
AcDbLine
 10
290.069
 20
356.808
 30
0
 11
289.958
 21
353.635
 31
0
  0
LINE
  5
A4F
330
A02
100
AcDbEntity
  8
View
100
AcDbLine
 10
292.872
 20
358.299
 30
0
 11
290.069
 21
356.808
 31
0
  0
LINE
  5
A50
330
A02
100
AcDbEntity
  8
View
100
AcDbLine
 10
295.565
 20
356.616
 30
0
 11
292.872
 21
358.299
 31
0
  0
LINE
  5
A51
330
A02
100
AcDbEntity
  8
View
100
AcDbLine
 10
295.454
 20
353.443
 30
0
 11
295.565
 21
356.616
 31
0
  0
LINE
  5
A52
330
A02
100
AcDbEntity
  8
View
100
AcDbLine
 10
292.651
 20
351.952
 30
0
 11
295.454
 21
353.443
 31
0
  0
LINE
  5
A53
330
A02
100
AcDbEntity
  8
View
100
AcDbLine
 10
263.095
 20
346.869
 30
0
 11
262.22
 21
343.816
 31
0
  0
LINE
  5
A54
330
A02
100
AcDbEntity
  8
View
100
AcDbLine
 10
266.176
 20
347.637
 30
0
 11
263.095
 21
346.869
 31
0
  0
LINE
  5
A55
330
A02
100
AcDbEntity
  8
View
100
AcDbLine
 10
268.382
 20
345.353
 30
0
 11
266.176
 21
347.637
 31
0
  0
LINE
  5
A56
330
A02
100
AcDbEntity
  8
View
100
AcDbLine
 10
267.507
 20
342.3
 30
0
 11
268.382
 21
345.353
 31
0
  0
LINE
  5
A57
330
A02
100
AcDbEntity
  8
View
100
AcDbLine
 10
264.426
 20
341.532
 30
0
 11
267.507
 21
342.3
 31
0
  0
LINE
  5
A58
330
A02
100
AcDbEntity
  8
View
100
AcDbLine
 10
262.22
 20
343.816
 30
0
 11
264.426
 21
341.532
 31
0
  0
LINE
  5
A59
330
A02
100
AcDbEntity
  8
View
100
AcDbLine
 10
237.694
 20
338.25
 30
0
 11
239.282
 21
341
 31
0
  0
LINE
  5
A5A
330
A02
100
AcDbEntity
  8
View
100
AcDbLine
 10
234.519
 20
338.25
 30
0
 11
237.694
 21
338.25
 31
0
  0
LINE
  5
A5B
330
A02
100
AcDbEntity
  8
View
100
AcDbLine
 10
232.931
 20
341
 30
0
 11
234.519
 21
338.25
 31
0
  0
LINE
  5
A5C
330
A02
100
AcDbEntity
  8
View
100
AcDbLine
 10
234.519
 20
343.75
 30
0
 11
232.931
 21
341
 31
0
  0
LINE
  5
A5D
330
A02
100
AcDbEntity
  8
View
100
AcDbLine
 10
237.694
 20
343.75
 30
0
 11
234.519
 21
343.75
 31
0
  0
LINE
  5
A5E
330
A02
100
AcDbEntity
  8
View
100
AcDbLine
 10
239.282
 20
341
 30
0
 11
237.694
 21
343.75
 31
0
  0
LINE
  5
A5F
330
A02
100
AcDbEntity
  8
View
100
AcDbLine
 10
436.75
 20
327.588
 30
0
 11
434
 21
329.175
 31
0
  0
LINE
  5
A60
330
A02
100
AcDbEntity
  8
View
100
AcDbLine
 10
436.75
 20
324.412
 30
0
 11
436.75
 21
327.588
 31
0
  0
LINE
  5
A61
330
A02
100
AcDbEntity
  8
View
100
AcDbLine
 10
434
 20
322.825
 30
0
 11
436.75
 21
324.412
 31
0
  0
LINE
  5
A62
330
A02
100
AcDbEntity
  8
View
100
AcDbLine
 10
431.25
 20
324.412
 30
0
 11
434
 21
322.825
 31
0
  0
LINE
  5
A63
330
A02
100
AcDbEntity
  8
View
100
AcDbLine
 10
431.25
 20
327.588
 30
0
 11
431.25
 21
324.412
 31
0
  0
LINE
  5
A64
330
A02
100
AcDbEntity
  8
View
100
AcDbLine
 10
434
 20
329.175
 30
0
 11
431.25
 21
327.588
 31
0
  0
CIRCLE
  5
A65
330
A02
100
AcDbEntity
  8
View
100
AcDbCircle
 10
434
 20
326
 40
1.6
  0
CIRCLE
  5
A66
330
A02
100
AcDbEntity
  8
View
100
AcDbCircle
 10
414.23
 20
373.73
 40
1.6
  0
CIRCLE
  5
A67
330
A02
100
AcDbEntity
  8
View
100
AcDbCircle
 10
366.5
 20
393.5
 40
1.6
  0
CIRCLE
  5
A68
330
A02
100
AcDbEntity
  8
View
100
AcDbCircle
 10
318.77
 20
373.73
 40
1.6
  0
CIRCLE
  5
A69
330
A02
100
AcDbEntity
  8
View
100
AcDbCircle
 10
292.762
 20
355.126
 40
1.6
  0
CIRCLE
  5
A6A
330
A02
100
AcDbEntity
  8
View
100
AcDbCircle
 10
265.301
 20
344.585
 40
1.6
  0
CIRCLE
  5
A6B
330
A02
100
AcDbEntity
  8
View
100
AcDbCircle
 10
236.106
 20
341
 40
1.6
  0
CIRCLE
  5
A6C
330
A02
100
AcDbEntity
  8
View
100
AcDbCircle
 10
206.912
 20
344.585
 40
1.6
  0
ARC
  5
A6D
330
A02
100
AcDbEntity
  8
View
100
AcDbCircle
 10
230.106
 20
317
 30
0
 40
45
100
AcDbArc
 50
-38.6363
 51
0
  0
LINE
  5
A6E
330
A02
100
AcDbEntity
  8
View
100
AcDbLine
 10
275.106
 20
317
 30
0
 11
178
 21
317
 31
0
  0
ARC
  5
A6F
330
A02
100
AcDbEntity
  8
View
100
AcDbCircle
 10
230.106
 20
181.322
 30
0
 40
113.178
100
AcDbArc
 50
71.906
 51
145.022
  0
ARC
  5
A70
330
A02
100
AcDbEntity
  8
View
100
AcDbCircle
 10
160.5
 20
317
 30
0
 40
17.5
100
AcDbArc
 50
0
 51
180
  0
ARC
  5
A71
330
A02
100
AcDbEntity
  8
View
100
AcDbCircle
 10
100.5
 20
272
 30
0
 40
45
100
AcDbArc
 50
-143
 51
-34.9783
  0
LINE
  5
A72
330
A02
100
AcDbEntity
  8
View
100
AcDbLine
 10
143
 20
317
 30
0
 11
136.439
 21
317
 31
0
  0
ARC
  5
A73
330
A02
100
AcDbEntity
  8
View
100
AcDbCircle
 10
69.3532
 20
248.529
 30
0
 40
6
100
AcDbArc
 50
37
 51
-143
  0
LINE
  5
A74
330
A02
100
AcDbEntity
  8
View
100
AcDbLine
 10
136.439
 20
299.082
 30
0
 11
136.439
 21
317
 31
0
  0
LINE
  5
A75
330
A02
100
AcDbEntity
  8
View
100
AcDbLine
 10
75.7423
 20
253.344
 30
0
 11
74.145
 21
252.14
 31
0
  0
ARC
  5
A76
330
A02
100
AcDbEntity
  8
View
100
AcDbCircle
 10
131.647
 20
295.471
 30
0
 40
6
100
AcDbArc
 50
37
 51
-143
  0
ARC
  5
A77
330
A02
100
AcDbEntity
  8
View
100
AcDbCircle
 10
100.5
 20
272
 30
0
 40
31
100
AcDbArc
 50
-143
 51
37
  0
LINE
  5
A78
330
A02
100
AcDbEntity
  8
View
100
AcDbLine
 10
125.258
 20
290.656
 30
0
 11
126.855
 21
291.86
 31
0
  0
CIRCLE
  5
A79
330
A02
100
AcDbEntity
  8
View
100
AcDbCircle
 10
160.5
 20
317
 40
8.5
  0
LINE
  5
A7A
330
A02
100
AcDbEntity
  8
View
100
AcDbLine
 10
137.75
 20
309.588
 30
0
 11
137.75
 21
306.412
 31
0
  0
LINE
  5
A7B
330
A02
100
AcDbEntity
  8
View
100
AcDbLine
 10
140.5
 20
311.175
 30
0
 11
137.75
 21
309.588
 31
0
  0
LINE
  5
A7C
330
A02
100
AcDbEntity
  8
View
100
AcDbLine
 10
143.25
 20
309.588
 30
0
 11
140.5
 21
311.175
 31
0
  0
LINE
  5
A7D
330
A02
100
AcDbEntity
  8
View
100
AcDbLine
 10
143.25
 20
306.412
 30
0
 11
143.25
 21
309.588
 31
0
  0
LINE
  5
A7E
330
A02
100
AcDbEntity
  8
View
100
AcDbLine
 10
140.5
 20
304.825
 30
0
 11
143.25
 21
306.412
 31
0
  0
LINE
  5
A7F
330
A02
100
AcDbEntity
  8
View
100
AcDbLine
 10
137.75
 20
306.412
 30
0
 11
140.5
 21
304.825
 31
0
  0
LINE
  5
A80
330
A02
100
AcDbEntity
  8
View
100
AcDbLine
 10
231.694
 20
299.25
 30
0
 11
233.282
 21
302
 31
0
  0
LINE
  5
A81
330
A02
100
AcDbEntity
  8
View
100
AcDbLine
 10
228.519
 20
299.25
 30
0
 11
231.694
 21
299.25
 31
0
  0
LINE
  5
A82
330
A02
100
AcDbEntity
  8
View
100
AcDbLine
 10
226.931
 20
302
 30
0
 11
228.519
 21
299.25
 31
0
  0
LINE
  5
A83
330
A02
100
AcDbEntity
  8
View
100
AcDbLine
 10
228.519
 20
304.75
 30
0
 11
226.931
 21
302
 31
0
  0
LINE
  5
A84
330
A02
100
AcDbEntity
  8
View
100
AcDbLine
 10
231.694
 20
304.75
 30
0
 11
228.519
 21
304.75
 31
0
  0
LINE
  5
A85
330
A02
100
AcDbEntity
  8
View
100
AcDbLine
 10
233.282
 20
302
 30
0
 11
231.694
 21
304.75
 31
0
  0
LINE
  5
A86
330
A02
100
AcDbEntity
  8
View
100
AcDbLine
 10
203.118
 20
296.131
 30
0
 11
203.993
 21
299.184
 31
0
  0
LINE
  5
A87
330
A02
100
AcDbEntity
  8
View
100
AcDbLine
 10
200.036
 20
295.363
 30
0
 11
203.118
 21
296.131
 31
0
  0
LINE
  5
A88
330
A02
100
AcDbEntity
  8
View
100
AcDbLine
 10
197.831
 20
297.647
 30
0
 11
200.036
 21
295.363
 31
0
  0
LINE
  5
A89
330
A02
100
AcDbEntity
  8
View
100
AcDbLine
 10
198.706
 20
300.7
 30
0
 11
197.831
 21
297.647
 31
0
  0
LINE
  5
A8A
330
A02
100
AcDbEntity
  8
View
100
AcDbLine
 10
201.787
 20
301.468
 30
0
 11
198.706
 21
300.7
 31
0
  0
LINE
  5
A8B
330
A02
100
AcDbEntity
  8
View
100
AcDbLine
 10
203.993
 20
299.184
 30
0
 11
201.787
 21
301.468
 31
0
  0
LINE
  5
A8C
330
A02
100
AcDbEntity
  8
View
100
AcDbLine
 10
176.144
 20
286.192
 30
0
 11
176.255
 21
289.365
 31
0
  0
LINE
  5
A8D
330
A02
100
AcDbEntity
  8
View
100
AcDbLine
 10
173.341
 20
284.701
 30
0
 11
176.144
 21
286.192
 31
0
  0
LINE
  5
A8E
330
A02
100
AcDbEntity
  8
View
100
AcDbLine
 10
170.648
 20
286.384
 30
0
 11
173.341
 21
284.701
 31
0
  0
LINE
  5
A8F
330
A02
100
AcDbEntity
  8
View
100
AcDbLine
 10
170.758
 20
289.557
 30
0
 11
170.648
 21
286.384
 31
0
  0
LINE
  5
A90
330
A02
100
AcDbEntity
  8
View
100
AcDbLine
 10
173.562
 20
291.048
 30
0
 11
170.758
 21
289.557
 31
0
  0
LINE
  5
A91
330
A02
100
AcDbEntity
  8
View
100
AcDbLine
 10
176.255
 20
289.365
 30
0
 11
173.562
 21
291.048
 31
0
  0
LINE
  5
A92
330
A02
100
AcDbEntity
  8
View
100
AcDbLine
 10
258.426
 20
301.468
 30
0
 11
256.22
 21
299.184
 31
0
  0
LINE
  5
A93
330
A02
100
AcDbEntity
  8
View
100
AcDbLine
 10
261.507
 20
300.7
 30
0
 11
258.426
 21
301.468
 31
0
  0
LINE
  5
A94
330
A02
100
AcDbEntity
  8
View
100
AcDbLine
 10
262.382
 20
297.647
 30
0
 11
261.507
 21
300.7
 31
0
  0
LINE
  5
A95
330
A02
100
AcDbEntity
  8
View
100
AcDbLine
 10
260.176
 20
295.363
 30
0
 11
262.382
 21
297.647
 31
0
  0
LINE
  5
A96
330
A02
100
AcDbEntity
  8
View
100
AcDbLine
 10
257.095
 20
296.131
 30
0
 11
260.176
 21
295.363
 31
0
  0
LINE
  5
A97
330
A02
100
AcDbEntity
  8
View
100
AcDbLine
 10
256.22
 20
299.184
 30
0
 11
257.095
 21
296.131
 31
0
  0
LINE
  5
A98
330
A02
100
AcDbEntity
  8
View
100
AcDbLine
 10
139.551
 20
257.148
 30
0
 11
137.64
 21
259.684
 31
0
  0
LINE
  5
A99
330
A02
100
AcDbEntity
  8
View
100
AcDbLine
 10
138.311
 20
254.225
 30
0
 11
139.551
 21
257.148
 31
0
  0
LINE
  5
A9A
330
A02
100
AcDbEntity
  8
View
100
AcDbLine
 10
135.159
 20
253.838
 30
0
 11
138.311
 21
254.225
 31
0
  0
LINE
  5
A9B
330
A02
100
AcDbEntity
  8
View
100
AcDbLine
 10
133.248
 20
256.374
 30
0
 11
135.159
 21
253.838
 31
0
  0
LINE
  5
A9C
330
A02
100
AcDbEntity
  8
View
100
AcDbLine
 10
134.489
 20
259.297
 30
0
 11
133.248
 21
256.374
 31
0
  0
LINE
  5
A9D
330
A02
100
AcDbEntity
  8
View
100
AcDbLine
 10
137.64
 20
259.684
 30
0
 11
134.489
 21
259.297
 31
0
  0
LINE
  5
A9E
330
A02
100
AcDbEntity
  8
View
100
AcDbLine
 10
70.594
 20
251.452
 30
0
 11
67.4422
 21
251.065
 31
0
  0
LINE
  5
A9F
330
A02
100
AcDbEntity
  8
View
100
AcDbLine
 10
72.505
 20
248.916
 30
0
 11
70.594
 21
251.452
 31
0
  0
LINE
  5
AA0
330
A02
100
AcDbEntity
  8
View
100
AcDbLine
 10
71.2642
 20
245.993
 30
0
 11
72.505
 21
248.916
 31
0
  0
LINE
  5
AA1
330
A02
100
AcDbEntity
  8
View
100
AcDbLine
 10
68.1125
 20
245.606
 30
0
 11
71.2642
 21
245.993
 31
0
  0
LINE
  5
AA2
330
A02
100
AcDbEntity
  8
View
100
AcDbLine
 10
66.2015
 20
248.142
 30
0
 11
68.1125
 21
245.606
 31
0
  0
LINE
  5
AA3
330
A02
100
AcDbEntity
  8
View
100
AcDbLine
 10
67.4422
 20
251.065
 30
0
 11
66.2015
 21
248.142
 31
0
  0
LINE
  5
AA4
330
A02
100
AcDbEntity
  8
View
100
AcDbLine
 10
107.164
 20
230.755
 30
0
 11
108.405
 21
233.678
 31
0
  0
LINE
  5
AA5
330
A02
100
AcDbEntity
  8
View
100
AcDbLine
 10
104.012
 20
230.368
 30
0
 11
107.164
 21
230.755
 31
0
  0
LINE
  5
AA6
330
A02
100
AcDbEntity
  8
View
100
AcDbLine
 10
102.101
 20
232.904
 30
0
 11
104.012
 21
230.368
 31
0
  0
LINE
  5
AA7
330
A02
100
AcDbEntity
  8
View
100
AcDbLine
 10
103.342
 20
235.827
 30
0
 11
102.101
 21
232.904
 31
0
  0
LINE
  5
AA8
330
A02
100
AcDbEntity
  8
View
100
AcDbLine
 10
106.494
 20
236.214
 30
0
 11
103.342
 21
235.827
 31
0
  0
LINE
  5
AA9
330
A02
100
AcDbEntity
  8
View
100
AcDbLine
 10
108.405
 20
233.678
 30
0
 11
106.494
 21
236.214
 31
0
  0
CIRCLE
  5
AAA
330
A02
100
AcDbEntity
  8
View
100
AcDbCircle
 10
259.301
 20
298.415
 40
1.6
  0
CIRCLE
  5
AAB
330
A02
100
AcDbEntity
  8
View
100
AcDbCircle
 10
230.106
 20
302
 40
1.6
  0
CIRCLE
  5
AAC
330
A02
100
AcDbEntity
  8
View
100
AcDbCircle
 10
200.912
 20
298.415
 40
1.6
  0
CIRCLE
  5
AAD
330
A02
100
AcDbEntity
  8
View
100
AcDbCircle
 10
173.451
 20
287.874
 40
1.6
  0
CIRCLE
  5
AAE
330
A02
100
AcDbEntity
  8
View
100
AcDbCircle
 10
136.4
 20
256.761
 40
1.6
  0
CIRCLE
  5
AAF
330
A02
100
AcDbEntity
  8
View
100
AcDbCircle
 10
105.253
 20
233.291
 40
1.6
  0
CIRCLE
  5
AB0
330
A02
100
AcDbEntity
  8
View
100
AcDbCircle
 10
140.5
 20
308
 40
1.6
  0
CIRCLE
  5
AB1
330
A02
100
AcDbEntity
  8
View
100
AcDbCircle
 10
69.3532
 20
248.529
 40
1.6
  0
LINE
  5
AB2
330
A02
100
AcDbEntity
  8
View
100
AcDbLine
 10
136.439
 20
346.918
 30
0
 11
136.439
 21
329
 31
0
  0
ARC
  5
AB3
330
A02
100
AcDbEntity
  8
View
100
AcDbCircle
 10
131.647
 20
350.529
 30
0
 40
6
100
AcDbArc
 50
-37
 51
143
  0
LINE
  5
AB4
330
A02
100
AcDbEntity
  8
View
100
AcDbLine
 10
136.439
 20
329
 30
0
 11
143
 21
329
 31
0
  0
LINE
  5
AB5
330
A02
100
AcDbEntity
  8
View
100
AcDbLine
 10
126.855
 20
354.14
 30
0
 11
125.258
 21
355.344
 31
0
  0
ARC
  5
AB6
330
A02
100
AcDbEntity
  8
View
100
AcDbCircle
 10
160.5
 20
329
 30
0
 40
17.5
100
AcDbArc
 50
0
 51
180
  0
ARC
  5
AB7
330
A02
100
AcDbEntity
  8
View
100
AcDbCircle
 10
100.5
 20
374
 30
0
 40
31
100
AcDbArc
 50
-37
 51
143
  0
LINE
  5
AB8
330
A02
100
AcDbEntity
  8
View
100
AcDbLine
 10
185.106
 20
329
 30
0
 11
178
 21
329
 31
0
  0
LINE
  5
AB9
330
A02
100
AcDbEntity
  8
View
100
AcDbLine
 10
74.145
 20
393.86
 30
0
 11
75.7423
 21
392.656
 31
0
  0
ARC
  5
ABA
330
A02
100
AcDbEntity
  8
View
100
AcDbCircle
 10
230.106
 20
329
 30
0
 40
45
100
AcDbArc
 50
141.364
 51
180
  0
ARC
  5
ABB
330
A02
100
AcDbEntity
  8
View
100
AcDbCircle
 10
69.3532
 20
397.471
 30
0
 40
6
100
AcDbArc
 50
-37
 51
44.1501
  0
ARC
  5
ABC
330
A02
100
AcDbEntity
  8
View
100
AcDbCircle
 10
230.106
 20
464.678
 30
0
 40
113.178
100
AcDbArc
 50
-145.022
 51
-108.094
  0
LINE
  5
ABD
330
A02
100
AcDbEntity
  8
View
100
AcDbLine
 10
69.1557
 20
406.288
 30
0
 11
73.6583
 21
401.65
 31
0
  0
ARC
  5
ABE
330
A02
100
AcDbEntity
  8
View
100
AcDbCircle
 10
100.5
 20
374
 30
0
 40
45
100
AcDbArc
 50
34.9782
 51
134.15
  0
LINE
  5
ABF
330
A02
100
AcDbEntity
  8
View
100
AcDbLine
 10
104.012
 20
415.632
 30
0
 11
102.101
 21
413.096
 31
0
  0
LINE
  5
AC0
330
A02
100
AcDbEntity
  8
View
100
AcDbLine
 10
107.164
 20
415.245
 30
0
 11
104.012
 21
415.632
 31
0
  0
LINE
  5
AC1
330
A02
100
AcDbEntity
  8
View
100
AcDbLine
 10
108.405
 20
412.322
 30
0
 11
107.164
 21
415.245
 31
0
  0
LINE
  5
AC2
330
A02
100
AcDbEntity
  8
View
100
AcDbLine
 10
106.494
 20
409.786
 30
0
 11
108.405
 21
412.322
 31
0
  0
LINE
  5
AC3
330
A02
100
AcDbEntity
  8
View
100
AcDbLine
 10
103.342
 20
410.173
 30
0
 11
106.494
 21
409.786
 31
0
  0
LINE
  5
AC4
330
A02
100
AcDbEntity
  8
View
100
AcDbLine
 10
102.101
 20
413.096
 30
0
 11
103.342
 21
410.173
 31
0
  0
LINE
  5
AC5
330
A02
100
AcDbEntity
  8
View
100
AcDbLine
 10
138.311
 20
391.775
 30
0
 11
135.159
 21
392.162
 31
0
  0
LINE
  5
AC6
330
A02
100
AcDbEntity
  8
View
100
AcDbLine
 10
139.551
 20
388.852
 30
0
 11
138.311
 21
391.775
 31
0
  0
LINE
  5
AC7
330
A02
100
AcDbEntity
  8
View
100
AcDbLine
 10
137.64
 20
386.316
 30
0
 11
139.551
 21
388.852
 31
0
  0
LINE
  5
AC8
330
A02
100
AcDbEntity
  8
View
100
AcDbLine
 10
134.489
 20
386.703
 30
0
 11
137.64
 21
386.316
 31
0
  0
LINE
  5
AC9
330
A02
100
AcDbEntity
  8
View
100
AcDbLine
 10
133.248
 20
389.626
 30
0
 11
134.489
 21
386.703
 31
0
  0
LINE
  5
ACA
330
A02
100
AcDbEntity
  8
View
100
AcDbLine
 10
135.159
 20
392.162
 30
0
 11
133.248
 21
389.626
 31
0
  0
LINE
  5
ACB
330
A02
100
AcDbEntity
  8
View
100
AcDbLine
 10
173.341
 20
361.299
 30
0
 11
170.648
 21
359.616
 31
0
  0
LINE
  5
ACC
330
A02
100
AcDbEntity
  8
View
100
AcDbLine
 10
176.144
 20
359.808
 30
0
 11
173.341
 21
361.299
 31
0
  0
LINE
  5
ACD
330
A02
100
AcDbEntity
  8
View
100
AcDbLine
 10
176.255
 20
356.635
 30
0
 11
176.144
 21
359.808
 31
0
  0
LINE
  5
ACE
330
A02
100
AcDbEntity
  8
View
100
AcDbLine
 10
173.562
 20
354.952
 30
0
 11
176.255
 21
356.635
 31
0
  0
LINE
  5
ACF
330
A02
100
AcDbEntity
  8
View
100
AcDbLine
 10
170.758
 20
356.443
 30
0
 11
173.562
 21
354.952
 31
0
  0
LINE
  5
AD0
330
A02
100
AcDbEntity
  8
View
100
AcDbLine
 10
170.648
 20
359.616
 30
0
 11
170.758
 21
356.443
 31
0
  0
LINE
  5
AD1
330
A02
100
AcDbEntity
  8
View
100
AcDbLine
 10
143.25
 20
339.588
 30
0
 11
140.5
 21
341.175
 31
0
  0
LINE
  5
AD2
330
A02
100
AcDbEntity
  8
View
100
AcDbLine
 10
143.25
 20
336.412
 30
0
 11
143.25
 21
339.588
 31
0
  0
LINE
  5
AD3
330
A02
100
AcDbEntity
  8
View
100
AcDbLine
 10
140.5
 20
334.825
 30
0
 11
143.25
 21
336.412
 31
0
  0
LINE
  5
AD4
330
A02
100
AcDbEntity
  8
View
100
AcDbLine
 10
137.75
 20
336.412
 30
0
 11
140.5
 21
334.825
 31
0
  0
LINE
  5
AD5
330
A02
100
AcDbEntity
  8
View
100
AcDbLine
 10
137.75
 20
339.588
 30
0
 11
137.75
 21
336.412
 31
0
  0
LINE
  5
AD6
330
A02
100
AcDbEntity
  8
View
100
AcDbLine
 10
140.5
 20
341.175
 30
0
 11
137.75
 21
339.588
 31
0
  0
CIRCLE
  5
AD7
330
A02
100
AcDbEntity
  8
View
100
AcDbCircle
 10
136.4
 20
389.239
 40
1.6
  0
CIRCLE
  5
AD8
330
A02
100
AcDbEntity
  8
View
100
AcDbCircle
 10
105.253
 20
412.709
 40
1.6
  0
CIRCLE
  5
AD9
330
A02
100
AcDbEntity
  8
View
100
AcDbCircle
 10
173.451
 20
358.126
 40
1.6
  0
CIRCLE
  5
ADA
330
A02
100
AcDbEntity
  8
View
100
AcDbCircle
 10
140.5
 20
338
 40
1.6
  0
ARC
  5
ADB
330
A02
100
AcDbEntity
  8
View
100
AcDbCircle
 10
128.647
 20
298.471
 30
0
 40
6
100
AcDbArc
 50
63.9657
 51
-143
  0
ARC
  5
ADC
330
A02
100
AcDbEntity
  8
View
100
AcDbCircle
 10
131.939
 20
305.21
 30
0
 40
1.5
100
AcDbArc
 50
-116.034
 51
0
  0
LINE
  5
ADD
330
A02
100
AcDbEntity
  8
View
100
AcDbLine
 10
123.855
 20
294.86
 30
0
 11
122.258
 21
293.656
 31
0
  0
LINE
  5
ADE
330
A02
100
AcDbEntity
  8
View
100
AcDbLine
 10
133.439
 20
305.21
 30
0
 11
133.439
 21
317.586
 31
0
  0
ARC
  5
ADF
330
A02
100
AcDbEntity
  8
View
100
AcDbCircle
 10
97.5
 20
275
 30
0
 40
31
100
AcDbArc
 50
37
 51
-143
  0
ARC
  5
AE0
330
A02
100
AcDbEntity
  8
View
100
AcDbCircle
 10
132.439
 20
317.586
 30
0
 40
1
100
AcDbArc
 50
0
 51
135
  0
LINE
  5
AE1
330
A02
100
AcDbEntity
  8
View
100
AcDbLine
 10
72.7423
 20
256.344
 30
0
 11
71.145
 21
255.14
 31
0
  0
LINE
  5
AE2
330
A02
100
AcDbEntity
  8
View
100
AcDbLine
 10
131.731
 20
318.293
 30
0
 11
130.439
 21
317
 31
0
  0
ARC
  5
AE3
330
A02
100
AcDbEntity
  8
View
100
AcDbCircle
 10
66.3532
 20
251.529
 30
0
 40
6
100
AcDbArc
 50
37
 51
118.15
  0
LINE
  5
AE4
330
A02
100
AcDbEntity
  8
View
100
AcDbLine
 10
130.439
 20
317
 30
0
 11
112.439
 21
320
 31
0
  0
LINE
  5
AE5
330
A02
100
AcDbEntity
  8
View
100
AcDbLine
 10
57.8228
 20
253.77
 30
0
 11
63.5225
 21
256.82
 31
0
  0
LINE
  5
AE6
330
A02
100
AcDbEntity
  8
View
100
AcDbLine
 10
112.439
 20
320
 30
0
 11
97.5
 21
320
 31
0
  0
ARC
  5
AE7
330
A02
100
AcDbEntity
  8
View
100
AcDbCircle
 10
97.5
 20
275
 30
0
 40
45
100
AcDbArc
 50
90
 51
-151.85
  0
LINE
  5
AE8
330
A02
100
AcDbEntity
  8
View
100
AcDbLine
 10
90.8361
 20
316.245
 30
0
 11
89.5953
 21
313.322
 31
0
  0
LINE
  5
AE9
330
A02
100
AcDbEntity
  8
View
100
AcDbLine
 10
93.9878
 20
316.632
 30
0
 11
90.8361
 21
316.245
 31
0
  0
LINE
  5
AEA
330
A02
100
AcDbEntity
  8
View
100
AcDbLine
 10
95.8989
 20
314.096
 30
0
 11
93.9878
 21
316.632
 31
0
  0
LINE
  5
AEB
330
A02
100
AcDbEntity
  8
View
100
AcDbLine
 10
94.6581
 20
311.173
 30
0
 11
95.8989
 21
314.096
 31
0
  0
LINE
  5
AEC
330
A02
100
AcDbEntity
  8
View
100
AcDbLine
 10
91.5064
 20
310.786
 30
0
 11
94.6581
 21
311.173
 31
0
  0
LINE
  5
AED
330
A02
100
AcDbEntity
  8
View
100
AcDbLine
 10
89.5953
 20
313.322
 30
0
 11
91.5064
 21
310.786
 31
0
  0
LINE
  5
AEE
330
A02
100
AcDbEntity
  8
View
100
AcDbLine
 10
58.4486
 20
289.852
 30
0
 11
60.3596
 21
287.316
 31
0
  0
LINE
  5
AEF
330
A02
100
AcDbEntity
  8
View
100
AcDbLine
 10
59.6893
 20
292.775
 30
0
 11
58.4486
 21
289.852
 31
0
  0
LINE
  5
AF0
330
A02
100
AcDbEntity
  8
View
100
AcDbLine
 10
62.841
 20
293.162
 30
0
 11
59.6893
 21
292.775
 31
0
  0
LINE
  5
AF1
330
A02
100
AcDbEntity
  8
View
100
AcDbLine
 10
64.7521
 20
290.626
 30
0
 11
62.841
 21
293.162
 31
0
  0
LINE
  5
AF2
330
A02
100
AcDbEntity
  8
View
100
AcDbLine
 10
63.5113
 20
287.703
 30
0
 11
64.7521
 21
290.626
 31
0
  0
LINE
  5
AF3
330
A02
100
AcDbEntity
  8
View
100
AcDbLine
 10
60.3596
 20
287.316
 30
0
 11
63.5113
 21
287.703
 31
0
  0
CIRCLE
  5
AF4
330
A02
100
AcDbEntity
  8
View
100
AcDbCircle
 10
92.7471
 20
313.709
 40
1.6
  0
CIRCLE
  5
AF5
330
A02
100
AcDbEntity
  8
View
100
AcDbCircle
 10
61.6003
 20
290.239
 40
1.6
  0
LINE
  5
AF6
330
A02
100
AcDbEntity
  8
View
100
AcDbLine
 10
123.855
 20
351.14
 30
0
 11
122.258
 21
352.344
 31
0
  0
ARC
  5
AF7
330
A02
100
AcDbEntity
  8
View
100
AcDbCircle
 10
128.647
 20
347.529
 30
0
 40
6
100
AcDbArc
 50
-37
 51
143
  0
ARC
  5
AF8
330
A02
100
AcDbEntity
  8
View
100
AcDbCircle
 10
97.5
 20
371
 30
0
 40
31
100
AcDbArc
 50
143
 51
-37
  0
LINE
  5
AF9
330
A02
100
AcDbEntity
  8
View
100
AcDbLine
 10
133.439
 20
326
 30
0
 11
133.439
 21
343.918
 31
0
  0
LINE
  5
AFA
330
A02
100
AcDbEntity
  8
View
100
AcDbLine
 10
72.7423
 20
389.656
 30
0
 11
71.145
 21
390.86
 31
0
  0
LINE
  5
AFB
330
A02
100
AcDbEntity
  8
View
100
AcDbLine
 10
133.439
 20
326
 30
0
 11
130.439
 21
323
 31
0
  0
ARC
  5
AFC
330
A02
100
AcDbEntity
  8
View
100
AcDbCircle
 10
66.3532
 20
394.471
 30
0
 40
6
100
AcDbArc
 50
-37
 51
143
  0
LINE
  5
AFD
330
A02
100
AcDbEntity
  8
View
100
AcDbLine
 10
130.439
 20
323
 30
0
 11
112.439
 21
326
 31
0
  0
ARC
  5
AFE
330
A02
100
AcDbEntity
  8
View
100
AcDbCircle
 10
97.5
 20
371
 30
0
 40
45
100
AcDbArc
 50
143
 51
-90
  0
LINE
  5
AFF
330
A02
100
AcDbEntity
  8
View
100
AcDbLine
 10
112.439
 20
326
 30
0
 11
97.5
 21
326
 31
0
  0
LINE
  5
B00
330
A02
100
AcDbEntity
  8
View
100
AcDbLine
 10
63.2015
 20
394.858
 30
0
 11
64.4422
 21
391.935
 31
0
  0
LINE
  5
B01
330
A02
100
AcDbEntity
  8
View
100
AcDbLine
 10
65.1125
 20
397.394
 30
0
 11
63.2015
 21
394.858
 31
0
  0
LINE
  5
B02
330
A02
100
AcDbEntity
  8
View
100
AcDbLine
 10
68.2642
 20
397.007
 30
0
 11
65.1125
 21
397.394
 31
0
  0
LINE
  5
B03
330
A02
100
AcDbEntity
  8
View
100
AcDbLine
 10
69.505
 20
394.084
 30
0
 11
68.2642
 21
397.007
 31
0
  0
LINE
  5
B04
330
A02
100
AcDbEntity
  8
View
100
AcDbLine
 10
67.594
 20
391.548
 30
0
 11
69.505
 21
394.084
 31
0
  0
LINE
  5
B05
330
A02
100
AcDbEntity
  8
View
100
AcDbLine
 10
64.4422
 20
391.935
 30
0
 11
67.594
 21
391.548
 31
0
  0
LINE
  5
B06
330
A02
100
AcDbEntity
  8
View
100
AcDbLine
 10
63.5113
 20
358.297
 30
0
 11
60.3596
 21
358.684
 31
0
  0
LINE
  5
B07
330
A02
100
AcDbEntity
  8
View
100
AcDbLine
 10
64.7521
 20
355.374
 30
0
 11
63.5113
 21
358.297
 31
0
  0
LINE
  5
B08
330
A02
100
AcDbEntity
  8
View
100
AcDbLine
 10
62.841
 20
352.838
 30
0
 11
64.7521
 21
355.374
 31
0
  0
LINE
  5
B09
330
A02
100
AcDbEntity
  8
View
100
AcDbLine
 10
59.6893
 20
353.225
 30
0
 11
62.841
 21
352.838
 31
0
  0
LINE
  5
B0A
330
A02
100
AcDbEntity
  8
View
100
AcDbLine
 10
58.4486
 20
356.148
 30
0
 11
59.6893
 21
353.225
 31
0
  0
LINE
  5
B0B
330
A02
100
AcDbEntity
  8
View
100
AcDbLine
 10
60.3596
 20
358.684
 30
0
 11
58.4486
 21
356.148
 31
0
  0
LINE
  5
B0C
330
A02
100
AcDbEntity
  8
View
100
AcDbLine
 10
91.5064
 20
335.214
 30
0
 11
89.5953
 21
332.678
 31
0
  0
LINE
  5
B0D
330
A02
100
AcDbEntity
  8
View
100
AcDbLine
 10
94.6581
 20
334.827
 30
0
 11
91.5064
 21
335.214
 31
0
  0
LINE
  5
B0E
330
A02
100
AcDbEntity
  8
View
100
AcDbLine
 10
95.8989
 20
331.904
 30
0
 11
94.6581
 21
334.827
 31
0
  0
LINE
  5
B0F
330
A02
100
AcDbEntity
  8
View
100
AcDbLine
 10
93.9878
 20
329.368
 30
0
 11
95.8989
 21
331.904
 31
0
  0
LINE
  5
B10
330
A02
100
AcDbEntity
  8
View
100
AcDbLine
 10
90.8361
 20
329.755
 30
0
 11
93.9878
 21
329.368
 31
0
  0
LINE
  5
B11
330
A02
100
AcDbEntity
  8
View
100
AcDbLine
 10
89.5953
 20
332.678
 30
0
 11
90.8361
 21
329.755
 31
0
  0
CIRCLE
  5
B12
330
A02
100
AcDbEntity
  8
View
100
AcDbCircle
 10
92.7471
 20
332.291
 40
1.6
  0
CIRCLE
  5
B13
330
A02
100
AcDbEntity
  8
View
100
AcDbCircle
 10
61.6003
 20
355.761
 40
1.6
  0
CIRCLE
  5
B14
330
A02
100
AcDbEntity
  8
View
100
AcDbCircle
 10
66.3532
 20
394.471
 40
1.6
  0
ARC
  5
B15
330
A02
100
AcDbEntity
  8
View
100
AcDbCircle
 10
295
 20
213
 30
0
 40
7.5
100
AcDbArc
 50
180
 51
0
  0
LINE
  5
B16
330
A02
100
AcDbEntity
  8
View
100
AcDbLine
 10
302.5
 20
213
 30
0
 11
402.894
 21
213
 31
0
  0
ARC
  5
B17
330
A02
100
AcDbEntity
  8
View
100
AcDbCircle
 10
357.894
 20
213
 30
0
 40
45
100
AcDbArc
 50
-3.61876e-14
 51
38.6363
  0
ARC
  5
B18
330
A02
100
AcDbEntity
  8
View
100
AcDbCircle
 10
357.894
 20
348.678
 30
0
 40
113.178
100
AcDbArc
 50
-133.862
 51
-71.906
  0
ARC
  5
B19
330
A02
100
AcDbEntity
  8
View
100
AcDbCircle
 10
227.5
 20
213
 30
0
 40
75
100
AcDbArc
 50
46.1379
 51
180
  0
ARC
  5
B1A
330
A02
100
AcDbEntity
  8
View
100
AcDbCircle
 10
160
 20
213
 30
0
 40
7.5
100
AcDbArc
 50
180
 51
0
  0
ARC
  5
B1B
330
A02
100
AcDbEntity
  8
View
100
AcDbCircle
 10
227.5
 20
213
 30
0
 40
60
100
AcDbArc
 50
0
 51
180
  0
CIRCLE
  5
B1C
330
A02
100
AcDbEntity
  8
View
100
AcDbCircle
 10
160
 20
213
 40
1.6
  0
CIRCLE
  5
B1D
330
A02
100
AcDbEntity
  8
View
100
AcDbCircle
 10
179.77
 20
260.73
 40
1.6
  0
CIRCLE
  5
B1E
330
A02
100
AcDbEntity
  8
View
100
AcDbCircle
 10
227.5
 20
280.5
 40
1.6
  0
CIRCLE
  5
B1F
330
A02
100
AcDbEntity
  8
View
100
AcDbCircle
 10
275.23
 20
260.73
 40
1.6
  0
CIRCLE
  5
B20
330
A02
100
AcDbEntity
  8
View
100
AcDbCircle
 10
301.238
 20
242.126
 40
1.6
  0
CIRCLE
  5
B21
330
A02
100
AcDbEntity
  8
View
100
AcDbCircle
 10
328.699
 20
231.585
 40
1.6
  0
CIRCLE
  5
B22
330
A02
100
AcDbEntity
  8
View
100
AcDbCircle
 10
357.894
 20
228
 40
1.6
  0
CIRCLE
  5
B23
330
A02
100
AcDbEntity
  8
View
100
AcDbCircle
 10
387.088
 20
231.585
 40
1.6
  0
LINE
  5
B24
330
A02
100
AcDbEntity
  8
View
100
AcDbLine
 10
152.876
 20
199.5
 30
0
 11
160
 21
199.5
 31
0
  0
ARC
  5
B25
330
A02
100
AcDbEntity
  8
View
100
AcDbCircle
 10
160
 20
207
 30
0
 40
7.5
100
AcDbArc
 50
-90
 51
-45.2751
  0
ARC
  5
B26
330
A02
100
AcDbEntity
  8
View
100
AcDbCircle
 10
166.333
 20
200.606
 30
0
 40
1.5
100
AcDbArc
 50
5.9681
 51
134.725
  0
ARC
  5
B27
330
A02
100
AcDbEntity
  8
View
100
AcDbCircle
 10
227.5
 20
207
 30
0
 40
60
100
AcDbArc
 50
-174.032
 51
-5.9681
  0
ARC
  5
B28
330
A02
100
AcDbEntity
  8
View
100
AcDbCircle
 10
288.667
 20
200.606
 30
0
 40
1.5
100
AcDbArc
 50
45.2751
 51
174.032
  0
ARC
  5
B29
330
A02
100
AcDbEntity
  8
View
100
AcDbCircle
 10
295
 20
207
 30
0
 40
7.5
100
AcDbArc
 50
-134.725
 51
0
  0
LINE
  5
B2A
330
A02
100
AcDbEntity
  8
View
100
AcDbLine
 10
302.5
 20
207
 30
0
 11
312.894
 21
207
 31
0
  0
ARC
  5
B2B
330
A02
100
AcDbEntity
  8
View
100
AcDbCircle
 10
357.894
 20
207
 30
0
 40
45
100
AcDbArc
 50
-180
 51
-141.364
  0
ARC
  5
B2C
330
A02
100
AcDbEntity
  8
View
100
AcDbCircle
 10
357.894
 20
71.3216
 30
0
 40
113.178
100
AcDbArc
 50
108.094
 51
133.862
  0
ARC
  5
B2D
330
A02
100
AcDbEntity
  8
View
100
AcDbCircle
 10
227.5
 20
207
 30
0
 40
75
100
AcDbArc
 50
-174.261
 51
-46.1379
  0
CIRCLE
  5
B2E
330
A02
100
AcDbEntity
  8
View
100
AcDbCircle
 10
179.77
 20
159.27
 40
1.6
  0
CIRCLE
  5
B2F
330
A02
100
AcDbEntity
  8
View
100
AcDbCircle
 10
227.5
 20
139.5
 40
1.6
  0
CIRCLE
  5
B30
330
A02
100
AcDbEntity
  8
View
100
AcDbCircle
 10
275.23
 20
159.27
 40
1.6
  0
CIRCLE
  5
B31
330
A02
100
AcDbEntity
  8
View
100
AcDbCircle
 10
301.238
 20
177.874
 40
1.6
  0
ARC
  5
B32
330
A02
100
AcDbEntity
  8
View
100
AcDbCircle
 10
433.5
 20
216
 30
0
 40
17.5
100
AcDbArc
 50
0
 51
180
  0
LINE
  5
B33
330
A02
100
AcDbEntity
  8
View
100
AcDbLine
 10
408.894
 20
216
 30
0
 11
416
 21
216
 31
0
  0
ARC
  5
B34
330
A02
100
AcDbEntity
  8
View
100
AcDbCircle
 10
363.894
 20
216
 30
0
 40
45
100
AcDbArc
 50
-3.61876e-14
 51
38.6363
  0
ARC
  5
B35
330
A02
100
AcDbEntity
  8
View
100
AcDbCircle
 10
363.894
 20
351.678
 30
0
 40
113.178
100
AcDbArc
 50
-71.906
 51
-34.9783
  0
ARC
  5
B36
330
A02
100
AcDbEntity
  8
View
100
AcDbCircle
 10
493.5
 20
261
 30
0
 40
45
100
AcDbArc
 50
45.8499
 51
145.022
  0
LINE
  5
B37
330
A02
100
AcDbEntity
  8
View
100
AcDbLine
 10
520.342
 20
288.65
 30
0
 11
524.844
 21
293.288
 31
0
  0
ARC
  5
B38
330
A02
100
AcDbEntity
  8
View
100
AcDbCircle
 10
524.647
 20
284.471
 30
0
 40
6
100
AcDbArc
 50
135.85
 51
168.417
  0
ARC
  5
B39
330
A02
100
AcDbEntity
  8
View
100
AcDbCircle
 10
517.3
 20
285.977
 30
0
 40
1.5
100
AcDbArc
 50
-133.618
 51
-11.5827
  0
ARC
  5
B3A
330
A02
100
AcDbEntity
  8
View
100
AcDbCircle
 10
493.5
 20
261
 30
0
 40
33
100
AcDbArc
 50
46.3825
 51
-152.382
  0
ARC
  5
B3B
330
A02
100
AcDbEntity
  8
View
100
AcDbCircle
 10
462.931
 20
245.007
 30
0
 40
1.5
100
AcDbArc
 50
-94.4173
 51
27.6175
  0
ARC
  5
B3C
330
A02
100
AcDbEntity
  8
View
100
AcDbCircle
 10
462.353
 20
237.529
 30
0
 40
6
100
AcDbArc
 50
85.5827
 51
-143
  0
LINE
  5
B3D
330
A02
100
AcDbEntity
  8
View
100
AcDbLine
 10
457.561
 20
233.918
 30
0
 11
457.561
 21
216
 31
0
  0
LINE
  5
B3E
330
A02
100
AcDbEntity
  8
View
100
AcDbLine
 10
451
 20
216
 30
0
 11
457.561
 21
216
 31
0
  0
CIRCLE
  5
B3F
330
A02
100
AcDbEntity
  8
View
100
AcDbCircle
 10
420.549
 20
245.126
 40
1.6
  0
CIRCLE
  5
B40
330
A02
100
AcDbEntity
  8
View
100
AcDbCircle
 10
457.6
 20
276.239
 40
1.6
  0
CIRCLE
  5
B41
330
A02
100
AcDbEntity
  8
View
100
AcDbCircle
 10
488.747
 20
299.709
 40
1.6
  0
CIRCLE
  5
B42
330
A02
100
AcDbEntity
  8
View
100
AcDbCircle
 10
453.5
 20
225
 40
1.6
  0
ARC
  5
B43
330
A02
100
AcDbEntity
  8
View
100
AcDbCircle
 10
493.5
 20
159
 30
0
 40
33
100
AcDbArc
 50
143
 51
-37
  0
ARC
  5
B44
330
A02
100
AcDbEntity
  8
View
100
AcDbCircle
 10
524.647
 20
135.529
 30
0
 40
6
100
AcDbArc
 50
-37
 51
143
  0
ARC
  5
B45
330
A02
100
AcDbEntity
  8
View
100
AcDbCircle
 10
493.5
 20
159
 30
0
 40
45
100
AcDbArc
 50
-145.022
 51
-37
  0
ARC
  5
B46
330
A02
100
AcDbEntity
  8
View
100
AcDbCircle
 10
363.894
 20
68.3216
 30
0
 40
113.178
100
AcDbArc
 50
34.9783
 51
108.094
  0
ARC
  5
B47
330
A02
100
AcDbEntity
  8
View
100
AcDbCircle
 10
363.894
 20
204
 30
0
 40
45
100
AcDbArc
 50
-180
 51
-141.364
  0
LINE
  5
B48
330
A02
100
AcDbEntity
  8
View
100
AcDbLine
 10
318.894
 20
204
 30
0
 11
416
 21
204
 31
0
  0
ARC
  5
B49
330
A02
100
AcDbEntity
  8
View
100
AcDbCircle
 10
433.5
 20
204
 30
0
 40
17.5
100
AcDbArc
 50
0
 51
180
  0
LINE
  5
B4A
330
A02
100
AcDbEntity
  8
View
100
AcDbLine
 10
451
 20
204
 30
0
 11
457.561
 21
204
 31
0
  0
LINE
  5
B4B
330
A02
100
AcDbEntity
  8
View
100
AcDbLine
 10
457.561
 20
204
 30
0
 11
457.561
 21
186.082
 31
0
  0
ARC
  5
B4C
330
A02
100
AcDbEntity
  8
View
100
AcDbCircle
 10
462.353
 20
182.471
 30
0
 40
6
100
AcDbArc
 50
-37
 51
143
  0
CIRCLE
  5
B4D
330
A02
100
AcDbEntity
  8
View
100
AcDbCircle
 10
433.5
 20
204
 40
8.5
  0
CIRCLE
  5
B4E
330
A02
100
AcDbEntity
  8
View
100
AcDbCircle
 10
524.647
 20
135.529
 40
1.6
  0
CIRCLE
  5
B4F
330
A02
100
AcDbEntity
  8
View
100
AcDbCircle
 10
457.6
 20
143.761
 40
1.6
  0
CIRCLE
  5
B50
330
A02
100
AcDbEntity
  8
View
100
AcDbCircle
 10
420.549
 20
174.874
 40
1.6
  0
CIRCLE
  5
B51
330
A02
100
AcDbEntity
  8
View
100
AcDbCircle
 10
488.747
 20
120.291
 40
1.6
  0
CIRCLE
  5
B52
330
A02
100
AcDbEntity
  8
View
100
AcDbCircle
 10
334.699
 20
185.415
 40
1.6
  0
CIRCLE
  5
B53
330
A02
100
AcDbEntity
  8
View
100
AcDbCircle
 10
363.894
 20
189
 40
1.6
  0
CIRCLE
  5
B54
330
A02
100
AcDbEntity
  8
View
100
AcDbCircle
 10
393.088
 20
185.415
 40
1.6
  0
CIRCLE
  5
B55
330
A02
100
AcDbEntity
  8
View
100
AcDbCircle
 10
453.5
 20
195
 40
1.6
  0
LINE
  5
B56
330
A02
100
AcDbEntity
  8
View
100
AcDbLine
 10
481.561
 20
213
 30
0
 11
496.5
 21
213
 31
0
  0
ARC
  5
B57
330
A02
100
AcDbEntity
  8
View
100
AcDbCircle
 10
496.5
 20
258
 30
0
 40
45
100
AcDbArc
 50
-90
 51
37
  0
ARC
  5
B58
330
A02
100
AcDbEntity
  8
View
100
AcDbCircle
 10
527.647
 20
281.471
 30
0
 40
6
100
AcDbArc
 50
37
 51
-143
  0
ARC
  5
B59
330
A02
100
AcDbEntity
  8
View
100
AcDbCircle
 10
496.5
 20
258
 30
0
 40
33
100
AcDbArc
 50
-143
 51
37
  0
ARC
  5
B5A
330
A02
100
AcDbEntity
  8
View
100
AcDbCircle
 10
465.353
 20
234.529
 30
0
 40
6
100
AcDbArc
 50
37.0002
 51
-143
  0
LINE
  5
B5B
330
A02
100
AcDbEntity
  8
View
100
AcDbLine
 10
460.561
 20
213
 30
0
 11
460.561
 21
230.918
 31
0
  0
LINE
  5
B5C
330
A02
100
AcDbEntity
  8
View
100
AcDbLine
 10
463.561
 20
210
 30
0
 11
460.561
 21
213
 31
0
  0
LINE
  5
B5D
330
A02
100
AcDbEntity
  8
View
100
AcDbLine
 10
481.561
 20
213
 30
0
 11
463.561
 21
210
 31
0
  0
CIRCLE
  5
B5E
330
A02
100
AcDbEntity
  8
View
100
AcDbCircle
 10
527.647
 20
281.471
 40
1.6
  0
CIRCLE
  5
B5F
330
A02
100
AcDbEntity
  8
View
100
AcDbCircle
 10
501.253
 20
219.291
 40
1.6
  0
CIRCLE
  5
B60
330
A02
100
AcDbEntity
  8
View
100
AcDbCircle
 10
532.4
 20
242.761
 40
1.6
  0
LINE
  5
B61
330
A02
100
AcDbEntity
  8
View
100
AcDbLine
 10
530.477
 20
143.82
 30
0
 11
536.177
 21
140.77
 31
0
  0
ARC
  5
B62
330
A02
100
AcDbEntity
  8
View
100
AcDbCircle
 10
527.647
 20
138.529
 30
0
 40
6
100
AcDbArc
 50
61.8499
 51
94.4173
  0
ARC
  5
B63
330
A02
100
AcDbEntity
  8
View
100
AcDbCircle
 10
527.069
 20
146.007
 30
0
 40
1.5
100
AcDbArc
 50
152.382
 51
-85.5827
  0
ARC
  5
B64
330
A02
100
AcDbEntity
  8
View
100
AcDbCircle
 10
496.5
 20
162
 30
0
 40
33
100
AcDbArc
 50
-27.6175
 51
133.618
  0
ARC
  5
B65
330
A02
100
AcDbEntity
  8
View
100
AcDbCircle
 10
472.7
 20
186.977
 30
0
 40
1.5
100
AcDbArc
 50
-168.417
 51
-46.3825
  0
ARC
  5
B66
330
A02
100
AcDbEntity
  8
View
100
AcDbCircle
 10
465.353
 20
185.471
 30
0
 40
6
100
AcDbArc
 50
11.5827
 51
116.034
  0
ARC
  5
B67
330
A02
100
AcDbEntity
  8
View
100
AcDbCircle
 10
462.061
 20
192.21
 30
0
 40
1.5
100
AcDbArc
 50
180
 51
-63.9657
  0
LINE
  5
B68
330
A02
100
AcDbEntity
  8
View
100
AcDbLine
 10
460.561
 20
192.21
 30
0
 11
460.561
 21
204.586
 31
0
  0
ARC
  5
B69
330
A02
100
AcDbEntity
  8
View
100
AcDbCircle
 10
461.561
 20
204.586
 30
0
 40
1
100
AcDbArc
 50
45
 51
180
  0
LINE
  5
B6A
330
A02
100
AcDbEntity
  8
View
100
AcDbLine
 10
463.561
 20
204
 30
0
 11
462.269
 21
205.293
 31
0
  0
LINE
  5
B6B
330
A02
100
AcDbEntity
  8
View
100
AcDbLine
 10
481.561
 20
207
 30
0
 11
463.561
 21
204
 31
0
  0
LINE
  5
B6C
330
A02
100
AcDbEntity
  8
View
100
AcDbLine
 10
481.561
 20
207
 30
0
 11
496.5
 21
207
 31
0
  0
ARC
  5
B6D
330
A02
100
AcDbEntity
  8
View
100
AcDbCircle
 10
496.5
 20
162
 30
0
 40
45
100
AcDbArc
 50
-28.1501
 51
90
  0
CIRCLE
  5
B6E
330
A02
100
AcDbEntity
  8
View
100
AcDbCircle
 10
532.4
 20
177.239
 40
1.6
  0
CIRCLE
  5
B6F
330
A02
100
AcDbEntity
  8
View
100
AcDbCircle
 10
501.253
 20
200.709
 40
1.6
  0
ARC
  5
B70
330
A02
100
AcDbEntity
  8
View
100
AcDbCircle
 10
366.5
 20
100
 30
0
 40
60
100
AcDbArc
 50
5.9681
 51
174.032
  0
ARC
  5
B71
330
A02
100
AcDbEntity
  8
View
100
AcDbCircle
 10
427.667
 20
106.394
 30
0
 40
1.5
100
AcDbArc
 50
-174.032
 51
-45.2751
  0
ARC
  5
B72
330
A02
100
AcDbEntity
  8
View
100
AcDbCircle
 10
305.333
 20
106.394
 30
0
 40
1.5
100
AcDbArc
 50
-134.725
 51
-5.9681
  0
ARC
  5
B73
330
A02
100
AcDbEntity
  8
View
100
AcDbCircle
 10
434
 20
100
 30
0
 40
7.5
100
AcDbArc
 50
90
 51
134.725
  0
ARC
  5
B74
330
A02
100
AcDbEntity
  8
View
100
AcDbCircle
 10
299
 20
100
 30
0
 40
7.5
100
AcDbArc
 50
45.2751
 51
180
  0
LINE
  5
B75
330
A02
100
AcDbEntity
  8
View
100
AcDbLine
 10
441.124
 20
107.5
 30
0
 11
434
 21
107.5
 31
0
  0
LINE
  5
B76
330
A02
100
AcDbEntity
  8
View
100
AcDbLine
 10
291.5
 20
100
 30
0
 11
281.106
 21
100
 31
0
  0
ARC
  5
B77
330
A02
100
AcDbEntity
  8
View
100
AcDbCircle
 10
366.5
 20
100
 30
0
 40
75
100
AcDbArc
 50
5.73917
 51
133.862
  0
ARC
  5
B78
330
A02
100
AcDbEntity
  8
View
100
AcDbCircle
 10
236.106
 20
100
 30
0
 40
45
100
AcDbArc
 50
1.80938e-14
 51
38.6363
  0
ARC
  5
B79
330
A02
100
AcDbEntity
  8
View
100
AcDbCircle
 10
236.106
 20
235.678
 30
0
 40
113.178
100
AcDbArc
 50
-71.906
 51
-46.1379
  0
CIRCLE
  5
B7A
330
A02
100
AcDbEntity
  8
View
100
AcDbCircle
 10
292.762
 20
129.126
 40
3
  0
CIRCLE
  5
B7B
330
A02
100
AcDbEntity
  8
View
100
AcDbCircle
 10
318.77
 20
147.73
 40
3
  0
CIRCLE
  5
B7C
330
A02
100
AcDbEntity
  8
View
100
AcDbCircle
 10
414.23
 20
147.73
 40
3
  0
CIRCLE
  5
B7D
330
A02
100
AcDbEntity
  8
View
100
AcDbCircle
 10
366.5
 20
167.5
 40
3
  0
CIRCLE
  5
B7E
330
A02
100
AcDbEntity
  8
View
100
AcDbCircle
 10
414.23
 20
147.73
 40
1.6
  0
CIRCLE
  5
B7F
330
A02
100
AcDbEntity
  8
View
100
AcDbCircle
 10
366.5
 20
167.5
 40
1.6
  0
CIRCLE
  5
B80
330
A02
100
AcDbEntity
  8
View
100
AcDbCircle
 10
318.77
 20
147.73
 40
1.6
  0
CIRCLE
  5
B81
330
A02
100
AcDbEntity
  8
View
100
AcDbCircle
 10
292.762
 20
129.126
 40
1.6
  0
ARC
  5
B82
330
A02
100
AcDbEntity
  8
View
100
AcDbCircle
 10
434
 20
94
 30
0
 40
7.5
100
AcDbArc
 50
1.16107e-06
 51
180
  0
ARC
  5
B83
330
A02
100
AcDbEntity
  8
View
100
AcDbCircle
 10
366.5
 20
94
 30
0
 40
60
100
AcDbArc
 50
180
 51
1.30878e-08
  0
ARC
  5
B84
330
A02
100
AcDbEntity
  8
View
100
AcDbCircle
 10
366.5
 20
94
 30
0
 40
75
100
AcDbArc
 50
-133.862
 51
1.16107e-07
  0
ARC
  5
B85
330
A02
100
AcDbEntity
  8
View
100
AcDbCircle
 10
299
 20
94
 30
0
 40
7.5
100
AcDbArc
 50
1.79253e-06
 51
180
  0
ARC
  5
B86
330
A02
100
AcDbEntity
  8
View
100
AcDbCircle
 10
236.106
 20
-41.6784
 30
0
 40
113.178
100
AcDbArc
 50
46.1378
 51
108.094
  0
LINE
  5
B87
330
A02
100
AcDbEntity
  8
View
100
AcDbLine
 10
291.5
 20
94
 30
0
 11
191.106
 21
94
 31
0
  0
ARC
  5
B88
330
A02
100
AcDbEntity
  8
View
100
AcDbCircle
 10
236.106
 20
94
 30
0
 40
45
100
AcDbArc
 50
-180
 51
-141.364
  0
CIRCLE
  5
B89
330
A02
100
AcDbEntity
  8
View
100
AcDbCircle
 10
318.77
 20
46.2703
 40
3
  0
CIRCLE
  5
B8A
330
A02
100
AcDbEntity
  8
View
100
AcDbCircle
 10
366.5
 20
26.5
 40
3
  0
CIRCLE
  5
B8B
330
A02
100
AcDbEntity
  8
View
100
AcDbCircle
 10
414.23
 20
46.2703
 40
3
  0
CIRCLE
  5
B8C
330
A02
100
AcDbEntity
  8
View
100
AcDbCircle
 10
206.912
 20
75.4153
 40
3
  0
CIRCLE
  5
B8D
330
A02
100
AcDbEntity
  8
View
100
AcDbCircle
 10
292.762
 20
64.8743
 40
3
  0
CIRCLE
  5
B8E
330
A02
100
AcDbEntity
  8
View
100
AcDbCircle
 10
265.301
 20
75.4153
 40
3
  0
CIRCLE
  5
B8F
330
A02
100
AcDbEntity
  8
View
100
AcDbCircle
 10
236.106
 20
79
 40
3
  0
CIRCLE
  5
B90
330
A02
100
AcDbEntity
  8
View
100
AcDbCircle
 10
434
 20
94
 40
3
  0
CIRCLE
  5
B91
330
A02
100
AcDbEntity
  8
View
100
AcDbCircle
 10
414.23
 20
46.2703
 40
1.6
  0
CIRCLE
  5
B92
330
A02
100
AcDbEntity
  8
View
100
AcDbCircle
 10
366.5
 20
26.5
 40
1.6
  0
CIRCLE
  5
B93
330
A02
100
AcDbEntity
  8
View
100
AcDbCircle
 10
318.77
 20
46.2703
 40
1.6
  0
CIRCLE
  5
B94
330
A02
100
AcDbEntity
  8
View
100
AcDbCircle
 10
292.762
 20
64.8743
 40
1.6
  0
CIRCLE
  5
B95
330
A02
100
AcDbEntity
  8
View
100
AcDbCircle
 10
236.106
 20
79
 40
1.6
  0
CIRCLE
  5
B96
330
A02
100
AcDbEntity
  8
View
100
AcDbCircle
 10
206.912
 20
75.4153
 40
1.6
  0
CIRCLE
  5
B97
330
A02
100
AcDbEntity
  8
View
100
AcDbCircle
 10
265.301
 20
75.4153
 40
1.6
  0
CIRCLE
  5
B98
330
A02
100
AcDbEntity
  8
View
100
AcDbCircle
 10
434
 20
94
 40
1.6
  0
ARC
  5
B99
330
A02
100
AcDbEntity
  8
View
100
AcDbCircle
 10
100.5
 20
148
 30
0
 40
31
100
AcDbArc
 50
-37
 51
143
  0
LINE
  5
B9A
330
A02
100
AcDbEntity
  8
View
100
AcDbLine
 10
125.258
 20
129.344
 30
0
 11
126.855
 21
128.14
 31
0
  0
LINE
  5
B9B
330
A02
100
AcDbEntity
  8
View
100
AcDbLine
 10
75.7423
 20
166.656
 30
0
 11
74.145
 21
167.86
 31
0
  0
ARC
  5
B9C
330
A02
100
AcDbEntity
  8
View
100
AcDbCircle
 10
131.647
 20
124.529
 30
0
 40
6
100
AcDbArc
 50
143
 51
-37
  0
ARC
  5
B9D
330
A02
100
AcDbEntity
  8
View
100
AcDbCircle
 10
69.3532
 20
171.471
 30
0
 40
6
100
AcDbArc
 50
143
 51
-37
  0
LINE
  5
B9E
330
A02
100
AcDbEntity
  8
View
100
AcDbLine
 10
136.439
 20
120.918
 30
0
 11
136.439
 21
103
 31
0
  0
ARC
  5
B9F
330
A02
100
AcDbEntity
  8
View
100
AcDbCircle
 10
100.5
 20
148
 30
0
 40
45
100
AcDbArc
 50
34.9783
 51
143
  0
LINE
  5
BA0
330
A02
100
AcDbEntity
  8
View
100
AcDbLine
 10
143
 20
103
 30
0
 11
136.439
 21
103
 31
0
  0
ARC
  5
BA1
330
A02
100
AcDbEntity
  8
View
100
AcDbCircle
 10
230.106
 20
238.678
 30
0
 40
113.178
100
AcDbArc
 50
-145.022
 51
-71.906
  0
ARC
  5
BA2
330
A02
100
AcDbEntity
  8
View
100
AcDbCircle
 10
160.5
 20
103
 30
0
 40
17.5
100
AcDbArc
 50
180
 51
0
  0
ARC
  5
BA3
330
A02
100
AcDbEntity
  8
View
100
AcDbCircle
 10
230.106
 20
103
 30
0
 40
45
100
AcDbArc
 50
1.80938e-14
 51
38.6363
  0
LINE
  5
BA4
330
A02
100
AcDbEntity
  8
View
100
AcDbLine
 10
275.106
 20
103
 30
0
 11
178
 21
103
 31
0
  0
CIRCLE
  5
BA5
330
A02
100
AcDbEntity
  8
View
100
AcDbCircle
 10
160.5
 20
103
 40
8.5
  0
CIRCLE
  5
BA6
330
A02
100
AcDbEntity
  8
View
100
AcDbCircle
 10
140.5
 20
112
 40
3
  0
CIRCLE
  5
BA7
330
A02
100
AcDbEntity
  8
View
100
AcDbCircle
 10
230.106
 20
118
 40
3
  0
CIRCLE
  5
BA8
330
A02
100
AcDbEntity
  8
View
100
AcDbCircle
 10
200.912
 20
121.585
 40
3
  0
CIRCLE
  5
BA9
330
A02
100
AcDbEntity
  8
View
100
AcDbCircle
 10
173.451
 20
132.126
 40
3
  0
CIRCLE
  5
BAA
330
A02
100
AcDbEntity
  8
View
100
AcDbCircle
 10
259.301
 20
121.585
 40
3
  0
CIRCLE
  5
BAB
330
A02
100
AcDbEntity
  8
View
100
AcDbCircle
 10
136.4
 20
163.239
 40
3
  0
CIRCLE
  5
BAC
330
A02
100
AcDbEntity
  8
View
100
AcDbCircle
 10
69.3532
 20
171.471
 40
3
  0
CIRCLE
  5
BAD
330
A02
100
AcDbEntity
  8
View
100
AcDbCircle
 10
105.253
 20
186.709
 40
3
  0
CIRCLE
  5
BAE
330
A02
100
AcDbEntity
  8
View
100
AcDbCircle
 10
69.3532
 20
171.471
 40
1.6
  0
CIRCLE
  5
BAF
330
A02
100
AcDbEntity
  8
View
100
AcDbCircle
 10
105.253
 20
186.709
 40
1.6
  0
CIRCLE
  5
BB0
330
A02
100
AcDbEntity
  8
View
100
AcDbCircle
 10
136.4
 20
163.239
 40
1.6
  0
CIRCLE
  5
BB1
330
A02
100
AcDbEntity
  8
View
100
AcDbCircle
 10
173.451
 20
132.126
 40
1.6
  0
CIRCLE
  5
BB2
330
A02
100
AcDbEntity
  8
View
100
AcDbCircle
 10
200.912
 20
121.585
 40
1.6
  0
CIRCLE
  5
BB3
330
A02
100
AcDbEntity
  8
View
100
AcDbCircle
 10
230.106
 20
118
 40
1.6
  0
CIRCLE
  5
BB4
330
A02
100
AcDbEntity
  8
View
100
AcDbCircle
 10
259.301
 20
121.585
 40
1.6
  0
CIRCLE
  5
BB5
330
A02
100
AcDbEntity
  8
View
100
AcDbCircle
 10
140.5
 20
112
 40
1.6
  0
ARC
  5
BB6
330
A02
100
AcDbEntity
  8
View
100
AcDbCircle
 10
100.5
 20
46
 30
0
 40
45
100
AcDbArc
 50
-134.15
 51
-34.9782
  0
ARC
  5
BB7
330
A02
100
AcDbEntity
  8
View
100
AcDbCircle
 10
230.106
 20
-44.6784
 30
0
 40
113.178
100
AcDbArc
 50
108.094
 51
145.022
  0
LINE
  5
BB8
330
A02
100
AcDbEntity
  8
View
100
AcDbLine
 10
69.1557
 20
13.7117
 30
0
 11
73.6583
 21
18.35
 31
0
  0
ARC
  5
BB9
330
A02
100
AcDbEntity
  8
View
100
AcDbCircle
 10
230.106
 20
91
 30
0
 40
45
100
AcDbArc
 50
-180
 51
-141.364
  0
ARC
  5
BBA
330
A02
100
AcDbEntity
  8
View
100
AcDbCircle
 10
69.3532
 20
22.5292
 30
0
 40
6
100
AcDbArc
 50
-44.1501
 51
37
  0
LINE
  5
BBB
330
A02
100
AcDbEntity
  8
View
100
AcDbLine
 10
185.106
 20
91
 30
0
 11
178
 21
91
 31
0
  0
LINE
  5
BBC
330
A02
100
AcDbEntity
  8
View
100
AcDbLine
 10
74.145
 20
26.1401
 30
0
 11
75.7423
 21
27.3437
 31
0
  0
ARC
  5
BBD
330
A02
100
AcDbEntity
  8
View
100
AcDbCircle
 10
160.5
 20
91
 30
0
 40
17.5
100
AcDbArc
 50
180
 51
0
  0
ARC
  5
BBE
330
A02
100
AcDbEntity
  8
View
100
AcDbCircle
 10
100.5
 20
46
 30
0
 40
31
100
AcDbArc
 50
-143
 51
37
  0
LINE
  5
BBF
330
A02
100
AcDbEntity
  8
View
100
AcDbLine
 10
136.439
 20
91
 30
0
 11
143
 21
91
 31
0
  0
LINE
  5
BC0
330
A02
100
AcDbEntity
  8
View
100
AcDbLine
 10
126.855
 20
65.8599
 30
0
 11
125.258
 21
64.6563
 31
0
  0
LINE
  5
BC1
330
A02
100
AcDbEntity
  8
View
100
AcDbLine
 10
136.439
 20
73.0817
 30
0
 11
136.439
 21
91
 31
0
  0
ARC
  5
BC2
330
A02
100
AcDbEntity
  8
View
100
AcDbCircle
 10
131.647
 20
69.4708
 30
0
 40
6
100
AcDbArc
 50
-143
 51
37
  0
CIRCLE
  5
BC3
330
A02
100
AcDbEntity
  8
View
100
AcDbCircle
 10
105.253
 20
7.2907
 40
3
  0
CIRCLE
  5
BC4
330
A02
100
AcDbEntity
  8
View
100
AcDbCircle
 10
136.4
 20
30.7615
 40
3
  0
CIRCLE
  5
BC5
330
A02
100
AcDbEntity
  8
View
100
AcDbCircle
 10
173.451
 20
61.8743
 40
3
  0
CIRCLE
  5
BC6
330
A02
100
AcDbEntity
  8
View
100
AcDbCircle
 10
140.5
 20
82
 40
3
  0
CIRCLE
  5
BC7
330
A02
100
AcDbEntity
  8
View
100
AcDbCircle
 10
140.5
 20
82
 40
1.6
  0
CIRCLE
  5
BC8
330
A02
100
AcDbEntity
  8
View
100
AcDbCircle
 10
173.451
 20
61.8743
 40
1.6
  0
CIRCLE
  5
BC9
330
A02
100
AcDbEntity
  8
View
100
AcDbCircle
 10
136.4
 20
30.7615
 40
1.6
  0
CIRCLE
  5
BCA
330
A02
100
AcDbEntity
  8
View
100
AcDbCircle
 10
105.253
 20
7.2907
 40
1.6
  0
LINE
  5
BCB
330
A02
100
AcDbEntity
  8
View
100
AcDbLine
 10
133.439
 20
114.79
 30
0
 11
133.439
 21
102.414
 31
0
  0
ARC
  5
BCC
330
A02
100
AcDbEntity
  8
View
100
AcDbCircle
 10
131.939
 20
114.79
 30
0
 40
1.5
100
AcDbArc
 50
0
 51
116.034
  0
ARC
  5
BCD
330
A02
100
AcDbEntity
  8
View
100
AcDbCircle
 10
132.439
 20
102.414
 30
0
 40
1
100
AcDbArc
 50
-135
 51
0
  0
ARC
  5
BCE
330
A02
100
AcDbEntity
  8
View
100
AcDbCircle
 10
128.647
 20
121.529
 30
0
 40
6
100
AcDbArc
 50
143
 51
-63.9657
  0
LINE
  5
BCF
330
A02
100
AcDbEntity
  8
View
100
AcDbLine
 10
131.731
 20
101.707
 30
0
 11
130.439
 21
103
 31
0
  0
LINE
  5
BD0
330
A02
100
AcDbEntity
  8
View
100
AcDbLine
 10
123.855
 20
125.14
 30
0
 11
122.258
 21
126.344
 31
0
  0
LINE
  5
BD1
330
A02
100
AcDbEntity
  8
View
100
AcDbLine
 10
130.439
 20
103
 30
0
 11
112.439
 21
100
 31
0
  0
ARC
  5
BD2
330
A02
100
AcDbEntity
  8
View
100
AcDbCircle
 10
97.5
 20
145
 30
0
 40
31
100
AcDbArc
 50
143
 51
-37
  0
LINE
  5
BD3
330
A02
100
AcDbEntity
  8
View
100
AcDbLine
 10
112.439
 20
100
 30
0
 11
97.5
 21
100
 31
0
  0
LINE
  5
BD4
330
A02
100
AcDbEntity
  8
View
100
AcDbLine
 10
72.7423
 20
163.656
 30
0
 11
71.145
 21
164.86
 31
0
  0
ARC
  5
BD5
330
A02
100
AcDbEntity
  8
View
100
AcDbCircle
 10
97.5
 20
145
 30
0
 40
45
100
AcDbArc
 50
151.85
 51
-90
  0
ARC
  5
BD6
330
A02
100
AcDbEntity
  8
View
100
AcDbCircle
 10
66.3532
 20
168.471
 30
0
 40
6
100
AcDbArc
 50
-118.15
 51
-37
  0
LINE
  5
BD7
330
A02
100
AcDbEntity
  8
View
100
AcDbLine
 10
57.8228
 20
166.23
 30
0
 11
63.5225
 21
163.18
 31
0
  0
CIRCLE
  5
BD8
330
A02
100
AcDbEntity
  8
View
100
AcDbCircle
 10
92.7471
 20
106.291
 40
3
  0
CIRCLE
  5
BD9
330
A02
100
AcDbEntity
  8
View
100
AcDbCircle
 10
61.6003
 20
129.761
 40
3
  0
CIRCLE
  5
BDA
330
A02
100
AcDbEntity
  8
View
100
AcDbCircle
 10
61.6003
 20
129.761
 40
1.6
  0
CIRCLE
  5
BDB
330
A02
100
AcDbEntity
  8
View
100
AcDbCircle
 10
92.7471
 20
106.291
 40
1.6
  0
LINE
  5
BDC
330
A02
100
AcDbEntity
  8
View
100
AcDbLine
 10
133.439
 20
94
 30
0
 11
133.439
 21
76.0817
 31
0
  0
LINE
  5
BDD
330
A02
100
AcDbEntity
  8
View
100
AcDbLine
 10
133.439
 20
94
 30
0
 11
130.439
 21
97
 31
0
  0
ARC
  5
BDE
330
A02
100
AcDbEntity
  8
View
100
AcDbCircle
 10
128.647
 20
72.4708
 30
0
 40
6
100
AcDbArc
 50
-143
 51
37
  0
LINE
  5
BDF
330
A02
100
AcDbEntity
  8
View
100
AcDbLine
 10
130.439
 20
97
 30
0
 11
112.439
 21
94
 31
0
  0
LINE
  5
BE0
330
A02
100
AcDbEntity
  8
View
100
AcDbLine
 10
123.855
 20
68.8599
 30
0
 11
122.258
 21
67.6563
 31
0
  0
LINE
  5
BE1
330
A02
100
AcDbEntity
  8
View
100
AcDbLine
 10
112.439
 20
94
 30
0
 11
97.5
 21
94
 31
0
  0
ARC
  5
BE2
330
A02
100
AcDbEntity
  8
View
100
AcDbCircle
 10
97.5
 20
49
 30
0
 40
31
100
AcDbArc
 50
37
 51
-143
  0
ARC
  5
BE3
330
A02
100
AcDbEntity
  8
View
100
AcDbCircle
 10
97.5
 20
49
 30
0
 40
45
100
AcDbArc
 50
90
 51
-143
  0
LINE
  5
BE4
330
A02
100
AcDbEntity
  8
View
100
AcDbLine
 10
72.7423
 20
30.3437
 30
0
 11
71.145
 21
29.1401
 31
0
  0
ARC
  5
BE5
330
A02
100
AcDbEntity
  8
View
100
AcDbCircle
 10
66.3532
 20
25.5292
 30
0
 40
6
100
AcDbArc
 50
-143
 51
37
  0
CIRCLE
  5
BE6
330
A02
100
AcDbEntity
  8
View
100
AcDbCircle
 10
66.3532
 20
25.5292
 40
3
  0
CIRCLE
  5
BE7
330
A02
100
AcDbEntity
  8
View
100
AcDbCircle
 10
61.6003
 20
64.2385
 40
3
  0
CIRCLE
  5
BE8
330
A02
100
AcDbEntity
  8
View
100
AcDbCircle
 10
92.7471
 20
87.7093
 40
3
  0
CIRCLE
  5
BE9
330
A02
100
AcDbEntity
  8
View
100
AcDbCircle
 10
66.3532
 20
25.5292
 40
1.6
  0
CIRCLE
  5
BEA
330
A02
100
AcDbEntity
  8
View
100
AcDbCircle
 10
61.6003
 20
64.2385
 40
1.6
  0
CIRCLE
  5
BEB
330
A02
100
AcDbEntity
  8
View
100
AcDbCircle
 10
92.7471
 20
87.7093
 40
1.6
  0
ENDSEC
  0
SECTION
  2
OBJECTS
  0
DICTIONARY
  5
F000
330
0
100
AcDbDictionary
  3
ACAD_GROUP
350
F001
  0
DICTIONARY
  5
F001
330
F000
100
AcDbDictionary
  0
ENDSEC
  0
EOF