999
FreeCAD v2023.1103 14555 (Git shallow)
  0
SECTION
  2
HEADER
  9
$ACADVER
  1
AC1014
  9
$ACADMAINTVER
 70
     9
  9
$DWGCODEPAGE
  3
ANSI_1252
  9
$TEXTSTYLE
  7
STANDARD
  9
$DIMSTYLE
  2
STANDARD
  9
$DIMTXSTY
  7
STANDARD
  9
$CMLSTYLE
  2
STANDARD
  9
$LUNITS
 70
2
  9
$INSUNITS
 70
4
  9
$PEXTMAX
 10
50
 20
50
 30
50
  9
$PEXTMIN
 10
0
 20
0
 30
0
  9
$HANDSEED
  5
FFFF
  0
ENDSEC
  0
SECTION
  2
CLASSES
  0
CLASS
  1
ACDBDICTIONARYWDFLT
  2
AcDbDictionaryWithDefault
  3
ObjectDBX Classes
 90
        0
280
     0
281
     0
  0
CLASS
  1
XRECORD
  2
AcDbXrecord
  3
ObjectDBX Classes
 90
        0
280
     0
281
     0
  0
CLASS
  1
LWPOLYLINE
  2
AcDbPolyline
  3
ObjectDBX Classes
 90
        0
280
     0
281
     1
  0
ENDSEC
  0
SECTION
  2
TABLES
  0
TABLE
  2
VPORT
  5
20
330
0
100
AcDbSymbolTable
 70
     1
  0
VPORT
  5
21
330
20
100
AcDbSymbolTableRecord
100
AcDbViewportTableRecord
  2
*ACTIVE
 70
     0
  0
ENDTAB
  0
TABLE
  2
LTYPE
  5
22
330
0
100
AcDbSymbolTable
 70
     1
  0
LTYPE
  5
23
330
21
100
AcDbSymbolTableRecord
100
AcDbLinetypeTableRecord
  2
BYBLOCK
 70
     0
  3

 72
    65
 73
     0
 40
0.0
  0
LTYPE
  5
24
330
21
100
AcDbSymbolTableRecord
100
AcDbLinetypeTableRecord
  2
BYLAYER
 70
     0
  3

 72
    65
 73
     0
 40
0.0
  0
LTYPE
  5
25
330
21
100
AcDbSymbolTableRecord
100
AcDbLinetypeTableRecord
  2
CONTINUOUS
 70
     0
  3
Solid line
 72
    65
 73
     0
 40
0.0
  0
ENDTAB
  0
TABLE
  2
LAYER
  5
B21
330
0
100
AcDbSymbolTable
 70
4
  0
LAYER
  5
B22
330
B21
100
AcDbSymbolTableRecord
100
AcDbLayerTableRecord
  2
0
 70
   0
 62
   7
  6
CONTINUOUS
  0
LAYER
  5
B23
330
B21
100
AcDbSymbolTableRecord
100
AcDbLayerTableRecord
  2
View
 70
    0
 62
    7
  6
CONTINUOUS
  0
LAYER
  5
B24
330
B21
100
AcDbSymbolTableRecord
100
AcDbLayerTableRecord
  2
View001
 70
    0
 62
    7
  6
CONTINUOUS
  0
LAYER
  5
B25
330
B21
100
AcDbSymbolTableRecord
100
AcDbLayerTableRecord
  2
View003
 70
    0
 62
    7
  6
CONTINUOUS
  0
ENDTAB
  0
TABLE
  2
STYLE
  5
70
330
0
100
AcDbSymbolTable
 70
     2
  0
STYLE
  5
71
330
70
100
AcDbSymbolTableRecord
100
AcDbTextStyleTableRecord
  2
STANDARD
 70
     0
 40
0.0
 41
1.0
 50
0.0
 71
     0
 42
2.5
  3
arial.ttf
  4

  0
STYLE
  5
72
330
70
100
AcDbSymbolTableRecord
100
AcDbTextStyleTableRecord
  2
ANNOTATIVE
 70
     0
 40
0.0
 41
1.0
 50
0.0
 71
     0
 42
2.5
  3
arial.ttf
  4

  0
ENDTAB
  0
TABLE
  2
VIEW
  5
73
330
0
100
AcDbSymbolTable
 70
     0
  0
ENDTAB
  0
TABLE
  2
UCS
  5
74
330
0
100
AcDbSymbolTable
 70
     0
  0
ENDTAB
  0
TABLE
  2
APPID
  5
75
330
0
100
AcDbSymbolTable
 70
     2
  0
APPID
  5
76
330
75
100
AcDbSymbolTableRecord
100
AcDbRegAppTableRecord
  2
ACAD
 70
     0
  0
APPID
  5
77
330
75
100
AcDbSymbolTableRecord
100
AcDbRegAppTableRecord
  2
ACADANNOTATIVE
 70
     0
  0
ENDTAB
  0
TABLE
  2
DIMSTYLE
  5
78
330
0
100
AcDbSymbolTable
 70
     2
  0
DIMSTYLE
105
79
330
78
100
AcDbSymbolTableRecord
100
AcDbDimStyleTableRecord
  2
STANDARD
 70
     0
  3

  4

  5

  6

  7

 40
0.0
 41
2.5
 42
0.625
 43
3.75
 44
1.25
 45
0.0
 46
0.0
 47
0.0
 48
0.0
140
2.5
141
2.5
142
0.0
143
0.03937007874016
144
1.0
145
0.0
146
1.0
147
0.625
 71
     0
 72
     0
 73
     0
 74
     0
 75
     0
 76
     0
 77
     1
 78
     8
170
     0
171
     3
172
     1
173
     0
174
     0
175
     0
176
     0
177
     0
178
     0
270
     2
271
     2
272
     2
273
     2
274
     3
340
71
275
     0
280
     0
281
     0
282
     0
283
     0
284
     8
285
     0
286
     0
287
     3
288
     0
  0
ENDTAB
  0
TABLE
  2
BLOCK_RECORD
  5
A01
330
0
100
AcDbSymbolTable
  70
5
  0
BLOCK_RECORD
  5
A02
330
A01
100
AcDbSymbolTableRecord
100
AcDbBlockTableRecord
  2
*MODEL_SPACE
  0
BLOCK_RECORD
  5
A03
330
A01
100
AcDbSymbolTableRecord
100
AcDbBlockTableRecord
  2
*PAPER_SPACE
  0
ENDTAB
  0
ENDSEC
  0
SECTION
  2
BLOCKS
  0
BLOCK
  5
A04
330
A02
100
AcDbEntity
  8
0
100
AcDbBlockBegin
  2
*MODEL_SPACE
 70
   0
 10
0
 20
0
 30
0
  3
*MODEL_SPACE
  1
 
  0
ENDBLK
  5
A05
330
A02
100
AcDbEntity
  8
0
100
AcDbBlockEnd
  0
BLOCK
  5
A06
330
A03
100
AcDbEntity
 67
1
  8
0
100
AcDbBlockBegin
  2
*PAPER_SPACE
 70
   0
 10
0
 20
0
 30
0
  3
*PAPER_SPACE
  1
 
  0
ENDBLK
  5
A07
330
A03
100
AcDbEntity
 67
    1
  8
0
100
AcDbBlockEnd
  0
ENDSEC
  0
SECTION
  2
ENTITIES
  0
LINE
  5
A08
330
A02
100
AcDbEntity
  8
View
100
AcDbLine
 10
81.0225
 20
263.18
 30
0
 11
75.3228
 21
266.23
 31
0
  0
ARC
  5
A09
330
A02
100
AcDbEntity
  8
View
100
AcDbCircle
 10
83.8532
 20
268.471
 30
0
 40
6
100
AcDbArc
 50
-118.15
 51
-85.5827
  0
ARC
  5
A0A
330
A02
100
AcDbEntity
  8
View
100
AcDbCircle
 10
84.4309
 20
260.993
 30
0
 40
1.5
100
AcDbArc
 50
-27.6175
 51
94.4173
  0
ARC
  5
A0B
330
A02
100
AcDbEntity
  8
View
100
AcDbCircle
 10
115
 20
245
 30
0
 40
33
100
AcDbArc
 50
152.382
 51
-46.3825
  0
ARC
  5
A0C
330
A02
100
AcDbEntity
  8
View
100
AcDbCircle
 10
138.8
 20
220.023
 30
0
 40
1.5
100
AcDbArc
 50
11.5827
 51
133.618
  0
ARC
  5
A0D
330
A02
100
AcDbEntity
  8
View
100
AcDbCircle
 10
146.147
 20
221.529
 30
0
 40
6
100
AcDbArc
 50
-168.417
 51
-63.9657
  0
ARC
  5
A0E
330
A02
100
AcDbEntity
  8
View
100
AcDbCircle
 10
149.439
 20
214.79
 30
0
 40
1.5
100
AcDbArc
 50
0
 51
116.034
  0
LINE
  5
A0F
330
A02
100
AcDbEntity
  8
View
100
AcDbLine
 10
150.939
 20
214.79
 30
0
 11
150.939
 21
202.414
 31
0
  0
ARC
  5
A10
330
A02
100
AcDbEntity
  8
View
100
AcDbCircle
 10
149.939
 20
202.414
 30
0
 40
1
100
AcDbArc
 50
-135
 51
0
  0
LINE
  5
A11
330
A02
100
AcDbEntity
  8
View
100
AcDbLine
 10
147.939
 20
203
 30
0
 11
149.231
 21
201.707
 31
0
  0
LINE
  5
A12
330
A02
100
AcDbEntity
  8
View
100
AcDbLine
 10
129.939
 20
200
 30
0
 11
147.939
 21
203
 31
0
  0
LINE
  5
A13
330
A02
100
AcDbEntity
  8
View
100
AcDbLine
 10
129.939
 20
200
 30
0
 11
115
 21
200
 31
0
  0
ARC
  5
A14
330
A02
100
AcDbEntity
  8
View
100
AcDbCircle
 10
115
 20
245
 30
0
 40
45
100
AcDbArc
 50
151.85
 51
-90
  0
CIRCLE
  5
A15
330
A02
100
AcDbEntity
  8
View
100
AcDbCircle
 10
79.1003
 20
229.761
 40
1.6
  0
CIRCLE
  5
A16
330
A02
100
AcDbEntity
  8
View
100
AcDbCircle
 10
110.247
 20
206.291
 40
1.6
  0
LINE
  5
A17
330
A02
100
AcDbEntity
  8
View
100
AcDbLine
 10
129.939
 20
200
 30
0
 11
115
 21
200
 31
0
  0
ARC
  5
A18
330
A02
100
AcDbEntity
  8
View
100
AcDbCircle
 10
115
 20
155
 30
0
 40
45
100
AcDbArc
 50
90
 51
-143
  0
ARC
  5
A19
330
A02
100
AcDbEntity
  8
View
100
AcDbCircle
 10
83.8532
 20
131.529
 30
0
 40
6
100
AcDbArc
 50
-143
 51
36.9998
  0
ARC
  5
A1A
330
A02
100
AcDbEntity
  8
View
100
AcDbCircle
 10
115
 20
155
 30
0
 40
33
100
AcDbArc
 50
37
 51
-143
  0
ARC
  5
A1B
330
A02
100
AcDbEntity
  8
View
100
AcDbCircle
 10
146.147
 20
178.471
 30
0
 40
6
100
AcDbArc
 50
-143
 51
37
  0
LINE
  5
A1C
330
A02
100
AcDbEntity
  8
View
100
AcDbLine
 10
150.939
 20
200
 30
0
 11
150.939
 21
182.082
 31
0
  0
LINE
  5
A1D
330
A02
100
AcDbEntity
  8
View
100
AcDbLine
 10
147.939
 20
203
 30
0
 11
150.939
 21
200
 31
0
  0
LINE
  5
A1E
330
A02
100
AcDbEntity
  8
View
100
AcDbLine
 10
129.939
 20
200
 30
0
 11
147.939
 21
203
 31
0
  0
CIRCLE
  5
A1F
330
A02
100
AcDbEntity
  8
View
100
AcDbCircle
 10
83.8532
 20
131.529
 40
1.6
  0
CIRCLE
  5
A20
330
A02
100
AcDbEntity
  8
View
100
AcDbCircle
 10
110.247
 20
193.709
 40
1.6
  0
CIRCLE
  5
A21
330
A02
100
AcDbEntity
  8
View
100
AcDbCircle
 10
79.1003
 20
170.239
 40
1.6
  0
ARC
  5
A22
330
A02
100
AcDbEntity
  8
View
100
AcDbCircle
 10
115
 20
245
 30
0
 40
33
100
AcDbArc
 50
-37
 51
143
  0
ARC
  5
A23
330
A02
100
AcDbEntity
  8
View
100
AcDbCircle
 10
83.8532
 20
268.471
 30
0
 40
6
100
AcDbArc
 50
143
 51
-37
  0
ARC
  5
A24
330
A02
100
AcDbEntity
  8
View
100
AcDbCircle
 10
115
 20
245
 30
0
 40
45
100
AcDbArc
 50
34.9784
 51
143
  0
ARC
  5
A25
330
A02
100
AcDbEntity
  8
View
100
AcDbCircle
 10
244.606
 20
335.678
 30
0
 40
113.178
100
AcDbArc
 50
-145.022
 51
-71.906
  0
ARC
  5
A26
330
A02
100
AcDbEntity
  8
View
100
AcDbCircle
 10
244.606
 20
200
 30
0
 40
45
100
AcDbArc
 50
3.61876e-14
 51
38.6363
  0
LINE
  5
A27
330
A02
100
AcDbEntity
  8
View
100
AcDbLine
 10
289.606
 20
200
 30
0
 11
192.5
 21
200
 31
0
  0
ARC
  5
A28
330
A02
100
AcDbEntity
  8
View
100
AcDbCircle
 10
175
 20
200
 30
0
 40
17.5
100
AcDbArc
 50
180
 51
0
  0
LINE
  5
A29
330
A02
100
AcDbEntity
  8
View
100
AcDbLine
 10
157.5
 20
200
 30
0
 11
150.939
 21
200
 31
0
  0
LINE
  5
A2A
330
A02
100
AcDbEntity
  8
View
100
AcDbLine
 10
150.939
 20
200
 30
0
 11
150.939
 21
217.918
 31
0
  0
ARC
  5
A2B
330
A02
100
AcDbEntity
  8
View
100
AcDbCircle
 10
146.147
 20
221.529
 30
0
 40
6
100
AcDbArc
 50
143
 51
-37
  0
CIRCLE
  5
A2C
330
A02
100
AcDbEntity
  8
View
100
AcDbCircle
 10
83.8532
 20
268.471
 40
1.6
  0
CIRCLE
  5
A2D
330
A02
100
AcDbEntity
  8
View
100
AcDbCircle
 10
150.9
 20
260.239
 40
1.6
  0
CIRCLE
  5
A2E
330
A02
100
AcDbEntity
  8
View
100
AcDbCircle
 10
187.951
 20
229.126
 40
1.6
  0
CIRCLE
  5
A2F
330
A02
100
AcDbEntity
  8
View
100
AcDbCircle
 10
119.753
 20
283.709
 40
1.6
  0
CIRCLE
  5
A30
330
A02
100
AcDbEntity
  8
View
100
AcDbCircle
 10
273.801
 20
218.585
 40
1.6
  0
CIRCLE
  5
A31
330
A02
100
AcDbEntity
  8
View
100
AcDbCircle
 10
244.606
 20
215
 40
1.6
  0
CIRCLE
  5
A32
330
A02
100
AcDbEntity
  8
View
100
AcDbCircle
 10
215.412
 20
218.585
 40
1.6
  0
CIRCLE
  5
A33
330
A02
100
AcDbEntity
  8
View
100
AcDbCircle
 10
175
 20
200
 40
8.5
  0
CIRCLE
  5
A34
330
A02
100
AcDbEntity
  8
View
100
AcDbCircle
 10
155
 20
209
 40
1.6
  0
ARC
  5
A35
330
A02
100
AcDbEntity
  8
View
100
AcDbCircle
 10
175
 20
200
 30
0
 40
17.5
100
AcDbArc
 50
180
 51
0
  0
LINE
  5
A36
330
A02
100
AcDbEntity
  8
View
100
AcDbLine
 10
199.606
 20
200
 30
0
 11
192.5
 21
200
 31
0
  0
ARC
  5
A37
330
A02
100
AcDbEntity
  8
View
100
AcDbCircle
 10
244.606
 20
200
 30
0
 40
45
100
AcDbArc
 50
180
 51
-141.364
  0
ARC
  5
A38
330
A02
100
AcDbEntity
  8
View
100
AcDbCircle
 10
244.606
 20
64.3216
 30
0
 40
113.178
100
AcDbArc
 50
108.094
 51
145.022
  0
ARC
  5
A39
330
A02
100
AcDbEntity
  8
View
100
AcDbCircle
 10
115
 20
155
 30
0
 40
45
100
AcDbArc
 50
-134.15
 51
-34.9783
  0
LINE
  5
A3A
330
A02
100
AcDbEntity
  8
View
100
AcDbLine
 10
88.1583
 20
127.35
 30
0
 11
83.6557
 21
122.712
 31
0
  0
ARC
  5
A3B
330
A02
100
AcDbEntity
  8
View
100
AcDbCircle
 10
83.8532
 20
131.529
 30
0
 40
6
100
AcDbArc
 50
-44.1501
 51
-11.5827
  0
ARC
  5
A3C
330
A02
100
AcDbEntity
  8
View
100
AcDbCircle
 10
91.2005
 20
130.023
 30
0
 40
1.5
100
AcDbArc
 50
46.3825
 51
168.417
  0
ARC
  5
A3D
330
A02
100
AcDbEntity
  8
View
100
AcDbCircle
 10
115
 20
155
 30
0
 40
33
100
AcDbArc
 50
-133.618
 51
27.6175
  0
ARC
  5
A3E
330
A02
100
AcDbEntity
  8
View
100
AcDbCircle
 10
145.569
 20
170.993
 30
0
 40
1.5
100
AcDbArc
 50
85.5827
 51
-152.382
  0
ARC
  5
A3F
330
A02
100
AcDbEntity
  8
View
100
AcDbCircle
 10
146.147
 20
178.471
 30
0
 40
6
100
AcDbArc
 50
-94.4173
 51
37
  0
LINE
  5
A40
330
A02
100
AcDbEntity
  8
View
100
AcDbLine
 10
150.939
 20
182.082
 30
0
 11
150.939
 21
200
 31
0
  0
LINE
  5
A41
330
A02
100
AcDbEntity
  8
View
100
AcDbLine
 10
157.5
 20
200
 30
0
 11
150.939
 21
200
 31
0
  0
CIRCLE
  5
A42
330
A02
100
AcDbEntity
  8
View
100
AcDbCircle
 10
187.951
 20
170.874
 40
1.6
  0
CIRCLE
  5
A43
330
A02
100
AcDbEntity
  8
View
100
AcDbCircle
 10
150.9
 20
139.761
 40
1.6
  0
CIRCLE
  5
A44
330
A02
100
AcDbEntity
  8
View
100
AcDbCircle
 10
119.753
 20
116.291
 40
1.6
  0
CIRCLE
  5
A45
330
A02
100
AcDbEntity
  8
View
100
AcDbCircle
 10
155
 20
191
 40
1.6
  0
LINE
  5
A46
330
A02
100
AcDbEntity
  8
View
100
AcDbLine
 10
449.624
 20
207.5
 30
0
 11
442.5
 21
207.5
 31
0
  0
ARC
  5
A47
330
A02
100
AcDbEntity
  8
View
100
AcDbCircle
 10
442.5
 20
200
 30
0
 40
7.5
100
AcDbArc
 50
90
 51
134.725
  0
ARC
  5
A48
330
A02
100
AcDbEntity
  8
View
100
AcDbCircle
 10
436.167
 20
206.394
 30
0
 40
1.5
100
AcDbArc
 50
-174.032
 51
-45.2751
  0
ARC
  5
A49
330
A02
100
AcDbEntity
  8
View
100
AcDbCircle
 10
375
 20
200
 30
0
 40
60
100
AcDbArc
 50
5.9681
 51
174.032
  0
ARC
  5
A4A
330
A02
100
AcDbEntity
  8
View
100
AcDbCircle
 10
313.833
 20
206.394
 30
0
 40
1.5
100
AcDbArc
 50
-134.725
 51
-5.9681
  0
ARC
  5
A4B
330
A02
100
AcDbEntity
  8
View
100
AcDbCircle
 10
307.5
 20
200
 30
0
 40
7.5
100
AcDbArc
 50
45.2751
 51
180
  0
LINE
  5
A4C
330
A02
100
AcDbEntity
  8
View
100
AcDbLine
 10
300
 20
200
 30
0
 11
289.606
 21
200
 31
0
  0
ARC
  5
A4D
330
A02
100
AcDbEntity
  8
View
100
AcDbCircle
 10
244.606
 20
200
 30
0
 40
45
100
AcDbArc
 50
3.61876e-14
 51
38.6363
  0
ARC
  5
A4E
330
A02
100
AcDbEntity
  8
View
100
AcDbCircle
 10
244.606
 20
335.678
 30
0
 40
113.178
100
AcDbArc
 50
-71.906
 51
-46.1379
  0
ARC
  5
A4F
330
A02
100
AcDbEntity
  8
View
100
AcDbCircle
 10
375
 20
200
 30
0
 40
75
100
AcDbArc
 50
5.73917
 51
133.862
  0
CIRCLE
  5
A50
330
A02
100
AcDbEntity
  8
View
100
AcDbCircle
 10
422.73
 20
247.73
 40
1.6
  0
CIRCLE
  5
A51
330
A02
100
AcDbEntity
  8
View
100
AcDbCircle
 10
375
 20
267.5
 40
1.6
  0
CIRCLE
  5
A52
330
A02
100
AcDbEntity
  8
View
100
AcDbCircle
 10
327.27
 20
247.73
 40
1.6
  0
CIRCLE
  5
A53
330
A02
100
AcDbEntity
  8
View
100
AcDbCircle
 10
301.262
 20
229.126
 40
1.6
  0
ARC
  5
A54
330
A02
100
AcDbEntity
  8
View
100
AcDbCircle
 10
307.5
 20
200
 30
0
 40
7.5
100
AcDbArc
 50
0
 51
180
  0
LINE
  5
A55
330
A02
100
AcDbEntity
  8
View
100
AcDbLine
 10
300
 20
200
 30
0
 11
199.606
 21
200
 31
0
  0
ARC
  5
A56
330
A02
100
AcDbEntity
  8
View
100
AcDbCircle
 10
244.606
 20
200
 30
0
 40
45
100
AcDbArc
 50
180
 51
-141.364
  0
ARC
  5
A57
330
A02
100
AcDbEntity
  8
View
100
AcDbCircle
 10
244.606
 20
64.3216
 30
0
 40
113.178
100
AcDbArc
 50
46.1379
 51
108.094
  0
ARC
  5
A58
330
A02
100
AcDbEntity
  8
View
100
AcDbCircle
 10
375
 20
200
 30
0
 40
75
100
AcDbArc
 50
-133.862
 51
-2.17126e-14
  0
ARC
  5
A59
330
A02
100
AcDbEntity
  8
View
100
AcDbCircle
 10
442.5
 20
200
 30
0
 40
7.5
100
AcDbArc
 50
0
 51
180
  0
ARC
  5
A5A
330
A02
100
AcDbEntity
  8
View
100
AcDbCircle
 10
375
 20
200
 30
0
 40
60
100
AcDbArc
 50
180
 51
-2.71407e-14
  0
CIRCLE
  5
A5B
330
A02
100
AcDbEntity
  8
View
100
AcDbCircle
 10
442.5
 20
200
 40
1.6
  0
CIRCLE
  5
A5C
330
A02
100
AcDbEntity
  8
View
100
AcDbCircle
 10
422.73
 20
152.27
 40
1.6
  0
CIRCLE
  5
A5D
330
A02
100
AcDbEntity
  8
View
100
AcDbCircle
 10
375
 20
132.5
 40
1.6
  0
CIRCLE
  5
A5E
330
A02
100
AcDbEntity
  8
View
100
AcDbCircle
 10
327.27
 20
152.27
 40
1.6
  0
CIRCLE
  5
A5F
330
A02
100
AcDbEntity
  8
View
100
AcDbCircle
 10
301.262
 20
170.874
 40
1.6
  0
CIRCLE
  5
A60
330
A02
100
AcDbEntity
  8
View
100
AcDbCircle
 10
273.801
 20
181.415
 40
1.6
  0
CIRCLE
  5
A61
330
A02
100
AcDbEntity
  8
View
100
AcDbCircle
 10
244.606
 20
185
 40
1.6
  0
CIRCLE
  5
A62
330
A02
100
AcDbEntity
  8
View
100
AcDbCircle
 10
215.412
 20
181.415
 40
1.6
  0
LINE
  5
A63
330
A02
100
AcDbEntity
  8
View001
100
AcDbLine
 10
468.645
 20
274.86
 30
0
 11
470.242
 21
273.656
 31
0
  0
ARC
  5
A64
330
A02
100
AcDbEntity
  8
View001
100
AcDbCircle
 10
495
 20
255
 30
0
 40
31
100
AcDbArc
 50
-37
 51
143
  0
LINE
  5
A65
330
A02
100
AcDbEntity
  8
View001
100
AcDbLine
 10
519.758
 20
236.344
 30
0
 11
521.355
 21
235.14
 31
0
  0
ARC
  5
A66
330
A02
100
AcDbEntity
  8
View001
100
AcDbCircle
 10
526.147
 20
231.529
 30
0
 40
6
100
AcDbArc
 50
143
 51
-36.9998
  0
ARC
  5
A67
330
A02
100
AcDbEntity
  8
View001
100
AcDbCircle
 10
495
 20
255
 30
0
 40
45
100
AcDbArc
 50
-37
 51
90
  0
LINE
  5
A68
330
A02
100
AcDbEntity
  8
View001
100
AcDbLine
 10
480.061
 20
300
 30
0
 11
495
 21
300
 31
0
  0
LINE
  5
A69
330
A02
100
AcDbEntity
  8
View001
100
AcDbLine
 10
462.061
 20
303
 30
0
 11
480.061
 21
300
 31
0
  0
LINE
  5
A6A
330
A02
100
AcDbEntity
  8
View001
100
AcDbLine
 10
459.061
 20
300
 30
0
 11
462.061
 21
303
 31
0
  0
LINE
  5
A6B
330
A02
100
AcDbEntity
  8
View001
100
AcDbLine
 10
459.061
 20
300
 30
0
 11
459.061
 21
282.082
 31
0
  0
ARC
  5
A6C
330
A02
100
AcDbEntity
  8
View001
100
AcDbCircle
 10
463.853
 20
278.471
 30
0
 40
6
100
AcDbArc
 50
143
 51
-37
  0
CIRCLE
  5
A6D
330
A02
100
AcDbEntity
  8
View001
100
AcDbCircle
 10
499.753
 20
293.709
 40
1.6
  0
CIRCLE
  5
A6E
330
A02
100
AcDbEntity
  8
View001
100
AcDbCircle
 10
530.9
 20
270.239
 40
1.6
  0
CIRCLE
  5
A6F
330
A02
100
AcDbEntity
  8
View001
100
AcDbCircle
 10
526.147
 20
231.529
 40
1.6
  0
ARC
  5
A70
330
A02
100
AcDbEntity
  8
View001
100
AcDbCircle
 10
463.853
 20
321.529
 30
0
 40
6
100
AcDbArc
 50
-116.034
 51
37
  0
LINE
  5
A71
330
A02
100
AcDbEntity
  8
View001
100
AcDbLine
 10
468.645
 20
325.14
 30
0
 11
470.242
 21
326.344
 31
0
  0
ARC
  5
A72
330
A02
100
AcDbEntity
  8
View001
100
AcDbCircle
 10
495
 20
345
 30
0
 40
31
100
AcDbArc
 50
-143
 51
37
  0
LINE
  5
A73
330
A02
100
AcDbEntity
  8
View001
100
AcDbLine
 10
519.758
 20
363.656
 30
0
 11
521.355
 21
364.86
 31
0
  0
ARC
  5
A74
330
A02
100
AcDbEntity
  8
View001
100
AcDbCircle
 10
526.147
 20
368.471
 30
0
 40
6
100
AcDbArc
 50
-143
 51
-61.8499
  0
LINE
  5
A75
330
A02
100
AcDbEntity
  8
View001
100
AcDbLine
 10
534.677
 20
366.23
 30
0
 11
528.977
 21
363.18
 31
0
  0
ARC
  5
A76
330
A02
100
AcDbEntity
  8
View001
100
AcDbCircle
 10
495
 20
345
 30
0
 40
45
100
AcDbArc
 50
-90
 51
28.1501
  0
LINE
  5
A77
330
A02
100
AcDbEntity
  8
View001
100
AcDbLine
 10
480.061
 20
300
 30
0
 11
495
 21
300
 31
0
  0
LINE
  5
A78
330
A02
100
AcDbEntity
  8
View001
100
AcDbLine
 10
462.061
 20
303
 30
0
 11
480.061
 21
300
 31
0
  0
LINE
  5
A79
330
A02
100
AcDbEntity
  8
View001
100
AcDbLine
 10
460.769
 20
301.707
 30
0
 11
462.061
 21
303
 31
0
  0
ARC
  5
A7A
330
A02
100
AcDbEntity
  8
View001
100
AcDbCircle
 10
460.061
 20
302.414
 30
0
 40
1
100
AcDbArc
 50
180
 51
-45
  0
LINE
  5
A7B
330
A02
100
AcDbEntity
  8
View001
100
AcDbLine
 10
459.061
 20
314.79
 30
0
 11
459.061
 21
302.414
 31
0
  0
ARC
  5
A7C
330
A02
100
AcDbEntity
  8
View001
100
AcDbCircle
 10
460.561
 20
314.79
 30
0
 40
1.5
100
AcDbArc
 50
63.9657
 51
180
  0
CIRCLE
  5
A7D
330
A02
100
AcDbEntity
  8
View001
100
AcDbCircle
 10
499.753
 20
306.291
 40
1.6
  0
CIRCLE
  5
A7E
330
A02
100
AcDbEntity
  8
View001
100
AcDbCircle
 10
530.9
 20
329.761
 40
1.6
  0
LINE
  5
A7F
330
A02
100
AcDbEntity
  8
View001
100
AcDbLine
 10
459.061
 20
282.082
 30
0
 11
459.061
 21
300
 31
0
  0
LINE
  5
A80
330
A02
100
AcDbEntity
  8
View001
100
AcDbLine
 10
459.061
 20
300
 30
0
 11
452.5
 21
300
 31
0
  0
ARC
  5
A81
330
A02
100
AcDbEntity
  8
View001
100
AcDbCircle
 10
435
 20
300
 30
0
 40
17.5
100
AcDbArc
 50
180
 51
0
  0
LINE
  5
A82
330
A02
100
AcDbEntity
  8
View001
100
AcDbLine
 10
410.394
 20
300
 30
0
 11
417.5
 21
300
 31
0
  0
ARC
  5
A83
330
A02
100
AcDbEntity
  8
View001
100
AcDbCircle
 10
365.394
 20
300
 30
0
 40
45
100
AcDbArc
 50
-38.6363
 51
0
  0
ARC
  5
A84
330
A02
100
AcDbEntity
  8
View001
100
AcDbCircle
 10
365.394
 20
164.322
 30
0
 40
113.178
100
AcDbArc
 50
34.9784
 51
71.906
  0
ARC
  5
A85
330
A02
100
AcDbEntity
  8
View001
100
AcDbCircle
 10
495
 20
255
 30
0
 40
45
100
AcDbArc
 50
-145.022
 51
-45.8499
  0
LINE
  5
A86
330
A02
100
AcDbEntity
  8
View001
100
AcDbLine
 10
526.344
 20
222.712
 30
0
 11
521.842
 21
227.35
 31
0
  0
ARC
  5
A87
330
A02
100
AcDbEntity
  8
View001
100
AcDbCircle
 10
526.147
 20
231.529
 30
0
 40
6
100
AcDbArc
 50
143
 51
-135.85
  0
LINE
  5
A88
330
A02
100
AcDbEntity
  8
View001
100
AcDbLine
 10
521.355
 20
235.14
 30
0
 11
519.758
 21
236.344
 31
0
  0
ARC
  5
A89
330
A02
100
AcDbEntity
  8
View001
100
AcDbCircle
 10
495
 20
255
 30
0
 40
31
100
AcDbArc
 50
143
 51
-37
  0
LINE
  5
A8A
330
A02
100
AcDbEntity
  8
View001
100
AcDbLine
 10
468.645
 20
274.86
 30
0
 11
470.242
 21
273.656
 31
0
  0
ARC
  5
A8B
330
A02
100
AcDbEntity
  8
View001
100
AcDbCircle
 10
463.853
 20
278.471
 30
0
 40
6
100
AcDbArc
 50
143
 51
-37
  0
CIRCLE
  5
A8C
330
A02
100
AcDbEntity
  8
View001
100
AcDbCircle
 10
459.1
 20
239.761
 40
1.6
  0
CIRCLE
  5
A8D
330
A02
100
AcDbEntity
  8
View001
100
AcDbCircle
 10
490.247
 20
216.291
 40
1.6
  0
CIRCLE
  5
A8E
330
A02
100
AcDbEntity
  8
View001
100
AcDbCircle
 10
422.049
 20
270.874
 40
1.6
  0
CIRCLE
  5
A8F
330
A02
100
AcDbEntity
  8
View001
100
AcDbCircle
 10
455
 20
291
 40
1.6
  0
ARC
  5
A90
330
A02
100
AcDbEntity
  8
View001
100
AcDbCircle
 10
365.394
 20
300
 30
0
 40
45
100
AcDbArc
 50
141.364
 51
180
  0
ARC
  5
A91
330
A02
100
AcDbEntity
  8
View001
100
AcDbCircle
 10
365.394
 20
435.678
 30
0
 40
113.178
100
AcDbArc
 50
-108.094
 51
-34.9783
  0
ARC
  5
A92
330
A02
100
AcDbEntity
  8
View001
100
AcDbCircle
 10
495
 20
345
 30
0
 40
45
100
AcDbArc
 50
37
 51
145.022
  0
ARC
  5
A93
330
A02
100
AcDbEntity
  8
View001
100
AcDbCircle
 10
526.147
 20
368.471
 30
0
 40
6
100
AcDbArc
 50
-143
 51
37
  0
LINE
  5
A94
330
A02
100
AcDbEntity
  8
View001
100
AcDbLine
 10
519.758
 20
363.656
 30
0
 11
521.355
 21
364.86
 31
0
  0
ARC
  5
A95
330
A02
100
AcDbEntity
  8
View001
100
AcDbCircle
 10
495
 20
345
 30
0
 40
31
100
AcDbArc
 50
37
 51
-143
  0
LINE
  5
A96
330
A02
100
AcDbEntity
  8
View001
100
AcDbLine
 10
470.242
 20
326.344
 30
0
 11
468.645
 21
325.14
 31
0
  0
ARC
  5
A97
330
A02
100
AcDbEntity
  8
View001
100
AcDbCircle
 10
463.853
 20
321.529
 30
0
 40
6
100
AcDbArc
 50
-143
 51
37
  0
LINE
  5
A98
330
A02
100
AcDbEntity
  8
View001
100
AcDbLine
 10
459.061
 20
317.918
 30
0
 11
459.061
 21
300
 31
0
  0
LINE
  5
A99
330
A02
100
AcDbEntity
  8
View001
100
AcDbLine
 10
452.5
 20
300
 30
0
 11
459.061
 21
300
 31
0
  0
ARC
  5
A9A
330
A02
100
AcDbEntity
  8
View001
100
AcDbCircle
 10
435
 20
300
 30
0
 40
17.5
100
AcDbArc
 50
180
 51
0
  0
LINE
  5
A9B
330
A02
100
AcDbEntity
  8
View001
100
AcDbLine
 10
320.394
 20
300
 30
0
 11
417.5
 21
300
 31
0
  0
CIRCLE
  5
A9C
330
A02
100
AcDbEntity
  8
View001
100
AcDbCircle
 10
336.199
 20
318.585
 40
1.6
  0
CIRCLE
  5
A9D
330
A02
100
AcDbEntity
  8
View001
100
AcDbCircle
 10
365.394
 20
315
 40
1.6
  0
CIRCLE
  5
A9E
330
A02
100
AcDbEntity
  8
View001
100
AcDbCircle
 10
394.588
 20
318.585
 40
1.6
  0
CIRCLE
  5
A9F
330
A02
100
AcDbEntity
  8
View001
100
AcDbCircle
 10
422.049
 20
329.126
 40
1.6
  0
CIRCLE
  5
AA0
330
A02
100
AcDbEntity
  8
View001
100
AcDbCircle
 10
459.1
 20
360.239
 40
1.6
  0
CIRCLE
  5
AA1
330
A02
100
AcDbEntity
  8
View001
100
AcDbCircle
 10
490.247
 20
383.709
 40
1.6
  0
CIRCLE
  5
AA2
330
A02
100
AcDbEntity
  8
View001
100
AcDbCircle
 10
455
 20
309
 40
1.6
  0
CIRCLE
  5
AA3
330
A02
100
AcDbEntity
  8
View001
100
AcDbCircle
 10
435
 20
300
 40
8.5
  0
CIRCLE
  5
AA4
330
A02
100
AcDbEntity
  8
View001
100
AcDbCircle
 10
526.147
 20
368.471
 40
1.6
  0
ARC
  5
AA5
330
A02
100
AcDbEntity
  8
View001
100
AcDbCircle
 10
167.5
 20
300
 30
0
 40
7.5
100
AcDbArc
 50
1.04702e-07
 51
180
  0
ARC
  5
AA6
330
A02
100
AcDbEntity
  8
View001
100
AcDbCircle
 10
235
 20
300
 30
0
 40
60
100
AcDbArc
 50
180
 51
2.24067e-07
  0
ARC
  5
AA7
330
A02
100
AcDbEntity
  8
View001
100
AcDbCircle
 10
302.5
 20
300
 30
0
 40
7.5
100
AcDbArc
 50
0
 51
180
  0
LINE
  5
AA8
330
A02
100
AcDbEntity
  8
View001
100
AcDbLine
 10
310
 20
300
 30
0
 11
410.394
 21
300
 31
0
  0
ARC
  5
AA9
330
A02
100
AcDbEntity
  8
View001
100
AcDbCircle
 10
365.394
 20
300
 30
0
 40
45
100
AcDbArc
 50
-38.6363
 51
0
  0
ARC
  5
AAA
330
A02
100
AcDbEntity
  8
View001
100
AcDbCircle
 10
365.394
 20
164.322
 30
0
 40
113.178
100
AcDbArc
 50
71.906
 51
133.862
  0
ARC
  5
AAB
330
A02
100
AcDbEntity
  8
View001
100
AcDbCircle
 10
235
 20
300
 30
0
 40
75
100
AcDbArc
 50
180
 51
-46.1379
  0
CIRCLE
  5
AAC
330
A02
100
AcDbEntity
  8
View001
100
AcDbCircle
 10
167.5
 20
300
 40
1.6
  0
CIRCLE
  5
AAD
330
A02
100
AcDbEntity
  8
View001
100
AcDbCircle
 10
187.27
 20
252.27
 40
1.6
  0
CIRCLE
  5
AAE
330
A02
100
AcDbEntity
  8
View001
100
AcDbCircle
 10
235
 20
232.5
 40
1.6
  0
CIRCLE
  5
AAF
330
A02
100
AcDbEntity
  8
View001
100
AcDbCircle
 10
282.73
 20
252.27
 40
1.6
  0
CIRCLE
  5
AB0
330
A02
100
AcDbEntity
  8
View001
100
AcDbCircle
 10
308.738
 20
270.874
 40
1.6
  0
CIRCLE
  5
AB1
330
A02
100
AcDbEntity
  8
View001
100
AcDbCircle
 10
336.199
 20
281.415
 40
1.6
  0
CIRCLE
  5
AB2
330
A02
100
AcDbEntity
  8
View001
100
AcDbCircle
 10
365.394
 20
285
 40
1.6
  0
CIRCLE
  5
AB3
330
A02
100
AcDbEntity
  8
View001
100
AcDbCircle
 10
394.588
 20
281.415
 40
1.6
  0
LINE
  5
AB4
330
A02
100
AcDbEntity
  8
View001
100
AcDbLine
 10
160.376
 20
307.5
 30
0
 11
167.5
 21
307.5
 31
0
  0
ARC
  5
AB5
330
A02
100
AcDbEntity
  8
View001
100
AcDbCircle
 10
167.5
 20
300
 30
0
 40
7.5
100
AcDbArc
 50
45.2751
 51
90
  0
ARC
  5
AB6
330
A02
100
AcDbEntity
  8
View001
100
AcDbCircle
 10
173.833
 20
306.394
 30
0
 40
1.5
100
AcDbArc
 50
-134.725
 51
-5.9681
  0
ARC
  5
AB7
330
A02
100
AcDbEntity
  8
View001
100
AcDbCircle
 10
235
 20
300
 30
0
 40
60
100
AcDbArc
 50
5.9681
 51
174.032
  0
ARC
  5
AB8
330
A02
100
AcDbEntity
  8
View001
100
AcDbCircle
 10
296.167
 20
306.394
 30
0
 40
1.5
100
AcDbArc
 50
-174.032
 51
-45.2751
  0
ARC
  5
AB9
330
A02
100
AcDbEntity
  8
View001
100
AcDbCircle
 10
302.5
 20
300
 30
0
 40
7.5
100
AcDbArc
 50
0
 51
134.725
  0
LINE
  5
ABA
330
A02
100
AcDbEntity
  8
View001
100
AcDbLine
 10
310
 20
300
 30
0
 11
320.394
 21
300
 31
0
  0
ARC
  5
ABB
330
A02
100
AcDbEntity
  8
View001
100
AcDbCircle
 10
365.394
 20
300
 30
0
 40
45
100
AcDbArc
 50
141.364
 51
180
  0
ARC
  5
ABC
330
A02
100
AcDbEntity
  8
View001
100
AcDbCircle
 10
365.394
 20
435.678
 30
0
 40
113.178
100
AcDbArc
 50
-133.862
 51
-108.094
  0
ARC
  5
ABD
330
A02
100
AcDbEntity
  8
View001
100
AcDbCircle
 10
235
 20
300
 30
0
 40
75
100
AcDbArc
 50
46.1379
 51
174.261
  0
CIRCLE
  5
ABE
330
A02
100
AcDbEntity
  8
View001
100
AcDbCircle
 10
187.27
 20
347.73
 40
1.6
  0
CIRCLE
  5
ABF
330
A02
100
AcDbEntity
  8
View001
100
AcDbCircle
 10
235
 20
367.5
 40
1.6
  0
CIRCLE
  5
AC0
330
A02
100
AcDbEntity
  8
View001
100
AcDbCircle
 10
282.73
 20
347.73
 40
1.6
  0
CIRCLE
  5
AC1
330
A02
100
AcDbEntity
  8
View001
100
AcDbCircle
 10
308.738
 20
329.126
 40
1.6
  0
ARC
  5
AC2
330
A02
100
AcDbEntity
  8
View003
100
AcDbCircle
 10
235
 20
100
 30
0
 40
60
100
AcDbArc
 50
-174.032
 51
-5.9681
  0
ARC
  5
AC3
330
A02
100
AcDbEntity
  8
View003
100
AcDbCircle
 10
296.167
 20
93.6056
 30
0
 40
1.5
100
AcDbArc
 50
45.2751
 51
174.032
  0
ARC
  5
AC4
330
A02
100
AcDbEntity
  8
View003
100
AcDbCircle
 10
302.5
 20
100
 30
0
 40
7.5
100
AcDbArc
 50
-134.725
 51
-1.08563e-13
  0
LINE
  5
AC5
330
A02
100
AcDbEntity
  8
View003
100
AcDbLine
 10
310
 20
100
 30
0
 11
320.394
 21
100
 31
0
  0
ARC
  5
AC6
330
A02
100
AcDbEntity
  8
View003
100
AcDbCircle
 10
365.394
 20
100
 30
0
 40
45
100
AcDbArc
 50
-180
 51
-141.364
  0
ARC
  5
AC7
330
A02
100
AcDbEntity
  8
View003
100
AcDbCircle
 10
365.394
 20
-35.6784
 30
0
 40
113.178
100
AcDbArc
 50
108.094
 51
133.862
  0
ARC
  5
AC8
330
A02
100
AcDbEntity
  8
View003
100
AcDbCircle
 10
235
 20
100
 30
0
 40
75
100
AcDbArc
 50
-174.261
 51
-46.1379
  0
LINE
  5
AC9
330
A02
100
AcDbEntity
  8
View003
100
AcDbLine
 10
160.376
 20
92.5
 30
0
 11
167.5
 21
92.5
 31
0
  0
ARC
  5
ACA
330
A02
100
AcDbEntity
  8
View003
100
AcDbCircle
 10
167.5
 20
100
 30
0
 40
7.5
100
AcDbArc
 50
-90
 51
-45.2751
  0
ARC
  5
ACB
330
A02
100
AcDbEntity
  8
View003
100
AcDbCircle
 10
173.833
 20
93.6056
 30
0
 40
1.5
100
AcDbArc
 50
5.9681
 51
134.725
  0
CIRCLE
  5
ACC
330
A02
100
AcDbEntity
  8
View003
100
AcDbCircle
 10
187.27
 20
52.2703
 40
1.6
  0
CIRCLE
  5
ACD
330
A02
100
AcDbEntity
  8
View003
100
AcDbCircle
 10
235
 20
32.5
 40
1.6
  0
CIRCLE
  5
ACE
330
A02
100
AcDbEntity
  8
View003
100
AcDbCircle
 10
282.73
 20
52.2703
 40
1.6
  0
CIRCLE
  5
ACF
330
A02
100
AcDbEntity
  8
View003
100
AcDbCircle
 10
308.738
 20
70.8743
 40
1.6
  0
ARC
  5
AD0
330
A02
100
AcDbEntity
  8
View003
100
AcDbCircle
 10
167.5
 20
100
 30
0
 40
7.5
100
AcDbArc
 50
-180
 51
-1.04702e-07
  0
ARC
  5
AD1
330
A02
100
AcDbEntity
  8
View003
100
AcDbCircle
 10
235
 20
100
 30
0
 40
75
100
AcDbArc
 50
46.1379
 51
-180
  0
ARC
  5
AD2
330
A02
100
AcDbEntity
  8
View003
100
AcDbCircle
 10
365.394
 20
235.678
 30
0
 40
113.178
100
AcDbArc
 50
-133.862
 51
-71.906
  0
ARC
  5
AD3
330
A02
100
AcDbEntity
  8
View003
100
AcDbCircle
 10
365.394
 20
100
 30
0
 40
45
100
AcDbArc
 50
1.80938e-14
 51
38.6363
  0
LINE
  5
AD4
330
A02
100
AcDbEntity
  8
View003
100
AcDbLine
 10
310
 20
100
 30
0
 11
410.394
 21
100
 31
0
  0
ARC
  5
AD5
330
A02
100
AcDbEntity
  8
View003
100
AcDbCircle
 10
302.5
 20
100
 30
0
 40
7.5
100
AcDbArc
 50
-180
 51
0
  0
ARC
  5
AD6
330
A02
100
AcDbEntity
  8
View003
100
AcDbCircle
 10
235
 20
100
 30
0
 40
60
100
AcDbArc
 50
-2.24067e-07
 51
-180
  0
CIRCLE
  5
AD7
330
A02
100
AcDbEntity
  8
View003
100
AcDbCircle
 10
187.27
 20
147.73
 40
1.6
  0
CIRCLE
  5
AD8
330
A02
100
AcDbEntity
  8
View003
100
AcDbCircle
 10
235
 20
167.5
 40
1.6
  0
CIRCLE
  5
AD9
330
A02
100
AcDbEntity
  8
View003
100
AcDbCircle
 10
282.73
 20
147.73
 40
1.6
  0
CIRCLE
  5
ADA
330
A02
100
AcDbEntity
  8
View003
100
AcDbCircle
 10
308.738
 20
129.126
 40
1.6
  0
CIRCLE
  5
ADB
330
A02
100
AcDbEntity
  8
View003
100
AcDbCircle
 10
365.394
 20
115
 40
1.6
  0
CIRCLE
  5
ADC
330
A02
100
AcDbEntity
  8
View003
100
AcDbCircle
 10
394.588
 20
118.585
 40
1.6
  0
CIRCLE
  5
ADD
330
A02
100
AcDbEntity
  8
View003
100
AcDbCircle
 10
336.199
 20
118.585
 40
1.6
  0
CIRCLE
  5
ADE
330
A02
100
AcDbEntity
  8
View003
100
AcDbCircle
 10
167.5
 20
100
 40
1.6
  0
ARC
  5
ADF
330
A02
100
AcDbEntity
  8
View003
100
AcDbCircle
 10
495
 20
55
 30
0
 40
31
100
AcDbArc
 50
143
 51
-37
  0
LINE
  5
AE0
330
A02
100
AcDbEntity
  8
View003
100
AcDbLine
 10
519.758
 20
36.3437
 30
0
 11
521.355
 21
35.1401
 31
0
  0
ARC
  5
AE1
330
A02
100
AcDbEntity
  8
View003
100
AcDbCircle
 10
526.147
 20
31.5292
 30
0
 40
6
100
AcDbArc
 50
-37
 51
143
  0
ARC
  5
AE2
330
A02
100
AcDbEntity
  8
View003
100
AcDbCircle
 10
495
 20
55
 30
0
 40
45
100
AcDbArc
 50
-145.022
 51
-37
  0
ARC
  5
AE3
330
A02
100
AcDbEntity
  8
View003
100
AcDbCircle
 10
365.394
 20
-35.6784
 30
0
 40
113.178
100
AcDbArc
 50
34.9783
 51
108.094
  0
ARC
  5
AE4
330
A02
100
AcDbEntity
  8
View003
100
AcDbCircle
 10
365.394
 20
100
 30
0
 40
45
100
AcDbArc
 50
-180
 51
-141.364
  0
LINE
  5
AE5
330
A02
100
AcDbEntity
  8
View003
100
AcDbLine
 10
320.394
 20
100
 30
0
 11
417.5
 21
100
 31
0
  0
ARC
  5
AE6
330
A02
100
AcDbEntity
  8
View003
100
AcDbCircle
 10
435
 20
100
 30
0
 40
17.5
100
AcDbArc
 50
-4.6527e-14
 51
180
  0
LINE
  5
AE7
330
A02
100
AcDbEntity
  8
View003
100
AcDbLine
 10
452.5
 20
100
 30
0
 11
459.061
 21
100
 31
0
  0
LINE
  5
AE8
330
A02
100
AcDbEntity
  8
View003
100
AcDbLine
 10
459.061
 20
82.0817
 30
0
 11
459.061
 21
100
 31
0
  0
ARC
  5
AE9
330
A02
100
AcDbEntity
  8
View003
100
AcDbCircle
 10
463.853
 20
78.4708
 30
0
 40
6
100
AcDbArc
 50
-37
 51
143
  0
LINE
  5
AEA
330
A02
100
AcDbEntity
  8
View003
100
AcDbLine
 10
470.242
 20
73.6563
 30
0
 11
468.645
 21
74.8599
 31
0
  0
CIRCLE
  5
AEB
330
A02
100
AcDbEntity
  8
View003
100
AcDbCircle
 10
526.147
 20
31.5292
 40
1.6
  0
CIRCLE
  5
AEC
330
A02
100
AcDbEntity
  8
View003
100
AcDbCircle
 10
490.247
 20
16.2907
 40
1.6
  0
CIRCLE
  5
AED
330
A02
100
AcDbEntity
  8
View003
100
AcDbCircle
 10
459.1
 20
39.7615
 40
1.6
  0
CIRCLE
  5
AEE
330
A02
100
AcDbEntity
  8
View003
100
AcDbCircle
 10
422.049
 20
70.8743
 40
1.6
  0
CIRCLE
  5
AEF
330
A02
100
AcDbEntity
  8
View003
100
AcDbCircle
 10
394.588
 20
81.4153
 40
1.6
  0
CIRCLE
  5
AF0
330
A02
100
AcDbEntity
  8
View003
100
AcDbCircle
 10
365.394
 20
85
 40
1.6
  0
CIRCLE
  5
AF1
330
A02
100
AcDbEntity
  8
View003
100
AcDbCircle
 10
336.199
 20
81.4153
 40
1.6
  0
CIRCLE
  5
AF2
330
A02
100
AcDbEntity
  8
View003
100
AcDbCircle
 10
435
 20
100
 40
8.5
  0
CIRCLE
  5
AF3
330
A02
100
AcDbEntity
  8
View003
100
AcDbCircle
 10
455
 20
91
 40
1.6
  0
ARC
  5
AF4
330
A02
100
AcDbEntity
  8
View003
100
AcDbCircle
 10
495
 20
145
 30
0
 40
45
100
AcDbArc
 50
45.8499
 51
145.022
  0
ARC
  5
AF5
330
A02
100
AcDbEntity
  8
View003
100
AcDbCircle
 10
365.394
 20
235.678
 30
0
 40
113.178
100
AcDbArc
 50
-71.906
 51
-34.9784
  0
ARC
  5
AF6
330
A02
100
AcDbEntity
  8
View003
100
AcDbCircle
 10
365.394
 20
100
 30
0
 40
45
100
AcDbArc
 50
1.80938e-14
 51
38.6363
  0
LINE
  5
AF7
330
A02
100
AcDbEntity
  8
View003
100
AcDbLine
 10
410.394
 20
100
 30
0
 11
417.5
 21
100
 31
0
  0
ARC
  5
AF8
330
A02
100
AcDbEntity
  8
View003
100
AcDbCircle
 10
435
 20
100
 30
0
 40
17.5
100
AcDbArc
 50
0
 51
180
  0
LINE
  5
AF9
330
A02
100
AcDbEntity
  8
View003
100
AcDbLine
 10
459.061
 20
100
 30
0
 11
452.5
 21
100
 31
0
  0
LINE
  5
AFA
330
A02
100
AcDbEntity
  8
View003
100
AcDbLine
 10
459.061
 20
117.918
 30
0
 11
459.061
 21
100
 31
0
  0
ARC
  5
AFB
330
A02
100
AcDbEntity
  8
View003
100
AcDbCircle
 10
463.853
 20
121.529
 30
0
 40
6
100
AcDbArc
 50
37
 51
-143
  0
LINE
  5
AFC
330
A02
100
AcDbEntity
  8
View003
100
AcDbLine
 10
468.645
 20
125.14
 30
0
 11
470.242
 21
126.344
 31
0
  0
ARC
  5
AFD
330
A02
100
AcDbEntity
  8
View003
100
AcDbCircle
 10
495
 20
145
 30
0
 40
31
100
AcDbArc
 50
37
 51
-143
  0
LINE
  5
AFE
330
A02
100
AcDbEntity
  8
View003
100
AcDbLine
 10
521.355
 20
164.86
 30
0
 11
519.758
 21
163.656
 31
0
  0
ARC
  5
AFF
330
A02
100
AcDbEntity
  8
View003
100
AcDbCircle
 10
526.147
 20
168.471
 30
0
 40
6
100
AcDbArc
 50
135.85
 51
-143
  0
LINE
  5
B00
330
A02
100
AcDbEntity
  8
View003
100
AcDbLine
 10
526.344
 20
177.288
 30
0
 11
521.842
 21
172.65
 31
0
  0
CIRCLE
  5
B01
330
A02
100
AcDbEntity
  8
View003
100
AcDbCircle
 10
455
 20
109
 40
1.6
  0
CIRCLE
  5
B02
330
A02
100
AcDbEntity
  8
View003
100
AcDbCircle
 10
422.049
 20
129.126
 40
1.6
  0
CIRCLE
  5
B03
330
A02
100
AcDbEntity
  8
View003
100
AcDbCircle
 10
459.1
 20
160.239
 40
1.6
  0
CIRCLE
  5
B04
330
A02
100
AcDbEntity
  8
View003
100
AcDbCircle
 10
490.247
 20
183.709
 40
1.6
  0
LINE
  5
B05
330
A02
100
AcDbEntity
  8
View003
100
AcDbLine
 10
459.061
 20
85.2098
 30
0
 11
459.061
 21
97.5858
 31
0
  0
ARC
  5
B06
330
A02
100
AcDbEntity
  8
View003
100
AcDbCircle
 10
460.061
 20
97.5858
 30
0
 40
1
100
AcDbArc
 50
45
 51
-180
  0
LINE
  5
B07
330
A02
100
AcDbEntity
  8
View003
100
AcDbLine
 10
460.769
 20
98.2929
 30
0
 11
462.061
 21
97
 31
0
  0
LINE
  5
B08
330
A02
100
AcDbEntity
  8
View003
100
AcDbLine
 10
462.061
 20
97
 30
0
 11
480.061
 21
100
 31
0
  0
LINE
  5
B09
330
A02
100
AcDbEntity
  8
View003
100
AcDbLine
 10
480.061
 20
100
 30
0
 11
495
 21
100
 31
0
  0
ARC
  5
B0A
330
A02
100
AcDbEntity
  8
View003
100
AcDbCircle
 10
495
 20
55
 30
0
 40
45
100
AcDbArc
 50
-28.1501
 51
90
  0
LINE
  5
B0B
330
A02
100
AcDbEntity
  8
View003
100
AcDbLine
 10
534.677
 20
33.7698
 30
0
 11
528.977
 21
36.8195
 31
0
  0
ARC
  5
B0C
330
A02
100
AcDbEntity
  8
View003
100
AcDbCircle
 10
526.147
 20
31.5292
 30
0
 40
6
100
AcDbArc
 50
61.8499
 51
143
  0
LINE
  5
B0D
330
A02
100
AcDbEntity
  8
View003
100
AcDbLine
 10
519.758
 20
36.3437
 30
0
 11
521.355
 21
35.1401
 31
0
  0
ARC
  5
B0E
330
A02
100
AcDbEntity
  8
View003
100
AcDbCircle
 10
495
 20
55
 30
0
 40
31
100
AcDbArc
 50
-37
 51
143
  0
LINE
  5
B0F
330
A02
100
AcDbEntity
  8
View003
100
AcDbLine
 10
468.645
 20
74.8599
 30
0
 11
470.242
 21
73.6563
 31
0
  0
ARC
  5
B10
330
A02
100
AcDbEntity
  8
View003
100
AcDbCircle
 10
463.853
 20
78.4708
 30
0
 40
6
100
AcDbArc
 50
-37
 51
116.034
  0
ARC
  5
B11
330
A02
100
AcDbEntity
  8
View003
100
AcDbCircle
 10
460.561
 20
85.2098
 30
0
 40
1.5
100
AcDbArc
 50
180
 51
-63.9657
  0
CIRCLE
  5
B12
330
A02
100
AcDbEntity
  8
View003
100
AcDbCircle
 10
530.9
 20
70.2385
 40
1.6
  0
CIRCLE
  5
B13
330
A02
100
AcDbEntity
  8
View003
100
AcDbCircle
 10
499.753
 20
93.7093
 40
1.6
  0
LINE
  5
B14
330
A02
100
AcDbEntity
  8
View003
100
AcDbLine
 10
459.061
 20
100
 30
0
 11
459.061
 21
117.918
 31
0
  0
ARC
  5
B15
330
A02
100
AcDbEntity
  8
View003
100
AcDbCircle
 10
463.853
 20
121.529
 30
0
 40
6
100
AcDbArc
 50
37
 51
-143
  0
LINE
  5
B16
330
A02
100
AcDbEntity
  8
View003
100
AcDbLine
 10
468.645
 20
125.14
 30
0
 11
470.242
 21
126.344
 31
0
  0
ARC
  5
B17
330
A02
100
AcDbEntity
  8
View003
100
AcDbCircle
 10
495
 20
145
 30
0
 40
31
100
AcDbArc
 50
-143
 51
37
  0
LINE
  5
B18
330
A02
100
AcDbEntity
  8
View003
100
AcDbLine
 10
519.758
 20
163.656
 30
0
 11
521.355
 21
164.86
 31
0
  0
ARC
  5
B19
330
A02
100
AcDbEntity
  8
View003
100
AcDbCircle
 10
526.147
 20
168.471
 30
0
 40
6
100
AcDbArc
 50
36.9998
 51
-143
  0
ARC
  5
B1A
330
A02
100
AcDbEntity
  8
View003
100
AcDbCircle
 10
495
 20
145
 30
0
 40
45
100
AcDbArc
 50
-90
 51
37
  0
LINE
  5
B1B
330
A02
100
AcDbEntity
  8
View003
100
AcDbLine
 10
480.061
 20
100
 30
0
 11
495
 21
100
 31
0
  0
LINE
  5
B1C
330
A02
100
AcDbEntity
  8
View003
100
AcDbLine
 10
462.061
 20
97
 30
0
 11
480.061
 21
100
 31
0
  0
LINE
  5
B1D
330
A02
100
AcDbEntity
  8
View003
100
AcDbLine
 10
459.061
 20
100
 30
0
 11
462.061
 21
97
 31
0
  0
CIRCLE
  5
B1E
330
A02
100
AcDbEntity
  8
View003
100
AcDbCircle
 10
526.147
 20
168.471
 40
1.6
  0
CIRCLE
  5
B1F
330
A02
100
AcDbEntity
  8
View003
100
AcDbCircle
 10
530.9
 20
129.761
 40
1.6
  0
CIRCLE
  5
B20
330
A02
100
AcDbEntity
  8
View003
100
AcDbCircle
 10
499.753
 20
106.291
 40
1.6
  0
ENDSEC
  0
SECTION
  2
OBJECTS
  0
DICTIONARY
  5
F000
330
0
100
AcDbDictionary
  3
ACAD_GROUP
350
F001
  0
DICTIONARY
  5
F001
330
F000
100
AcDbDictionary
  0
ENDSEC
  0
EOF